<?xml version="1.0" encoding="utf-8" standalone="no"?>
<!DOCTYPE svg PUBLIC "-//W3C//DTD SVG 1.1//EN"
  "http://www.w3.org/Graphics/SVG/1.1/DTD/svg11.dtd">
<svg height="504pt" version="1.1" viewBox="0 0 720 504" width="720pt" xmlns="http://www.w3.org/2000/svg" xmlns:xlink="http://www.w3.org/1999/xlink">
 <metadata>
  <rdf:RDF xmlns:cc="http://creativecommons.org/ns#" xmlns:dc="http://purl.org/dc/elements/1.1/" xmlns:rdf="http://www.w3.org/1999/02/22-rdf-syntax-ns#">
   <cc:Work>
    <dc:type rdf:resource="http://purl.org/dc/dcmitype/StillImage"/>
    <dc:date>2021-09-16T16:09:51.493490</dc:date>
    <dc:format>image/svg+xml</dc:format>
    <dc:creator>
     <cc:Agent>
      <dc:title>Matplotlib v3.4.2, https://matplotlib.org/</dc:title>
     </cc:Agent>
    </dc:creator>
   </cc:Work>
  </rdf:RDF>
 </metadata>
 <defs>
  <style type="text/css">*{stroke-linecap:butt;stroke-linejoin:round;}</style>
 </defs>
 <g id="figure_1">
  <g id="patch_1">
   <path d="M 0 504 
L 720 504 
L 720 0 
L 0 0 
z
" style="fill:#ffffff;"/>
  </g>
  <g id="axes_1">
   <g id="patch_2">
    <path d="M 90 448.56 
L 648 448.56 
L 648 60.48 
L 90 60.48 
z
" style="fill:#ffffff;"/>
   </g>
   <g id="matplotlib.axis_1">
    <g id="xtick_1">
     <g id="line2d_1">
      <path clip-path="url(#pe931463e3d)" d="M 90 448.56 
L 90 60.48 
" style="fill:none;stroke:#b0b0b0;stroke-linecap:square;stroke-width:0.8;"/>
     </g>
     <g id="line2d_2">
      <defs>
       <path d="M 0 0 
L 0 3.5 
" id="me4bcb4d559" style="stroke:#000000;stroke-width:0.8;"/>
      </defs>
      <g>
       <use style="stroke:#000000;stroke-width:0.8;" x="90" xlink:href="#me4bcb4d559" y="448.56"/>
      </g>
     </g>
     <g id="text_1">
      <!-- 0.01 -->
      <g transform="translate(78.867188 463.158437)scale(0.1 -0.1)">
       <defs>
        <path d="M 2034 4250 
Q 1547 4250 1301 3770 
Q 1056 3291 1056 2328 
Q 1056 1369 1301 889 
Q 1547 409 2034 409 
Q 2525 409 2770 889 
Q 3016 1369 3016 2328 
Q 3016 3291 2770 3770 
Q 2525 4250 2034 4250 
z
M 2034 4750 
Q 2819 4750 3233 4129 
Q 3647 3509 3647 2328 
Q 3647 1150 3233 529 
Q 2819 -91 2034 -91 
Q 1250 -91 836 529 
Q 422 1150 422 2328 
Q 422 3509 836 4129 
Q 1250 4750 2034 4750 
z
" id="DejaVuSans-30" transform="scale(0.015625)"/>
        <path d="M 684 794 
L 1344 794 
L 1344 0 
L 684 0 
L 684 794 
z
" id="DejaVuSans-2e" transform="scale(0.015625)"/>
        <path d="M 794 531 
L 1825 531 
L 1825 4091 
L 703 3866 
L 703 4441 
L 1819 4666 
L 2450 4666 
L 2450 531 
L 3481 531 
L 3481 0 
L 794 0 
L 794 531 
z
" id="DejaVuSans-31" transform="scale(0.015625)"/>
       </defs>
       <use xlink:href="#DejaVuSans-30"/>
       <use x="63.623047" xlink:href="#DejaVuSans-2e"/>
       <use x="95.410156" xlink:href="#DejaVuSans-30"/>
       <use x="159.033203" xlink:href="#DejaVuSans-31"/>
      </g>
     </g>
    </g>
    <g id="xtick_2">
     <g id="line2d_3">
      <path clip-path="url(#pe931463e3d)" d="M 276 448.56 
L 276 60.48 
" style="fill:none;stroke:#b0b0b0;stroke-linecap:square;stroke-width:0.8;"/>
     </g>
     <g id="line2d_4">
      <g>
       <use style="stroke:#000000;stroke-width:0.8;" x="276" xlink:href="#me4bcb4d559" y="448.56"/>
      </g>
     </g>
     <g id="text_2">
      <!-- 0.1 -->
      <g transform="translate(268.048437 463.158437)scale(0.1 -0.1)">
       <use xlink:href="#DejaVuSans-30"/>
       <use x="63.623047" xlink:href="#DejaVuSans-2e"/>
       <use x="95.410156" xlink:href="#DejaVuSans-31"/>
      </g>
     </g>
    </g>
    <g id="xtick_3">
     <g id="line2d_5">
      <path clip-path="url(#pe931463e3d)" d="M 462 448.56 
L 462 60.48 
" style="fill:none;stroke:#b0b0b0;stroke-linecap:square;stroke-width:0.8;"/>
     </g>
     <g id="line2d_6">
      <g>
       <use style="stroke:#000000;stroke-width:0.8;" x="462" xlink:href="#me4bcb4d559" y="448.56"/>
      </g>
     </g>
     <g id="text_3">
      <!-- 1 -->
      <g transform="translate(458.81875 463.158437)scale(0.1 -0.1)">
       <use xlink:href="#DejaVuSans-31"/>
      </g>
     </g>
    </g>
    <g id="xtick_4">
     <g id="line2d_7">
      <path clip-path="url(#pe931463e3d)" d="M 648 448.56 
L 648 60.48 
" style="fill:none;stroke:#b0b0b0;stroke-linecap:square;stroke-width:0.8;"/>
     </g>
     <g id="line2d_8">
      <g>
       <use style="stroke:#000000;stroke-width:0.8;" x="648" xlink:href="#me4bcb4d559" y="448.56"/>
      </g>
     </g>
     <g id="text_4">
      <!-- 10 -->
      <g transform="translate(641.6375 463.158437)scale(0.1 -0.1)">
       <use xlink:href="#DejaVuSans-31"/>
       <use x="63.623047" xlink:href="#DejaVuSans-30"/>
      </g>
     </g>
    </g>
    <g id="xtick_5">
     <g id="line2d_9">
      <path clip-path="url(#pe931463e3d)" d="M 145.991579 448.56 
L 145.991579 60.48 
" style="fill:none;stroke:#b0b0b0;stroke-linecap:square;stroke-width:0.8;"/>
     </g>
     <g id="line2d_10">
      <defs>
       <path d="M 0 0 
L 0 2 
" id="m501de31975" style="stroke:#000000;stroke-width:0.6;"/>
      </defs>
      <g>
       <use style="stroke:#000000;stroke-width:0.6;" x="145.991579" xlink:href="#m501de31975" y="448.56"/>
      </g>
     </g>
    </g>
    <g id="xtick_6">
     <g id="line2d_11">
      <path clip-path="url(#pe931463e3d)" d="M 178.744553 448.56 
L 178.744553 60.48 
" style="fill:none;stroke:#b0b0b0;stroke-linecap:square;stroke-width:0.8;"/>
     </g>
     <g id="line2d_12">
      <g>
       <use style="stroke:#000000;stroke-width:0.6;" x="178.744553" xlink:href="#m501de31975" y="448.56"/>
      </g>
     </g>
    </g>
    <g id="xtick_7">
     <g id="line2d_13">
      <path clip-path="url(#pe931463e3d)" d="M 201.983158 448.56 
L 201.983158 60.48 
" style="fill:none;stroke:#b0b0b0;stroke-linecap:square;stroke-width:0.8;"/>
     </g>
     <g id="line2d_14">
      <g>
       <use style="stroke:#000000;stroke-width:0.6;" x="201.983158" xlink:href="#m501de31975" y="448.56"/>
      </g>
     </g>
    </g>
    <g id="xtick_8">
     <g id="line2d_15">
      <path clip-path="url(#pe931463e3d)" d="M 220.008421 448.56 
L 220.008421 60.48 
" style="fill:none;stroke:#b0b0b0;stroke-linecap:square;stroke-width:0.8;"/>
     </g>
     <g id="line2d_16">
      <g>
       <use style="stroke:#000000;stroke-width:0.6;" x="220.008421" xlink:href="#m501de31975" y="448.56"/>
      </g>
     </g>
    </g>
    <g id="xtick_9">
     <g id="line2d_17">
      <path clip-path="url(#pe931463e3d)" d="M 234.736133 448.56 
L 234.736133 60.48 
" style="fill:none;stroke:#b0b0b0;stroke-linecap:square;stroke-width:0.8;"/>
     </g>
     <g id="line2d_18">
      <g>
       <use style="stroke:#000000;stroke-width:0.6;" x="234.736133" xlink:href="#m501de31975" y="448.56"/>
      </g>
     </g>
    </g>
    <g id="xtick_10">
     <g id="line2d_19">
      <path clip-path="url(#pe931463e3d)" d="M 247.188235 448.56 
L 247.188235 60.48 
" style="fill:none;stroke:#b0b0b0;stroke-linecap:square;stroke-width:0.8;"/>
     </g>
     <g id="line2d_20">
      <g>
       <use style="stroke:#000000;stroke-width:0.6;" x="247.188235" xlink:href="#m501de31975" y="448.56"/>
      </g>
     </g>
    </g>
    <g id="xtick_11">
     <g id="line2d_21">
      <path clip-path="url(#pe931463e3d)" d="M 257.974738 448.56 
L 257.974738 60.48 
" style="fill:none;stroke:#b0b0b0;stroke-linecap:square;stroke-width:0.8;"/>
     </g>
     <g id="line2d_22">
      <g>
       <use style="stroke:#000000;stroke-width:0.6;" x="257.974738" xlink:href="#m501de31975" y="448.56"/>
      </g>
     </g>
    </g>
    <g id="xtick_12">
     <g id="line2d_23">
      <path clip-path="url(#pe931463e3d)" d="M 267.489107 448.56 
L 267.489107 60.48 
" style="fill:none;stroke:#b0b0b0;stroke-linecap:square;stroke-width:0.8;"/>
     </g>
     <g id="line2d_24">
      <g>
       <use style="stroke:#000000;stroke-width:0.6;" x="267.489107" xlink:href="#m501de31975" y="448.56"/>
      </g>
     </g>
    </g>
    <g id="xtick_13">
     <g id="line2d_25">
      <path clip-path="url(#pe931463e3d)" d="M 331.991579 448.56 
L 331.991579 60.48 
" style="fill:none;stroke:#b0b0b0;stroke-linecap:square;stroke-width:0.8;"/>
     </g>
     <g id="line2d_26">
      <g>
       <use style="stroke:#000000;stroke-width:0.6;" x="331.991579" xlink:href="#m501de31975" y="448.56"/>
      </g>
     </g>
    </g>
    <g id="xtick_14">
     <g id="line2d_27">
      <path clip-path="url(#pe931463e3d)" d="M 364.744553 448.56 
L 364.744553 60.48 
" style="fill:none;stroke:#b0b0b0;stroke-linecap:square;stroke-width:0.8;"/>
     </g>
     <g id="line2d_28">
      <g>
       <use style="stroke:#000000;stroke-width:0.6;" x="364.744553" xlink:href="#m501de31975" y="448.56"/>
      </g>
     </g>
    </g>
    <g id="xtick_15">
     <g id="line2d_29">
      <path clip-path="url(#pe931463e3d)" d="M 387.983158 448.56 
L 387.983158 60.48 
" style="fill:none;stroke:#b0b0b0;stroke-linecap:square;stroke-width:0.8;"/>
     </g>
     <g id="line2d_30">
      <g>
       <use style="stroke:#000000;stroke-width:0.6;" x="387.983158" xlink:href="#m501de31975" y="448.56"/>
      </g>
     </g>
    </g>
    <g id="xtick_16">
     <g id="line2d_31">
      <path clip-path="url(#pe931463e3d)" d="M 406.008421 448.56 
L 406.008421 60.48 
" style="fill:none;stroke:#b0b0b0;stroke-linecap:square;stroke-width:0.8;"/>
     </g>
     <g id="line2d_32">
      <g>
       <use style="stroke:#000000;stroke-width:0.6;" x="406.008421" xlink:href="#m501de31975" y="448.56"/>
      </g>
     </g>
    </g>
    <g id="xtick_17">
     <g id="line2d_33">
      <path clip-path="url(#pe931463e3d)" d="M 420.736133 448.56 
L 420.736133 60.48 
" style="fill:none;stroke:#b0b0b0;stroke-linecap:square;stroke-width:0.8;"/>
     </g>
     <g id="line2d_34">
      <g>
       <use style="stroke:#000000;stroke-width:0.6;" x="420.736133" xlink:href="#m501de31975" y="448.56"/>
      </g>
     </g>
    </g>
    <g id="xtick_18">
     <g id="line2d_35">
      <path clip-path="url(#pe931463e3d)" d="M 433.188235 448.56 
L 433.188235 60.48 
" style="fill:none;stroke:#b0b0b0;stroke-linecap:square;stroke-width:0.8;"/>
     </g>
     <g id="line2d_36">
      <g>
       <use style="stroke:#000000;stroke-width:0.6;" x="433.188235" xlink:href="#m501de31975" y="448.56"/>
      </g>
     </g>
    </g>
    <g id="xtick_19">
     <g id="line2d_37">
      <path clip-path="url(#pe931463e3d)" d="M 443.974738 448.56 
L 443.974738 60.48 
" style="fill:none;stroke:#b0b0b0;stroke-linecap:square;stroke-width:0.8;"/>
     </g>
     <g id="line2d_38">
      <g>
       <use style="stroke:#000000;stroke-width:0.6;" x="443.974738" xlink:href="#m501de31975" y="448.56"/>
      </g>
     </g>
    </g>
    <g id="xtick_20">
     <g id="line2d_39">
      <path clip-path="url(#pe931463e3d)" d="M 453.489107 448.56 
L 453.489107 60.48 
" style="fill:none;stroke:#b0b0b0;stroke-linecap:square;stroke-width:0.8;"/>
     </g>
     <g id="line2d_40">
      <g>
       <use style="stroke:#000000;stroke-width:0.6;" x="453.489107" xlink:href="#m501de31975" y="448.56"/>
      </g>
     </g>
    </g>
    <g id="xtick_21">
     <g id="line2d_41">
      <path clip-path="url(#pe931463e3d)" d="M 517.991579 448.56 
L 517.991579 60.48 
" style="fill:none;stroke:#b0b0b0;stroke-linecap:square;stroke-width:0.8;"/>
     </g>
     <g id="line2d_42">
      <g>
       <use style="stroke:#000000;stroke-width:0.6;" x="517.991579" xlink:href="#m501de31975" y="448.56"/>
      </g>
     </g>
    </g>
    <g id="xtick_22">
     <g id="line2d_43">
      <path clip-path="url(#pe931463e3d)" d="M 550.744553 448.56 
L 550.744553 60.48 
" style="fill:none;stroke:#b0b0b0;stroke-linecap:square;stroke-width:0.8;"/>
     </g>
     <g id="line2d_44">
      <g>
       <use style="stroke:#000000;stroke-width:0.6;" x="550.744553" xlink:href="#m501de31975" y="448.56"/>
      </g>
     </g>
    </g>
    <g id="xtick_23">
     <g id="line2d_45">
      <path clip-path="url(#pe931463e3d)" d="M 573.983158 448.56 
L 573.983158 60.48 
" style="fill:none;stroke:#b0b0b0;stroke-linecap:square;stroke-width:0.8;"/>
     </g>
     <g id="line2d_46">
      <g>
       <use style="stroke:#000000;stroke-width:0.6;" x="573.983158" xlink:href="#m501de31975" y="448.56"/>
      </g>
     </g>
    </g>
    <g id="xtick_24">
     <g id="line2d_47">
      <path clip-path="url(#pe931463e3d)" d="M 592.008421 448.56 
L 592.008421 60.48 
" style="fill:none;stroke:#b0b0b0;stroke-linecap:square;stroke-width:0.8;"/>
     </g>
     <g id="line2d_48">
      <g>
       <use style="stroke:#000000;stroke-width:0.6;" x="592.008421" xlink:href="#m501de31975" y="448.56"/>
      </g>
     </g>
    </g>
    <g id="xtick_25">
     <g id="line2d_49">
      <path clip-path="url(#pe931463e3d)" d="M 606.736133 448.56 
L 606.736133 60.48 
" style="fill:none;stroke:#b0b0b0;stroke-linecap:square;stroke-width:0.8;"/>
     </g>
     <g id="line2d_50">
      <g>
       <use style="stroke:#000000;stroke-width:0.6;" x="606.736133" xlink:href="#m501de31975" y="448.56"/>
      </g>
     </g>
    </g>
    <g id="xtick_26">
     <g id="line2d_51">
      <path clip-path="url(#pe931463e3d)" d="M 619.188235 448.56 
L 619.188235 60.48 
" style="fill:none;stroke:#b0b0b0;stroke-linecap:square;stroke-width:0.8;"/>
     </g>
     <g id="line2d_52">
      <g>
       <use style="stroke:#000000;stroke-width:0.6;" x="619.188235" xlink:href="#m501de31975" y="448.56"/>
      </g>
     </g>
    </g>
    <g id="xtick_27">
     <g id="line2d_53">
      <path clip-path="url(#pe931463e3d)" d="M 629.974738 448.56 
L 629.974738 60.48 
" style="fill:none;stroke:#b0b0b0;stroke-linecap:square;stroke-width:0.8;"/>
     </g>
     <g id="line2d_54">
      <g>
       <use style="stroke:#000000;stroke-width:0.6;" x="629.974738" xlink:href="#m501de31975" y="448.56"/>
      </g>
     </g>
    </g>
    <g id="xtick_28">
     <g id="line2d_55">
      <path clip-path="url(#pe931463e3d)" d="M 639.489107 448.56 
L 639.489107 60.48 
" style="fill:none;stroke:#b0b0b0;stroke-linecap:square;stroke-width:0.8;"/>
     </g>
     <g id="line2d_56">
      <g>
       <use style="stroke:#000000;stroke-width:0.6;" x="639.489107" xlink:href="#m501de31975" y="448.56"/>
      </g>
     </g>
    </g>
    <g id="text_5">
     <!-- Period T (s) -->
     <g transform="translate(329.342812 479.875938)scale(0.14 -0.14)">
      <defs>
       <path d="M 1259 4147 
L 1259 2394 
L 2053 2394 
Q 2494 2394 2734 2622 
Q 2975 2850 2975 3272 
Q 2975 3691 2734 3919 
Q 2494 4147 2053 4147 
L 1259 4147 
z
M 628 4666 
L 2053 4666 
Q 2838 4666 3239 4311 
Q 3641 3956 3641 3272 
Q 3641 2581 3239 2228 
Q 2838 1875 2053 1875 
L 1259 1875 
L 1259 0 
L 628 0 
L 628 4666 
z
" id="DejaVuSans-50" transform="scale(0.015625)"/>
       <path d="M 3597 1894 
L 3597 1613 
L 953 1613 
Q 991 1019 1311 708 
Q 1631 397 2203 397 
Q 2534 397 2845 478 
Q 3156 559 3463 722 
L 3463 178 
Q 3153 47 2828 -22 
Q 2503 -91 2169 -91 
Q 1331 -91 842 396 
Q 353 884 353 1716 
Q 353 2575 817 3079 
Q 1281 3584 2069 3584 
Q 2775 3584 3186 3129 
Q 3597 2675 3597 1894 
z
M 3022 2063 
Q 3016 2534 2758 2815 
Q 2500 3097 2075 3097 
Q 1594 3097 1305 2825 
Q 1016 2553 972 2059 
L 3022 2063 
z
" id="DejaVuSans-65" transform="scale(0.015625)"/>
       <path d="M 2631 2963 
Q 2534 3019 2420 3045 
Q 2306 3072 2169 3072 
Q 1681 3072 1420 2755 
Q 1159 2438 1159 1844 
L 1159 0 
L 581 0 
L 581 3500 
L 1159 3500 
L 1159 2956 
Q 1341 3275 1631 3429 
Q 1922 3584 2338 3584 
Q 2397 3584 2469 3576 
Q 2541 3569 2628 3553 
L 2631 2963 
z
" id="DejaVuSans-72" transform="scale(0.015625)"/>
       <path d="M 603 3500 
L 1178 3500 
L 1178 0 
L 603 0 
L 603 3500 
z
M 603 4863 
L 1178 4863 
L 1178 4134 
L 603 4134 
L 603 4863 
z
" id="DejaVuSans-69" transform="scale(0.015625)"/>
       <path d="M 1959 3097 
Q 1497 3097 1228 2736 
Q 959 2375 959 1747 
Q 959 1119 1226 758 
Q 1494 397 1959 397 
Q 2419 397 2687 759 
Q 2956 1122 2956 1747 
Q 2956 2369 2687 2733 
Q 2419 3097 1959 3097 
z
M 1959 3584 
Q 2709 3584 3137 3096 
Q 3566 2609 3566 1747 
Q 3566 888 3137 398 
Q 2709 -91 1959 -91 
Q 1206 -91 779 398 
Q 353 888 353 1747 
Q 353 2609 779 3096 
Q 1206 3584 1959 3584 
z
" id="DejaVuSans-6f" transform="scale(0.015625)"/>
       <path d="M 2906 2969 
L 2906 4863 
L 3481 4863 
L 3481 0 
L 2906 0 
L 2906 525 
Q 2725 213 2448 61 
Q 2172 -91 1784 -91 
Q 1150 -91 751 415 
Q 353 922 353 1747 
Q 353 2572 751 3078 
Q 1150 3584 1784 3584 
Q 2172 3584 2448 3432 
Q 2725 3281 2906 2969 
z
M 947 1747 
Q 947 1113 1208 752 
Q 1469 391 1925 391 
Q 2381 391 2643 752 
Q 2906 1113 2906 1747 
Q 2906 2381 2643 2742 
Q 2381 3103 1925 3103 
Q 1469 3103 1208 2742 
Q 947 2381 947 1747 
z
" id="DejaVuSans-64" transform="scale(0.015625)"/>
       <path id="DejaVuSans-20" transform="scale(0.015625)"/>
       <path d="M -19 4666 
L 3928 4666 
L 3928 4134 
L 2272 4134 
L 2272 0 
L 1638 0 
L 1638 4134 
L -19 4134 
L -19 4666 
z
" id="DejaVuSans-54" transform="scale(0.015625)"/>
       <path d="M 1984 4856 
Q 1566 4138 1362 3434 
Q 1159 2731 1159 2009 
Q 1159 1288 1364 580 
Q 1569 -128 1984 -844 
L 1484 -844 
Q 1016 -109 783 600 
Q 550 1309 550 2009 
Q 550 2706 781 3412 
Q 1013 4119 1484 4856 
L 1984 4856 
z
" id="DejaVuSans-28" transform="scale(0.015625)"/>
       <path d="M 2834 3397 
L 2834 2853 
Q 2591 2978 2328 3040 
Q 2066 3103 1784 3103 
Q 1356 3103 1142 2972 
Q 928 2841 928 2578 
Q 928 2378 1081 2264 
Q 1234 2150 1697 2047 
L 1894 2003 
Q 2506 1872 2764 1633 
Q 3022 1394 3022 966 
Q 3022 478 2636 193 
Q 2250 -91 1575 -91 
Q 1294 -91 989 -36 
Q 684 19 347 128 
L 347 722 
Q 666 556 975 473 
Q 1284 391 1588 391 
Q 1994 391 2212 530 
Q 2431 669 2431 922 
Q 2431 1156 2273 1281 
Q 2116 1406 1581 1522 
L 1381 1569 
Q 847 1681 609 1914 
Q 372 2147 372 2553 
Q 372 3047 722 3315 
Q 1072 3584 1716 3584 
Q 2034 3584 2315 3537 
Q 2597 3491 2834 3397 
z
" id="DejaVuSans-73" transform="scale(0.015625)"/>
       <path d="M 513 4856 
L 1013 4856 
Q 1481 4119 1714 3412 
Q 1947 2706 1947 2009 
Q 1947 1309 1714 600 
Q 1481 -109 1013 -844 
L 513 -844 
Q 928 -128 1133 580 
Q 1338 1288 1338 2009 
Q 1338 2731 1133 3434 
Q 928 4138 513 4856 
z
" id="DejaVuSans-29" transform="scale(0.015625)"/>
      </defs>
      <use xlink:href="#DejaVuSans-50"/>
      <use x="56.677734" xlink:href="#DejaVuSans-65"/>
      <use x="118.201172" xlink:href="#DejaVuSans-72"/>
      <use x="159.314453" xlink:href="#DejaVuSans-69"/>
      <use x="187.097656" xlink:href="#DejaVuSans-6f"/>
      <use x="248.279297" xlink:href="#DejaVuSans-64"/>
      <use x="311.755859" xlink:href="#DejaVuSans-20"/>
      <use x="343.542969" xlink:href="#DejaVuSans-54"/>
      <use x="404.626953" xlink:href="#DejaVuSans-20"/>
      <use x="436.414062" xlink:href="#DejaVuSans-28"/>
      <use x="475.427734" xlink:href="#DejaVuSans-73"/>
      <use x="527.527344" xlink:href="#DejaVuSans-29"/>
     </g>
    </g>
   </g>
   <g id="matplotlib.axis_2">
    <g id="ytick_1">
     <g id="line2d_57">
      <path clip-path="url(#pe931463e3d)" d="M 90 448.56 
L 648 448.56 
" style="fill:none;stroke:#b0b0b0;stroke-linecap:square;stroke-width:0.8;"/>
     </g>
     <g id="line2d_58">
      <defs>
       <path d="M 0 0 
L -3.5 0 
" id="mfd93511dbb" style="stroke:#000000;stroke-width:0.8;"/>
      </defs>
      <g>
       <use style="stroke:#000000;stroke-width:0.8;" x="90" xlink:href="#mfd93511dbb" y="448.56"/>
      </g>
     </g>
     <g id="text_6">
      <!-- 0.01 -->
      <g transform="translate(60.734375 452.359219)scale(0.1 -0.1)">
       <use xlink:href="#DejaVuSans-30"/>
       <use x="63.623047" xlink:href="#DejaVuSans-2e"/>
       <use x="95.410156" xlink:href="#DejaVuSans-30"/>
       <use x="159.033203" xlink:href="#DejaVuSans-31"/>
      </g>
     </g>
    </g>
    <g id="ytick_2">
     <g id="line2d_59">
      <path clip-path="url(#pe931463e3d)" d="M 90 319.2 
L 648 319.2 
" style="fill:none;stroke:#b0b0b0;stroke-linecap:square;stroke-width:0.8;"/>
     </g>
     <g id="line2d_60">
      <g>
       <use style="stroke:#000000;stroke-width:0.8;" x="90" xlink:href="#mfd93511dbb" y="319.2"/>
      </g>
     </g>
     <g id="text_7">
      <!-- 0.1 -->
      <g transform="translate(67.096875 322.999219)scale(0.1 -0.1)">
       <use xlink:href="#DejaVuSans-30"/>
       <use x="63.623047" xlink:href="#DejaVuSans-2e"/>
       <use x="95.410156" xlink:href="#DejaVuSans-31"/>
      </g>
     </g>
    </g>
    <g id="ytick_3">
     <g id="line2d_61">
      <path clip-path="url(#pe931463e3d)" d="M 90 189.84 
L 648 189.84 
" style="fill:none;stroke:#b0b0b0;stroke-linecap:square;stroke-width:0.8;"/>
     </g>
     <g id="line2d_62">
      <g>
       <use style="stroke:#000000;stroke-width:0.8;" x="90" xlink:href="#mfd93511dbb" y="189.84"/>
      </g>
     </g>
     <g id="text_8">
      <!-- 1 -->
      <g transform="translate(76.6375 193.639219)scale(0.1 -0.1)">
       <use xlink:href="#DejaVuSans-31"/>
      </g>
     </g>
    </g>
    <g id="ytick_4">
     <g id="line2d_63">
      <path clip-path="url(#pe931463e3d)" d="M 90 60.48 
L 648 60.48 
" style="fill:none;stroke:#b0b0b0;stroke-linecap:square;stroke-width:0.8;"/>
     </g>
     <g id="line2d_64">
      <g>
       <use style="stroke:#000000;stroke-width:0.8;" x="90" xlink:href="#mfd93511dbb" y="60.48"/>
      </g>
     </g>
     <g id="text_9">
      <!-- 10 -->
      <g transform="translate(70.275 64.279219)scale(0.1 -0.1)">
       <use xlink:href="#DejaVuSans-31"/>
       <use x="63.623047" xlink:href="#DejaVuSans-30"/>
      </g>
     </g>
    </g>
    <g id="ytick_5">
     <g id="line2d_65">
      <path clip-path="url(#pe931463e3d)" d="M 90 409.61876 
L 648 409.61876 
" style="fill:none;stroke:#b0b0b0;stroke-linecap:square;stroke-width:0.8;"/>
     </g>
     <g id="line2d_66">
      <defs>
       <path d="M 0 0 
L -2 0 
" id="mde030c248c" style="stroke:#000000;stroke-width:0.6;"/>
      </defs>
      <g>
       <use style="stroke:#000000;stroke-width:0.6;" x="90" xlink:href="#mde030c248c" y="409.61876"/>
      </g>
     </g>
    </g>
    <g id="ytick_6">
     <g id="line2d_67">
      <path clip-path="url(#pe931463e3d)" d="M 90 386.839594 
L 648 386.839594 
" style="fill:none;stroke:#b0b0b0;stroke-linecap:square;stroke-width:0.8;"/>
     </g>
     <g id="line2d_68">
      <g>
       <use style="stroke:#000000;stroke-width:0.6;" x="90" xlink:href="#mde030c248c" y="386.839594"/>
      </g>
     </g>
    </g>
    <g id="ytick_7">
     <g id="line2d_69">
      <path clip-path="url(#pe931463e3d)" d="M 90 370.67752 
L 648 370.67752 
" style="fill:none;stroke:#b0b0b0;stroke-linecap:square;stroke-width:0.8;"/>
     </g>
     <g id="line2d_70">
      <g>
       <use style="stroke:#000000;stroke-width:0.6;" x="90" xlink:href="#mde030c248c" y="370.67752"/>
      </g>
     </g>
    </g>
    <g id="ytick_8">
     <g id="line2d_71">
      <path clip-path="url(#pe931463e3d)" d="M 90 358.14124 
L 648 358.14124 
" style="fill:none;stroke:#b0b0b0;stroke-linecap:square;stroke-width:0.8;"/>
     </g>
     <g id="line2d_72">
      <g>
       <use style="stroke:#000000;stroke-width:0.6;" x="90" xlink:href="#mde030c248c" y="358.14124"/>
      </g>
     </g>
    </g>
    <g id="ytick_9">
     <g id="line2d_73">
      <path clip-path="url(#pe931463e3d)" d="M 90 347.898354 
L 648 347.898354 
" style="fill:none;stroke:#b0b0b0;stroke-linecap:square;stroke-width:0.8;"/>
     </g>
     <g id="line2d_74">
      <g>
       <use style="stroke:#000000;stroke-width:0.6;" x="90" xlink:href="#mde030c248c" y="347.898354"/>
      </g>
     </g>
    </g>
    <g id="ytick_10">
     <g id="line2d_75">
      <path clip-path="url(#pe931463e3d)" d="M 90 339.238118 
L 648 339.238118 
" style="fill:none;stroke:#b0b0b0;stroke-linecap:square;stroke-width:0.8;"/>
     </g>
     <g id="line2d_76">
      <g>
       <use style="stroke:#000000;stroke-width:0.6;" x="90" xlink:href="#mde030c248c" y="339.238118"/>
      </g>
     </g>
    </g>
    <g id="ytick_11">
     <g id="line2d_77">
      <path clip-path="url(#pe931463e3d)" d="M 90 331.736279 
L 648 331.736279 
" style="fill:none;stroke:#b0b0b0;stroke-linecap:square;stroke-width:0.8;"/>
     </g>
     <g id="line2d_78">
      <g>
       <use style="stroke:#000000;stroke-width:0.6;" x="90" xlink:href="#mde030c248c" y="331.736279"/>
      </g>
     </g>
    </g>
    <g id="ytick_12">
     <g id="line2d_79">
      <path clip-path="url(#pe931463e3d)" d="M 90 325.119189 
L 648 325.119189 
" style="fill:none;stroke:#b0b0b0;stroke-linecap:square;stroke-width:0.8;"/>
     </g>
     <g id="line2d_80">
      <g>
       <use style="stroke:#000000;stroke-width:0.6;" x="90" xlink:href="#mde030c248c" y="325.119189"/>
      </g>
     </g>
    </g>
    <g id="ytick_13">
     <g id="line2d_81">
      <path clip-path="url(#pe931463e3d)" d="M 90 280.25876 
L 648 280.25876 
" style="fill:none;stroke:#b0b0b0;stroke-linecap:square;stroke-width:0.8;"/>
     </g>
     <g id="line2d_82">
      <g>
       <use style="stroke:#000000;stroke-width:0.6;" x="90" xlink:href="#mde030c248c" y="280.25876"/>
      </g>
     </g>
    </g>
    <g id="ytick_14">
     <g id="line2d_83">
      <path clip-path="url(#pe931463e3d)" d="M 90 257.479594 
L 648 257.479594 
" style="fill:none;stroke:#b0b0b0;stroke-linecap:square;stroke-width:0.8;"/>
     </g>
     <g id="line2d_84">
      <g>
       <use style="stroke:#000000;stroke-width:0.6;" x="90" xlink:href="#mde030c248c" y="257.479594"/>
      </g>
     </g>
    </g>
    <g id="ytick_15">
     <g id="line2d_85">
      <path clip-path="url(#pe931463e3d)" d="M 90 241.31752 
L 648 241.31752 
" style="fill:none;stroke:#b0b0b0;stroke-linecap:square;stroke-width:0.8;"/>
     </g>
     <g id="line2d_86">
      <g>
       <use style="stroke:#000000;stroke-width:0.6;" x="90" xlink:href="#mde030c248c" y="241.31752"/>
      </g>
     </g>
    </g>
    <g id="ytick_16">
     <g id="line2d_87">
      <path clip-path="url(#pe931463e3d)" d="M 90 228.78124 
L 648 228.78124 
" style="fill:none;stroke:#b0b0b0;stroke-linecap:square;stroke-width:0.8;"/>
     </g>
     <g id="line2d_88">
      <g>
       <use style="stroke:#000000;stroke-width:0.6;" x="90" xlink:href="#mde030c248c" y="228.78124"/>
      </g>
     </g>
    </g>
    <g id="ytick_17">
     <g id="line2d_89">
      <path clip-path="url(#pe931463e3d)" d="M 90 218.538354 
L 648 218.538354 
" style="fill:none;stroke:#b0b0b0;stroke-linecap:square;stroke-width:0.8;"/>
     </g>
     <g id="line2d_90">
      <g>
       <use style="stroke:#000000;stroke-width:0.6;" x="90" xlink:href="#mde030c248c" y="218.538354"/>
      </g>
     </g>
    </g>
    <g id="ytick_18">
     <g id="line2d_91">
      <path clip-path="url(#pe931463e3d)" d="M 90 209.878118 
L 648 209.878118 
" style="fill:none;stroke:#b0b0b0;stroke-linecap:square;stroke-width:0.8;"/>
     </g>
     <g id="line2d_92">
      <g>
       <use style="stroke:#000000;stroke-width:0.6;" x="90" xlink:href="#mde030c248c" y="209.878118"/>
      </g>
     </g>
    </g>
    <g id="ytick_19">
     <g id="line2d_93">
      <path clip-path="url(#pe931463e3d)" d="M 90 202.376279 
L 648 202.376279 
" style="fill:none;stroke:#b0b0b0;stroke-linecap:square;stroke-width:0.8;"/>
     </g>
     <g id="line2d_94">
      <g>
       <use style="stroke:#000000;stroke-width:0.6;" x="90" xlink:href="#mde030c248c" y="202.376279"/>
      </g>
     </g>
    </g>
    <g id="ytick_20">
     <g id="line2d_95">
      <path clip-path="url(#pe931463e3d)" d="M 90 195.759189 
L 648 195.759189 
" style="fill:none;stroke:#b0b0b0;stroke-linecap:square;stroke-width:0.8;"/>
     </g>
     <g id="line2d_96">
      <g>
       <use style="stroke:#000000;stroke-width:0.6;" x="90" xlink:href="#mde030c248c" y="195.759189"/>
      </g>
     </g>
    </g>
    <g id="ytick_21">
     <g id="line2d_97">
      <path clip-path="url(#pe931463e3d)" d="M 90 150.89876 
L 648 150.89876 
" style="fill:none;stroke:#b0b0b0;stroke-linecap:square;stroke-width:0.8;"/>
     </g>
     <g id="line2d_98">
      <g>
       <use style="stroke:#000000;stroke-width:0.6;" x="90" xlink:href="#mde030c248c" y="150.89876"/>
      </g>
     </g>
    </g>
    <g id="ytick_22">
     <g id="line2d_99">
      <path clip-path="url(#pe931463e3d)" d="M 90 128.119594 
L 648 128.119594 
" style="fill:none;stroke:#b0b0b0;stroke-linecap:square;stroke-width:0.8;"/>
     </g>
     <g id="line2d_100">
      <g>
       <use style="stroke:#000000;stroke-width:0.6;" x="90" xlink:href="#mde030c248c" y="128.119594"/>
      </g>
     </g>
    </g>
    <g id="ytick_23">
     <g id="line2d_101">
      <path clip-path="url(#pe931463e3d)" d="M 90 111.95752 
L 648 111.95752 
" style="fill:none;stroke:#b0b0b0;stroke-linecap:square;stroke-width:0.8;"/>
     </g>
     <g id="line2d_102">
      <g>
       <use style="stroke:#000000;stroke-width:0.6;" x="90" xlink:href="#mde030c248c" y="111.95752"/>
      </g>
     </g>
    </g>
    <g id="ytick_24">
     <g id="line2d_103">
      <path clip-path="url(#pe931463e3d)" d="M 90 99.42124 
L 648 99.42124 
" style="fill:none;stroke:#b0b0b0;stroke-linecap:square;stroke-width:0.8;"/>
     </g>
     <g id="line2d_104">
      <g>
       <use style="stroke:#000000;stroke-width:0.6;" x="90" xlink:href="#mde030c248c" y="99.42124"/>
      </g>
     </g>
    </g>
    <g id="ytick_25">
     <g id="line2d_105">
      <path clip-path="url(#pe931463e3d)" d="M 90 89.178354 
L 648 89.178354 
" style="fill:none;stroke:#b0b0b0;stroke-linecap:square;stroke-width:0.8;"/>
     </g>
     <g id="line2d_106">
      <g>
       <use style="stroke:#000000;stroke-width:0.6;" x="90" xlink:href="#mde030c248c" y="89.178354"/>
      </g>
     </g>
    </g>
    <g id="ytick_26">
     <g id="line2d_107">
      <path clip-path="url(#pe931463e3d)" d="M 90 80.518118 
L 648 80.518118 
" style="fill:none;stroke:#b0b0b0;stroke-linecap:square;stroke-width:0.8;"/>
     </g>
     <g id="line2d_108">
      <g>
       <use style="stroke:#000000;stroke-width:0.6;" x="90" xlink:href="#mde030c248c" y="80.518118"/>
      </g>
     </g>
    </g>
    <g id="ytick_27">
     <g id="line2d_109">
      <path clip-path="url(#pe931463e3d)" d="M 90 73.016279 
L 648 73.016279 
" style="fill:none;stroke:#b0b0b0;stroke-linecap:square;stroke-width:0.8;"/>
     </g>
     <g id="line2d_110">
      <g>
       <use style="stroke:#000000;stroke-width:0.6;" x="90" xlink:href="#mde030c248c" y="73.016279"/>
      </g>
     </g>
    </g>
    <g id="ytick_28">
     <g id="line2d_111">
      <path clip-path="url(#pe931463e3d)" d="M 90 66.399189 
L 648 66.399189 
" style="fill:none;stroke:#b0b0b0;stroke-linecap:square;stroke-width:0.8;"/>
     </g>
     <g id="line2d_112">
      <g>
       <use style="stroke:#000000;stroke-width:0.6;" x="90" xlink:href="#mde030c248c" y="66.399189"/>
      </g>
     </g>
    </g>
    <g id="text_10">
     <!-- Spectral Acceleration $S_a$ (g) -->
     <g transform="translate(53.794375 351.26)rotate(-90)scale(0.14 -0.14)">
      <defs>
       <path d="M 3425 4513 
L 3425 3897 
Q 3066 4069 2747 4153 
Q 2428 4238 2131 4238 
Q 1616 4238 1336 4038 
Q 1056 3838 1056 3469 
Q 1056 3159 1242 3001 
Q 1428 2844 1947 2747 
L 2328 2669 
Q 3034 2534 3370 2195 
Q 3706 1856 3706 1288 
Q 3706 609 3251 259 
Q 2797 -91 1919 -91 
Q 1588 -91 1214 -16 
Q 841 59 441 206 
L 441 856 
Q 825 641 1194 531 
Q 1563 422 1919 422 
Q 2459 422 2753 634 
Q 3047 847 3047 1241 
Q 3047 1584 2836 1778 
Q 2625 1972 2144 2069 
L 1759 2144 
Q 1053 2284 737 2584 
Q 422 2884 422 3419 
Q 422 4038 858 4394 
Q 1294 4750 2059 4750 
Q 2388 4750 2728 4690 
Q 3069 4631 3425 4513 
z
" id="DejaVuSans-53" transform="scale(0.015625)"/>
       <path d="M 1159 525 
L 1159 -1331 
L 581 -1331 
L 581 3500 
L 1159 3500 
L 1159 2969 
Q 1341 3281 1617 3432 
Q 1894 3584 2278 3584 
Q 2916 3584 3314 3078 
Q 3713 2572 3713 1747 
Q 3713 922 3314 415 
Q 2916 -91 2278 -91 
Q 1894 -91 1617 61 
Q 1341 213 1159 525 
z
M 3116 1747 
Q 3116 2381 2855 2742 
Q 2594 3103 2138 3103 
Q 1681 3103 1420 2742 
Q 1159 2381 1159 1747 
Q 1159 1113 1420 752 
Q 1681 391 2138 391 
Q 2594 391 2855 752 
Q 3116 1113 3116 1747 
z
" id="DejaVuSans-70" transform="scale(0.015625)"/>
       <path d="M 3122 3366 
L 3122 2828 
Q 2878 2963 2633 3030 
Q 2388 3097 2138 3097 
Q 1578 3097 1268 2742 
Q 959 2388 959 1747 
Q 959 1106 1268 751 
Q 1578 397 2138 397 
Q 2388 397 2633 464 
Q 2878 531 3122 666 
L 3122 134 
Q 2881 22 2623 -34 
Q 2366 -91 2075 -91 
Q 1284 -91 818 406 
Q 353 903 353 1747 
Q 353 2603 823 3093 
Q 1294 3584 2113 3584 
Q 2378 3584 2631 3529 
Q 2884 3475 3122 3366 
z
" id="DejaVuSans-63" transform="scale(0.015625)"/>
       <path d="M 1172 4494 
L 1172 3500 
L 2356 3500 
L 2356 3053 
L 1172 3053 
L 1172 1153 
Q 1172 725 1289 603 
Q 1406 481 1766 481 
L 2356 481 
L 2356 0 
L 1766 0 
Q 1100 0 847 248 
Q 594 497 594 1153 
L 594 3053 
L 172 3053 
L 172 3500 
L 594 3500 
L 594 4494 
L 1172 4494 
z
" id="DejaVuSans-74" transform="scale(0.015625)"/>
       <path d="M 2194 1759 
Q 1497 1759 1228 1600 
Q 959 1441 959 1056 
Q 959 750 1161 570 
Q 1363 391 1709 391 
Q 2188 391 2477 730 
Q 2766 1069 2766 1631 
L 2766 1759 
L 2194 1759 
z
M 3341 1997 
L 3341 0 
L 2766 0 
L 2766 531 
Q 2569 213 2275 61 
Q 1981 -91 1556 -91 
Q 1019 -91 701 211 
Q 384 513 384 1019 
Q 384 1609 779 1909 
Q 1175 2209 1959 2209 
L 2766 2209 
L 2766 2266 
Q 2766 2663 2505 2880 
Q 2244 3097 1772 3097 
Q 1472 3097 1187 3025 
Q 903 2953 641 2809 
L 641 3341 
Q 956 3463 1253 3523 
Q 1550 3584 1831 3584 
Q 2591 3584 2966 3190 
Q 3341 2797 3341 1997 
z
" id="DejaVuSans-61" transform="scale(0.015625)"/>
       <path d="M 603 4863 
L 1178 4863 
L 1178 0 
L 603 0 
L 603 4863 
z
" id="DejaVuSans-6c" transform="scale(0.015625)"/>
       <path d="M 2188 4044 
L 1331 1722 
L 3047 1722 
L 2188 4044 
z
M 1831 4666 
L 2547 4666 
L 4325 0 
L 3669 0 
L 3244 1197 
L 1141 1197 
L 716 0 
L 50 0 
L 1831 4666 
z
" id="DejaVuSans-41" transform="scale(0.015625)"/>
       <path d="M 3513 2113 
L 3513 0 
L 2938 0 
L 2938 2094 
Q 2938 2591 2744 2837 
Q 2550 3084 2163 3084 
Q 1697 3084 1428 2787 
Q 1159 2491 1159 1978 
L 1159 0 
L 581 0 
L 581 3500 
L 1159 3500 
L 1159 2956 
Q 1366 3272 1645 3428 
Q 1925 3584 2291 3584 
Q 2894 3584 3203 3211 
Q 3513 2838 3513 2113 
z
" id="DejaVuSans-6e" transform="scale(0.015625)"/>
       <path d="M 3859 4513 
L 3738 3897 
Q 3422 4066 3111 4152 
Q 2800 4238 2509 4238 
Q 1944 4238 1609 3991 
Q 1275 3744 1275 3334 
Q 1275 3109 1398 2989 
Q 1522 2869 2034 2731 
L 2413 2638 
Q 3053 2472 3303 2217 
Q 3553 1963 3553 1503 
Q 3553 797 2998 353 
Q 2444 -91 1538 -91 
Q 1166 -91 791 -17 
Q 416 56 38 206 
L 166 856 
Q 513 641 861 531 
Q 1209 422 1556 422 
Q 2147 422 2503 684 
Q 2859 947 2859 1369 
Q 2859 1650 2717 1795 
Q 2575 1941 2106 2059 
L 1728 2156 
Q 1081 2325 845 2545 
Q 609 2766 609 3163 
Q 609 3859 1145 4304 
Q 1681 4750 2541 4750 
Q 2875 4750 3203 4690 
Q 3531 4631 3859 4513 
z
" id="DejaVuSans-Oblique-53" transform="scale(0.015625)"/>
       <path d="M 3438 1997 
L 3047 0 
L 2472 0 
L 2578 531 
Q 2325 219 2001 64 
Q 1678 -91 1281 -91 
Q 834 -91 548 182 
Q 263 456 263 884 
Q 263 1497 752 1853 
Q 1241 2209 2100 2209 
L 2900 2209 
L 2931 2363 
Q 2938 2388 2941 2417 
Q 2944 2447 2944 2509 
Q 2944 2788 2717 2942 
Q 2491 3097 2081 3097 
Q 1800 3097 1504 3025 
Q 1209 2953 897 2809 
L 997 3341 
Q 1322 3463 1633 3523 
Q 1944 3584 2234 3584 
Q 2853 3584 3176 3315 
Q 3500 3047 3500 2534 
Q 3500 2431 3484 2292 
Q 3469 2153 3438 1997 
z
M 2816 1759 
L 2241 1759 
Q 1534 1759 1195 1570 
Q 856 1381 856 984 
Q 856 709 1029 553 
Q 1203 397 1509 397 
Q 1978 397 2328 733 
Q 2678 1069 2791 1631 
L 2816 1759 
z
" id="DejaVuSans-Oblique-61" transform="scale(0.015625)"/>
       <path d="M 2906 1791 
Q 2906 2416 2648 2759 
Q 2391 3103 1925 3103 
Q 1463 3103 1205 2759 
Q 947 2416 947 1791 
Q 947 1169 1205 825 
Q 1463 481 1925 481 
Q 2391 481 2648 825 
Q 2906 1169 2906 1791 
z
M 3481 434 
Q 3481 -459 3084 -895 
Q 2688 -1331 1869 -1331 
Q 1566 -1331 1297 -1286 
Q 1028 -1241 775 -1147 
L 775 -588 
Q 1028 -725 1275 -790 
Q 1522 -856 1778 -856 
Q 2344 -856 2625 -561 
Q 2906 -266 2906 331 
L 2906 616 
Q 2728 306 2450 153 
Q 2172 0 1784 0 
Q 1141 0 747 490 
Q 353 981 353 1791 
Q 353 2603 747 3093 
Q 1141 3584 1784 3584 
Q 2172 3584 2450 3431 
Q 2728 3278 2906 2969 
L 2906 3500 
L 3481 3500 
L 3481 434 
z
" id="DejaVuSans-67" transform="scale(0.015625)"/>
      </defs>
      <use transform="translate(0 0.015625)" xlink:href="#DejaVuSans-53"/>
      <use transform="translate(63.476562 0.015625)" xlink:href="#DejaVuSans-70"/>
      <use transform="translate(126.953125 0.015625)" xlink:href="#DejaVuSans-65"/>
      <use transform="translate(188.476562 0.015625)" xlink:href="#DejaVuSans-63"/>
      <use transform="translate(243.457031 0.015625)" xlink:href="#DejaVuSans-74"/>
      <use transform="translate(282.666016 0.015625)" xlink:href="#DejaVuSans-72"/>
      <use transform="translate(323.779297 0.015625)" xlink:href="#DejaVuSans-61"/>
      <use transform="translate(385.058594 0.015625)" xlink:href="#DejaVuSans-6c"/>
      <use transform="translate(412.841797 0.015625)" xlink:href="#DejaVuSans-20"/>
      <use transform="translate(444.628906 0.015625)" xlink:href="#DejaVuSans-41"/>
      <use transform="translate(513.037109 0.015625)" xlink:href="#DejaVuSans-63"/>
      <use transform="translate(568.017578 0.015625)" xlink:href="#DejaVuSans-63"/>
      <use transform="translate(622.998047 0.015625)" xlink:href="#DejaVuSans-65"/>
      <use transform="translate(684.521484 0.015625)" xlink:href="#DejaVuSans-6c"/>
      <use transform="translate(712.304688 0.015625)" xlink:href="#DejaVuSans-65"/>
      <use transform="translate(773.828125 0.015625)" xlink:href="#DejaVuSans-72"/>
      <use transform="translate(814.941406 0.015625)" xlink:href="#DejaVuSans-61"/>
      <use transform="translate(876.220703 0.015625)" xlink:href="#DejaVuSans-74"/>
      <use transform="translate(915.429688 0.015625)" xlink:href="#DejaVuSans-69"/>
      <use transform="translate(943.212891 0.015625)" xlink:href="#DejaVuSans-6f"/>
      <use transform="translate(1004.394531 0.015625)" xlink:href="#DejaVuSans-6e"/>
      <use transform="translate(1067.773438 0.015625)" xlink:href="#DejaVuSans-20"/>
      <use transform="translate(1099.560547 0.015625)" xlink:href="#DejaVuSans-Oblique-53"/>
      <use transform="translate(1163.037109 -16.390625)scale(0.7)" xlink:href="#DejaVuSans-Oblique-61"/>
      <use transform="translate(1208.666992 0.015625)" xlink:href="#DejaVuSans-20"/>
      <use transform="translate(1240.454102 0.015625)" xlink:href="#DejaVuSans-28"/>
      <use transform="translate(1279.467773 0.015625)" xlink:href="#DejaVuSans-67"/>
      <use transform="translate(1342.944336 0.015625)" xlink:href="#DejaVuSans-29"/>
     </g>
    </g>
   </g>
   <g id="line2d_113">
    <path clip-path="url(#pe931463e3d)" d="M -1 225.270898 
L 176.006028 225.253846 
L 231.997607 211.705281 
L 264.750581 200.797532 
L 287.989186 191.667164 
L 418.275675 191.667164 
L 438.761395 197.515463 
L 446.460434 199.461609 
L 451.48998 198.805374 
L 456.484519 198.877912 
L 461.513867 198.805374 
L 466.477948 200.274225 
L 471.514369 206.152089 
L 476.525512 213.183796 
L 481.561514 217.665019 
L 486.600302 220.792747 
L 491.623538 222.42443 
L 496.616159 225.720076 
L 501.664882 231.250472 
L 506.649258 239.738772 
L 517.991579 248.85147 
L 536.016842 261.255405 
L 550.744553 271.366257 
L 573.983158 287.090447 
L 592.008421 299.10573 
L 624.761395 321.027164 
L 648 337.189239 
" style="fill:none;stroke:#ff0000;stroke-linecap:square;stroke-width:3;"/>
   </g>
   <g id="line2d_114">
    <path clip-path="url(#pe931463e3d)" d="M 90 239.693532 
L 252.761395 227.259794 
L 276 214.788023 
L 308.752974 204.500527 
L 331.991579 194.853021 
L 364.744553 191.070057 
L 406.008421 186.277807 
L 438.761395 192.300934 
L 462 197.305672 
L 517.991579 242.366198 
L 550.744553 272.053636 
L 573.983158 284.967805 
L 592.008421 291.641421 
L 624.761395 327.941071 
L 648 367.651038 
" style="fill:none;stroke:#000000;stroke-linecap:square;stroke-width:3;"/>
   </g>
   <g id="line2d_115">
    <path clip-path="url(#pe931463e3d)" d="M 90 238.21002 
L 252.761395 219.953969 
L 276 196.686979 
L 308.752974 179.705544 
L 331.991579 184.917833 
L 364.744553 185.854404 
L 406.008421 177.711188 
L 438.761395 189.828534 
L 462 196.079731 
L 517.991579 227.348198 
L 550.744553 271.396702 
L 573.983158 291.083567 
L 592.008421 287.384259 
L 624.761395 338.615854 
L 648 399.624925 
" style="fill:none;stroke:#1f77b4;stroke-dasharray:3.7,1.6;stroke-dashoffset:0;"/>
   </g>
   <g id="line2d_116">
    <path clip-path="url(#pe931463e3d)" d="M 90 245.296081 
L 252.761395 236.339657 
L 276 220.412747 
L 308.752974 207.864082 
L 331.991579 193.00822 
L 364.744553 187.529549 
L 406.008421 182.371563 
L 438.761395 192.627513 
L 462 200.15743 
L 517.991579 243.877235 
L 550.744553 277.34835 
L 573.983158 283.630985 
L 592.008421 299.027797 
L 624.761395 338.883894 
L 648 365.060441 
" style="fill:none;stroke:#ff7f0e;stroke-dasharray:3.7,1.6;stroke-dashoffset:0;"/>
   </g>
   <g id="line2d_117">
    <path clip-path="url(#pe931463e3d)" d="M 90 240.683795 
L 252.761395 236.833327 
L 276 227.367821 
L 308.752974 217.031361 
L 331.991579 206.073654 
L 364.744553 197.726644 
L 406.008421 187.132683 
L 438.761395 194.408861 
L 462 198.64088 
L 517.991579 245.420515 
L 550.744553 272.051756 
L 573.983158 285.230737 
L 592.008421 297.389475 
L 624.761395 325.316436 
L 648 355.96892 
" style="fill:none;stroke:#2ca02c;stroke-dasharray:3.7,1.6;stroke-dashoffset:0;"/>
   </g>
   <g id="line2d_118">
    <path clip-path="url(#pe931463e3d)" d="M 90 244.541027 
L 252.761395 236.085852 
L 276 221.922667 
L 308.752974 193.871219 
L 331.991579 198.184965 
L 364.744553 193.99707 
L 406.008421 193.759759 
L 438.761395 196.653132 
L 462 195.961499 
L 517.991579 251.963965 
L 550.744553 275.522998 
L 573.983158 287.90438 
L 592.008421 292.753946 
L 624.761395 331.439532 
L 648 351.964384 
" style="fill:none;stroke:#d62728;stroke-dasharray:3.7,1.6;stroke-dashoffset:0;"/>
   </g>
   <g id="line2d_119">
    <path clip-path="url(#pe931463e3d)" d="M 90 232.23506 
L 252.761395 214.322364 
L 276 209.150327 
L 308.752974 203.839244 
L 331.991579 188.718894 
L 364.744553 184.858437 
L 406.008421 192.669311 
L 438.761395 194.663309 
L 462 201.920692 
L 517.991579 242.200456 
L 550.744553 269.014688 
L 573.983158 287.553129 
L 592.008421 296.42294 
L 624.761395 319.698031 
L 648 364.450459 
" style="fill:none;stroke:#9467bd;stroke-dasharray:3.7,1.6;stroke-dashoffset:0;"/>
   </g>
   <g id="line2d_120">
    <path clip-path="url(#pe931463e3d)" d="M 90 239.172635 
L 252.761395 211.386485 
L 276 199.346938 
L 308.752974 210.017378 
L 331.991579 189.000237 
L 364.744553 194.023764 
L 406.008421 189.606054 
L 438.761395 196.063784 
L 462 202.803003 
L 517.991579 242.162175 
L 550.744553 265.511144 
L 573.983158 285.822155 
L 592.008421 285.001596 
L 624.761395 304.644213 
L 648 358.453329 
" style="fill:none;stroke:#8c564b;stroke-dasharray:3.7,1.6;stroke-dashoffset:0;"/>
   </g>
   <g id="line2d_121">
    <path clip-path="url(#pe931463e3d)" d="M 90 237.716103 
L 252.761395 235.896905 
L 276 228.628683 
L 308.752974 219.174864 
L 331.991579 204.067341 
L 364.744553 193.500528 
L 406.008421 180.694091 
L 438.761395 181.861401 
L 462 185.576465 
L 517.991579 243.59084 
L 550.744553 273.529812 
L 573.983158 273.549679 
L 592.008421 283.509932 
L 624.761395 336.989538 
L 648 378.034808 
" style="fill:none;stroke:#e377c2;stroke-dasharray:3.7,1.6;stroke-dashoffset:0;"/>
   </g>
   <g id="patch_3">
    <path d="M 90 448.56 
L 90 60.48 
" style="fill:none;stroke:#000000;stroke-linecap:square;stroke-linejoin:miter;stroke-width:0.8;"/>
   </g>
   <g id="patch_4">
    <path d="M 648 448.56 
L 648 60.48 
" style="fill:none;stroke:#000000;stroke-linecap:square;stroke-linejoin:miter;stroke-width:0.8;"/>
   </g>
   <g id="patch_5">
    <path d="M 90 448.56 
L 648 448.56 
" style="fill:none;stroke:#000000;stroke-linecap:square;stroke-linejoin:miter;stroke-width:0.8;"/>
   </g>
   <g id="patch_6">
    <path d="M 90 60.48 
L 648 60.48 
" style="fill:none;stroke:#000000;stroke-linecap:square;stroke-linejoin:miter;stroke-width:0.8;"/>
   </g>
   <g id="text_11">
    <!-- ASC Maximum-Direction Response Spectra ($\zeta$ = 5.0%) -->
    <g transform="translate(124.74 54.48)scale(0.18 -0.18)">
     <defs>
      <path d="M 4122 4306 
L 4122 3641 
Q 3803 3938 3442 4084 
Q 3081 4231 2675 4231 
Q 1875 4231 1450 3742 
Q 1025 3253 1025 2328 
Q 1025 1406 1450 917 
Q 1875 428 2675 428 
Q 3081 428 3442 575 
Q 3803 722 4122 1019 
L 4122 359 
Q 3791 134 3420 21 
Q 3050 -91 2638 -91 
Q 1578 -91 968 557 
Q 359 1206 359 2328 
Q 359 3453 968 4101 
Q 1578 4750 2638 4750 
Q 3056 4750 3426 4639 
Q 3797 4528 4122 4306 
z
" id="DejaVuSans-43" transform="scale(0.015625)"/>
      <path d="M 628 4666 
L 1569 4666 
L 2759 1491 
L 3956 4666 
L 4897 4666 
L 4897 0 
L 4281 0 
L 4281 4097 
L 3078 897 
L 2444 897 
L 1241 4097 
L 1241 0 
L 628 0 
L 628 4666 
z
" id="DejaVuSans-4d" transform="scale(0.015625)"/>
      <path d="M 3513 3500 
L 2247 1797 
L 3578 0 
L 2900 0 
L 1881 1375 
L 863 0 
L 184 0 
L 1544 1831 
L 300 3500 
L 978 3500 
L 1906 2253 
L 2834 3500 
L 3513 3500 
z
" id="DejaVuSans-78" transform="scale(0.015625)"/>
      <path d="M 3328 2828 
Q 3544 3216 3844 3400 
Q 4144 3584 4550 3584 
Q 5097 3584 5394 3201 
Q 5691 2819 5691 2113 
L 5691 0 
L 5113 0 
L 5113 2094 
Q 5113 2597 4934 2840 
Q 4756 3084 4391 3084 
Q 3944 3084 3684 2787 
Q 3425 2491 3425 1978 
L 3425 0 
L 2847 0 
L 2847 2094 
Q 2847 2600 2669 2842 
Q 2491 3084 2119 3084 
Q 1678 3084 1418 2786 
Q 1159 2488 1159 1978 
L 1159 0 
L 581 0 
L 581 3500 
L 1159 3500 
L 1159 2956 
Q 1356 3278 1631 3431 
Q 1906 3584 2284 3584 
Q 2666 3584 2933 3390 
Q 3200 3197 3328 2828 
z
" id="DejaVuSans-6d" transform="scale(0.015625)"/>
      <path d="M 544 1381 
L 544 3500 
L 1119 3500 
L 1119 1403 
Q 1119 906 1312 657 
Q 1506 409 1894 409 
Q 2359 409 2629 706 
Q 2900 1003 2900 1516 
L 2900 3500 
L 3475 3500 
L 3475 0 
L 2900 0 
L 2900 538 
Q 2691 219 2414 64 
Q 2138 -91 1772 -91 
Q 1169 -91 856 284 
Q 544 659 544 1381 
z
M 1991 3584 
L 1991 3584 
z
" id="DejaVuSans-75" transform="scale(0.015625)"/>
      <path d="M 313 2009 
L 1997 2009 
L 1997 1497 
L 313 1497 
L 313 2009 
z
" id="DejaVuSans-2d" transform="scale(0.015625)"/>
      <path d="M 1259 4147 
L 1259 519 
L 2022 519 
Q 2988 519 3436 956 
Q 3884 1394 3884 2338 
Q 3884 3275 3436 3711 
Q 2988 4147 2022 4147 
L 1259 4147 
z
M 628 4666 
L 1925 4666 
Q 3281 4666 3915 4102 
Q 4550 3538 4550 2338 
Q 4550 1131 3912 565 
Q 3275 0 1925 0 
L 628 0 
L 628 4666 
z
" id="DejaVuSans-44" transform="scale(0.015625)"/>
      <path d="M 2841 2188 
Q 3044 2119 3236 1894 
Q 3428 1669 3622 1275 
L 4263 0 
L 3584 0 
L 2988 1197 
Q 2756 1666 2539 1819 
Q 2322 1972 1947 1972 
L 1259 1972 
L 1259 0 
L 628 0 
L 628 4666 
L 2053 4666 
Q 2853 4666 3247 4331 
Q 3641 3997 3641 3322 
Q 3641 2881 3436 2590 
Q 3231 2300 2841 2188 
z
M 1259 4147 
L 1259 2491 
L 2053 2491 
Q 2509 2491 2742 2702 
Q 2975 2913 2975 3322 
Q 2975 3731 2742 3939 
Q 2509 4147 2053 4147 
L 1259 4147 
z
" id="DejaVuSans-52" transform="scale(0.015625)"/>
      <path d="M 1966 397 
Q 2378 394 2578 159 
Q 2794 -88 2722 -463 
Q 2650 -822 2372 -1072 
Q 2069 -1344 1559 -1344 
Q 1606 -1109 1650 -872 
Q 1863 -888 2022 -750 
Q 2144 -641 2166 -525 
Q 2197 -359 2125 -222 
Q 2050 -91 1872 -91 
Q -22 -91 316 1669 
Q 616 3206 2609 4284 
L 947 4284 
L 1059 4863 
L 3778 4863 
L 3666 4284 
Q 1181 3147 894 1669 
Q 647 397 1966 397 
z
" id="DejaVuSans-Oblique-3b6" transform="scale(0.015625)"/>
      <path d="M 678 2906 
L 4684 2906 
L 4684 2381 
L 678 2381 
L 678 2906 
z
M 678 1631 
L 4684 1631 
L 4684 1100 
L 678 1100 
L 678 1631 
z
" id="DejaVuSans-3d" transform="scale(0.015625)"/>
      <path d="M 691 4666 
L 3169 4666 
L 3169 4134 
L 1269 4134 
L 1269 2991 
Q 1406 3038 1543 3061 
Q 1681 3084 1819 3084 
Q 2600 3084 3056 2656 
Q 3513 2228 3513 1497 
Q 3513 744 3044 326 
Q 2575 -91 1722 -91 
Q 1428 -91 1123 -41 
Q 819 9 494 109 
L 494 744 
Q 775 591 1075 516 
Q 1375 441 1709 441 
Q 2250 441 2565 725 
Q 2881 1009 2881 1497 
Q 2881 1984 2565 2268 
Q 2250 2553 1709 2553 
Q 1456 2553 1204 2497 
Q 953 2441 691 2322 
L 691 4666 
z
" id="DejaVuSans-35" transform="scale(0.015625)"/>
      <path d="M 4653 2053 
Q 4381 2053 4226 1822 
Q 4072 1591 4072 1178 
Q 4072 772 4226 539 
Q 4381 306 4653 306 
Q 4919 306 5073 539 
Q 5228 772 5228 1178 
Q 5228 1588 5073 1820 
Q 4919 2053 4653 2053 
z
M 4653 2450 
Q 5147 2450 5437 2106 
Q 5728 1763 5728 1178 
Q 5728 594 5436 251 
Q 5144 -91 4653 -91 
Q 4153 -91 3862 251 
Q 3572 594 3572 1178 
Q 3572 1766 3864 2108 
Q 4156 2450 4653 2450 
z
M 1428 4353 
Q 1159 4353 1004 4120 
Q 850 3888 850 3481 
Q 850 3069 1003 2837 
Q 1156 2606 1428 2606 
Q 1700 2606 1854 2837 
Q 2009 3069 2009 3481 
Q 2009 3884 1853 4118 
Q 1697 4353 1428 4353 
z
M 4250 4750 
L 4750 4750 
L 1831 -91 
L 1331 -91 
L 4250 4750 
z
M 1428 4750 
Q 1922 4750 2215 4408 
Q 2509 4066 2509 3481 
Q 2509 2891 2217 2550 
Q 1925 2209 1428 2209 
Q 931 2209 642 2551 
Q 353 2894 353 3481 
Q 353 4063 643 4406 
Q 934 4750 1428 4750 
z
" id="DejaVuSans-25" transform="scale(0.015625)"/>
     </defs>
     <use transform="translate(0 0.015625)" xlink:href="#DejaVuSans-41"/>
     <use transform="translate(68.408203 0.015625)" xlink:href="#DejaVuSans-53"/>
     <use transform="translate(131.884766 0.015625)" xlink:href="#DejaVuSans-43"/>
     <use transform="translate(201.708984 0.015625)" xlink:href="#DejaVuSans-20"/>
     <use transform="translate(233.496094 0.015625)" xlink:href="#DejaVuSans-4d"/>
     <use transform="translate(319.775391 0.015625)" xlink:href="#DejaVuSans-61"/>
     <use transform="translate(381.054688 0.015625)" xlink:href="#DejaVuSans-78"/>
     <use transform="translate(440.234375 0.015625)" xlink:href="#DejaVuSans-69"/>
     <use transform="translate(468.017578 0.015625)" xlink:href="#DejaVuSans-6d"/>
     <use transform="translate(565.429688 0.015625)" xlink:href="#DejaVuSans-75"/>
     <use transform="translate(628.808594 0.015625)" xlink:href="#DejaVuSans-6d"/>
     <use transform="translate(724.470703 0.015625)" xlink:href="#DejaVuSans-2d"/>
     <use transform="translate(760.554688 0.015625)" xlink:href="#DejaVuSans-44"/>
     <use transform="translate(837.556641 0.015625)" xlink:href="#DejaVuSans-69"/>
     <use transform="translate(865.339844 0.015625)" xlink:href="#DejaVuSans-72"/>
     <use transform="translate(906.453125 0.015625)" xlink:href="#DejaVuSans-65"/>
     <use transform="translate(967.976562 0.015625)" xlink:href="#DejaVuSans-63"/>
     <use transform="translate(1022.957031 0.015625)" xlink:href="#DejaVuSans-74"/>
     <use transform="translate(1062.166016 0.015625)" xlink:href="#DejaVuSans-69"/>
     <use transform="translate(1089.949219 0.015625)" xlink:href="#DejaVuSans-6f"/>
     <use transform="translate(1151.130859 0.015625)" xlink:href="#DejaVuSans-6e"/>
     <use transform="translate(1214.509766 0.015625)" xlink:href="#DejaVuSans-20"/>
     <use transform="translate(1246.296875 0.015625)" xlink:href="#DejaVuSans-52"/>
     <use transform="translate(1315.779297 0.015625)" xlink:href="#DejaVuSans-65"/>
     <use transform="translate(1377.302734 0.015625)" xlink:href="#DejaVuSans-73"/>
     <use transform="translate(1429.402344 0.015625)" xlink:href="#DejaVuSans-70"/>
     <use transform="translate(1492.878906 0.015625)" xlink:href="#DejaVuSans-6f"/>
     <use transform="translate(1554.060547 0.015625)" xlink:href="#DejaVuSans-6e"/>
     <use transform="translate(1617.439453 0.015625)" xlink:href="#DejaVuSans-73"/>
     <use transform="translate(1669.539062 0.015625)" xlink:href="#DejaVuSans-65"/>
     <use transform="translate(1731.0625 0.015625)" xlink:href="#DejaVuSans-20"/>
     <use transform="translate(1762.849609 0.015625)" xlink:href="#DejaVuSans-53"/>
     <use transform="translate(1826.326172 0.015625)" xlink:href="#DejaVuSans-70"/>
     <use transform="translate(1889.802734 0.015625)" xlink:href="#DejaVuSans-65"/>
     <use transform="translate(1951.326172 0.015625)" xlink:href="#DejaVuSans-63"/>
     <use transform="translate(2006.306641 0.015625)" xlink:href="#DejaVuSans-74"/>
     <use transform="translate(2045.515625 0.015625)" xlink:href="#DejaVuSans-72"/>
     <use transform="translate(2086.628906 0.015625)" xlink:href="#DejaVuSans-61"/>
     <use transform="translate(2147.908203 0.015625)" xlink:href="#DejaVuSans-20"/>
     <use transform="translate(2179.695312 0.015625)" xlink:href="#DejaVuSans-28"/>
     <use transform="translate(2218.708984 0.015625)" xlink:href="#DejaVuSans-Oblique-3b6"/>
     <use transform="translate(2273.103516 0.015625)" xlink:href="#DejaVuSans-20"/>
     <use transform="translate(2304.890625 0.015625)" xlink:href="#DejaVuSans-3d"/>
     <use transform="translate(2388.679688 0.015625)" xlink:href="#DejaVuSans-20"/>
     <use transform="translate(2420.466797 0.015625)" xlink:href="#DejaVuSans-35"/>
     <use transform="translate(2484.089844 0.015625)" xlink:href="#DejaVuSans-2e"/>
     <use transform="translate(2515.876953 0.015625)" xlink:href="#DejaVuSans-30"/>
     <use transform="translate(2579.5 0.015625)" xlink:href="#DejaVuSans-25"/>
     <use transform="translate(2674.519531 0.015625)" xlink:href="#DejaVuSans-29"/>
    </g>
   </g>
   <g id="legend_1">
    <g id="patch_7">
     <path d="M 97 443.56 
L 319.779688 443.56 
Q 321.779688 443.56 321.779688 441.56 
L 321.779688 310.456875 
Q 321.779688 308.456875 319.779688 308.456875 
L 97 308.456875 
Q 95 308.456875 95 310.456875 
L 95 441.56 
Q 95 443.56 97 443.56 
z
" style="fill:#ffffff;opacity:0.8;stroke:#cccccc;stroke-linejoin:miter;"/>
    </g>
    <g id="line2d_122">
     <path d="M 99 316.555313 
L 119 316.555313 
" style="fill:none;stroke:#ff0000;stroke-linecap:square;stroke-width:3;"/>
    </g>
    <g id="line2d_123"/>
    <g id="text_12">
     <!-- 110% ASC Target Spectra -->
     <g transform="translate(127 320.055313)scale(0.1 -0.1)">
      <use xlink:href="#DejaVuSans-31"/>
      <use x="63.623047" xlink:href="#DejaVuSans-31"/>
      <use x="127.246094" xlink:href="#DejaVuSans-30"/>
      <use x="190.869141" xlink:href="#DejaVuSans-25"/>
      <use x="285.888672" xlink:href="#DejaVuSans-20"/>
      <use x="317.675781" xlink:href="#DejaVuSans-41"/>
      <use x="386.083984" xlink:href="#DejaVuSans-53"/>
      <use x="449.560547" xlink:href="#DejaVuSans-43"/>
      <use x="519.384766" xlink:href="#DejaVuSans-20"/>
      <use x="551.171875" xlink:href="#DejaVuSans-54"/>
      <use x="595.755859" xlink:href="#DejaVuSans-61"/>
      <use x="657.035156" xlink:href="#DejaVuSans-72"/>
      <use x="696.398438" xlink:href="#DejaVuSans-67"/>
      <use x="759.875" xlink:href="#DejaVuSans-65"/>
      <use x="821.398438" xlink:href="#DejaVuSans-74"/>
      <use x="860.607422" xlink:href="#DejaVuSans-20"/>
      <use x="892.394531" xlink:href="#DejaVuSans-53"/>
      <use x="955.871094" xlink:href="#DejaVuSans-70"/>
      <use x="1019.347656" xlink:href="#DejaVuSans-65"/>
      <use x="1080.871094" xlink:href="#DejaVuSans-63"/>
      <use x="1135.851562" xlink:href="#DejaVuSans-74"/>
      <use x="1175.060547" xlink:href="#DejaVuSans-72"/>
      <use x="1216.173828" xlink:href="#DejaVuSans-61"/>
     </g>
    </g>
    <g id="line2d_124">
     <path d="M 99 331.233438 
L 119 331.233438 
" style="fill:none;stroke:#000000;stroke-linecap:square;stroke-width:3;"/>
    </g>
    <g id="line2d_125"/>
    <g id="text_13">
     <!-- ASC Suite Average -->
     <g transform="translate(127 334.733438)scale(0.1 -0.1)">
      <defs>
       <path d="M 191 3500 
L 800 3500 
L 1894 563 
L 2988 3500 
L 3597 3500 
L 2284 0 
L 1503 0 
L 191 3500 
z
" id="DejaVuSans-76" transform="scale(0.015625)"/>
      </defs>
      <use xlink:href="#DejaVuSans-41"/>
      <use x="68.408203" xlink:href="#DejaVuSans-53"/>
      <use x="131.884766" xlink:href="#DejaVuSans-43"/>
      <use x="201.708984" xlink:href="#DejaVuSans-20"/>
      <use x="233.496094" xlink:href="#DejaVuSans-53"/>
      <use x="296.972656" xlink:href="#DejaVuSans-75"/>
      <use x="360.351562" xlink:href="#DejaVuSans-69"/>
      <use x="388.134766" xlink:href="#DejaVuSans-74"/>
      <use x="427.34375" xlink:href="#DejaVuSans-65"/>
      <use x="488.867188" xlink:href="#DejaVuSans-20"/>
      <use x="520.654297" xlink:href="#DejaVuSans-41"/>
      <use x="583.1875" xlink:href="#DejaVuSans-76"/>
      <use x="642.367188" xlink:href="#DejaVuSans-65"/>
      <use x="703.890625" xlink:href="#DejaVuSans-72"/>
      <use x="745.003906" xlink:href="#DejaVuSans-61"/>
      <use x="806.283203" xlink:href="#DejaVuSans-67"/>
      <use x="869.759766" xlink:href="#DejaVuSans-65"/>
     </g>
    </g>
    <g id="line2d_126">
     <path d="M 99 345.911563 
L 119 345.911563 
" style="fill:none;stroke:#1f77b4;stroke-dasharray:3.7,1.6;stroke-dashoffset:0;"/>
    </g>
    <g id="line2d_127"/>
    <g id="text_14">
     <!-- 01 Imperial Valley, California (1940) -->
     <g transform="translate(127 349.411563)scale(0.1 -0.1)">
      <defs>
       <path d="M 628 4666 
L 1259 4666 
L 1259 0 
L 628 0 
L 628 4666 
z
" id="DejaVuSans-49" transform="scale(0.015625)"/>
       <path d="M 1831 0 
L 50 4666 
L 709 4666 
L 2188 738 
L 3669 4666 
L 4325 4666 
L 2547 0 
L 1831 0 
z
" id="DejaVuSans-56" transform="scale(0.015625)"/>
       <path d="M 2059 -325 
Q 1816 -950 1584 -1140 
Q 1353 -1331 966 -1331 
L 506 -1331 
L 506 -850 
L 844 -850 
Q 1081 -850 1212 -737 
Q 1344 -625 1503 -206 
L 1606 56 
L 191 3500 
L 800 3500 
L 1894 763 
L 2988 3500 
L 3597 3500 
L 2059 -325 
z
" id="DejaVuSans-79" transform="scale(0.015625)"/>
       <path d="M 750 794 
L 1409 794 
L 1409 256 
L 897 -744 
L 494 -744 
L 750 256 
L 750 794 
z
" id="DejaVuSans-2c" transform="scale(0.015625)"/>
       <path d="M 2375 4863 
L 2375 4384 
L 1825 4384 
Q 1516 4384 1395 4259 
Q 1275 4134 1275 3809 
L 1275 3500 
L 2222 3500 
L 2222 3053 
L 1275 3053 
L 1275 0 
L 697 0 
L 697 3053 
L 147 3053 
L 147 3500 
L 697 3500 
L 697 3744 
Q 697 4328 969 4595 
Q 1241 4863 1831 4863 
L 2375 4863 
z
" id="DejaVuSans-66" transform="scale(0.015625)"/>
       <path d="M 703 97 
L 703 672 
Q 941 559 1184 500 
Q 1428 441 1663 441 
Q 2288 441 2617 861 
Q 2947 1281 2994 2138 
Q 2813 1869 2534 1725 
Q 2256 1581 1919 1581 
Q 1219 1581 811 2004 
Q 403 2428 403 3163 
Q 403 3881 828 4315 
Q 1253 4750 1959 4750 
Q 2769 4750 3195 4129 
Q 3622 3509 3622 2328 
Q 3622 1225 3098 567 
Q 2575 -91 1691 -91 
Q 1453 -91 1209 -44 
Q 966 3 703 97 
z
M 1959 2075 
Q 2384 2075 2632 2365 
Q 2881 2656 2881 3163 
Q 2881 3666 2632 3958 
Q 2384 4250 1959 4250 
Q 1534 4250 1286 3958 
Q 1038 3666 1038 3163 
Q 1038 2656 1286 2365 
Q 1534 2075 1959 2075 
z
" id="DejaVuSans-39" transform="scale(0.015625)"/>
       <path d="M 2419 4116 
L 825 1625 
L 2419 1625 
L 2419 4116 
z
M 2253 4666 
L 3047 4666 
L 3047 1625 
L 3713 1625 
L 3713 1100 
L 3047 1100 
L 3047 0 
L 2419 0 
L 2419 1100 
L 313 1100 
L 313 1709 
L 2253 4666 
z
" id="DejaVuSans-34" transform="scale(0.015625)"/>
      </defs>
      <use xlink:href="#DejaVuSans-30"/>
      <use x="63.623047" xlink:href="#DejaVuSans-31"/>
      <use x="127.246094" xlink:href="#DejaVuSans-20"/>
      <use x="159.033203" xlink:href="#DejaVuSans-49"/>
      <use x="188.525391" xlink:href="#DejaVuSans-6d"/>
      <use x="285.9375" xlink:href="#DejaVuSans-70"/>
      <use x="349.414062" xlink:href="#DejaVuSans-65"/>
      <use x="410.9375" xlink:href="#DejaVuSans-72"/>
      <use x="452.050781" xlink:href="#DejaVuSans-69"/>
      <use x="479.833984" xlink:href="#DejaVuSans-61"/>
      <use x="541.113281" xlink:href="#DejaVuSans-6c"/>
      <use x="568.896484" xlink:href="#DejaVuSans-20"/>
      <use x="600.683594" xlink:href="#DejaVuSans-56"/>
      <use x="661.341797" xlink:href="#DejaVuSans-61"/>
      <use x="722.621094" xlink:href="#DejaVuSans-6c"/>
      <use x="750.404297" xlink:href="#DejaVuSans-6c"/>
      <use x="778.1875" xlink:href="#DejaVuSans-65"/>
      <use x="839.710938" xlink:href="#DejaVuSans-79"/>
      <use x="898.890625" xlink:href="#DejaVuSans-2c"/>
      <use x="930.677734" xlink:href="#DejaVuSans-20"/>
      <use x="962.464844" xlink:href="#DejaVuSans-43"/>
      <use x="1032.289062" xlink:href="#DejaVuSans-61"/>
      <use x="1093.568359" xlink:href="#DejaVuSans-6c"/>
      <use x="1121.351562" xlink:href="#DejaVuSans-69"/>
      <use x="1149.134766" xlink:href="#DejaVuSans-66"/>
      <use x="1184.339844" xlink:href="#DejaVuSans-6f"/>
      <use x="1245.521484" xlink:href="#DejaVuSans-72"/>
      <use x="1284.884766" xlink:href="#DejaVuSans-6e"/>
      <use x="1348.263672" xlink:href="#DejaVuSans-69"/>
      <use x="1376.046875" xlink:href="#DejaVuSans-61"/>
      <use x="1437.326172" xlink:href="#DejaVuSans-20"/>
      <use x="1469.113281" xlink:href="#DejaVuSans-28"/>
      <use x="1508.126953" xlink:href="#DejaVuSans-31"/>
      <use x="1571.75" xlink:href="#DejaVuSans-39"/>
      <use x="1635.373047" xlink:href="#DejaVuSans-34"/>
      <use x="1698.996094" xlink:href="#DejaVuSans-30"/>
      <use x="1762.619141" xlink:href="#DejaVuSans-29"/>
     </g>
    </g>
    <g id="line2d_128">
     <path d="M 99 360.589688 
L 119 360.589688 
" style="fill:none;stroke:#ff7f0e;stroke-dasharray:3.7,1.6;stroke-dashoffset:0;"/>
    </g>
    <g id="line2d_129"/>
    <g id="text_15">
     <!-- 02 El Alamo, California (1956) -->
     <g transform="translate(127 364.089688)scale(0.1 -0.1)">
      <defs>
       <path d="M 1228 531 
L 3431 531 
L 3431 0 
L 469 0 
L 469 531 
Q 828 903 1448 1529 
Q 2069 2156 2228 2338 
Q 2531 2678 2651 2914 
Q 2772 3150 2772 3378 
Q 2772 3750 2511 3984 
Q 2250 4219 1831 4219 
Q 1534 4219 1204 4116 
Q 875 4013 500 3803 
L 500 4441 
Q 881 4594 1212 4672 
Q 1544 4750 1819 4750 
Q 2544 4750 2975 4387 
Q 3406 4025 3406 3419 
Q 3406 3131 3298 2873 
Q 3191 2616 2906 2266 
Q 2828 2175 2409 1742 
Q 1991 1309 1228 531 
z
" id="DejaVuSans-32" transform="scale(0.015625)"/>
       <path d="M 628 4666 
L 3578 4666 
L 3578 4134 
L 1259 4134 
L 1259 2753 
L 3481 2753 
L 3481 2222 
L 1259 2222 
L 1259 531 
L 3634 531 
L 3634 0 
L 628 0 
L 628 4666 
z
" id="DejaVuSans-45" transform="scale(0.015625)"/>
       <path d="M 2113 2584 
Q 1688 2584 1439 2293 
Q 1191 2003 1191 1497 
Q 1191 994 1439 701 
Q 1688 409 2113 409 
Q 2538 409 2786 701 
Q 3034 994 3034 1497 
Q 3034 2003 2786 2293 
Q 2538 2584 2113 2584 
z
M 3366 4563 
L 3366 3988 
Q 3128 4100 2886 4159 
Q 2644 4219 2406 4219 
Q 1781 4219 1451 3797 
Q 1122 3375 1075 2522 
Q 1259 2794 1537 2939 
Q 1816 3084 2150 3084 
Q 2853 3084 3261 2657 
Q 3669 2231 3669 1497 
Q 3669 778 3244 343 
Q 2819 -91 2113 -91 
Q 1303 -91 875 529 
Q 447 1150 447 2328 
Q 447 3434 972 4092 
Q 1497 4750 2381 4750 
Q 2619 4750 2861 4703 
Q 3103 4656 3366 4563 
z
" id="DejaVuSans-36" transform="scale(0.015625)"/>
      </defs>
      <use xlink:href="#DejaVuSans-30"/>
      <use x="63.623047" xlink:href="#DejaVuSans-32"/>
      <use x="127.246094" xlink:href="#DejaVuSans-20"/>
      <use x="159.033203" xlink:href="#DejaVuSans-45"/>
      <use x="222.216797" xlink:href="#DejaVuSans-6c"/>
      <use x="250" xlink:href="#DejaVuSans-20"/>
      <use x="281.787109" xlink:href="#DejaVuSans-41"/>
      <use x="350.195312" xlink:href="#DejaVuSans-6c"/>
      <use x="377.978516" xlink:href="#DejaVuSans-61"/>
      <use x="439.257812" xlink:href="#DejaVuSans-6d"/>
      <use x="536.669922" xlink:href="#DejaVuSans-6f"/>
      <use x="597.851562" xlink:href="#DejaVuSans-2c"/>
      <use x="629.638672" xlink:href="#DejaVuSans-20"/>
      <use x="661.425781" xlink:href="#DejaVuSans-43"/>
      <use x="731.25" xlink:href="#DejaVuSans-61"/>
      <use x="792.529297" xlink:href="#DejaVuSans-6c"/>
      <use x="820.3125" xlink:href="#DejaVuSans-69"/>
      <use x="848.095703" xlink:href="#DejaVuSans-66"/>
      <use x="883.300781" xlink:href="#DejaVuSans-6f"/>
      <use x="944.482422" xlink:href="#DejaVuSans-72"/>
      <use x="983.845703" xlink:href="#DejaVuSans-6e"/>
      <use x="1047.224609" xlink:href="#DejaVuSans-69"/>
      <use x="1075.007812" xlink:href="#DejaVuSans-61"/>
      <use x="1136.287109" xlink:href="#DejaVuSans-20"/>
      <use x="1168.074219" xlink:href="#DejaVuSans-28"/>
      <use x="1207.087891" xlink:href="#DejaVuSans-31"/>
      <use x="1270.710938" xlink:href="#DejaVuSans-39"/>
      <use x="1334.333984" xlink:href="#DejaVuSans-35"/>
      <use x="1397.957031" xlink:href="#DejaVuSans-36"/>
      <use x="1461.580078" xlink:href="#DejaVuSans-29"/>
     </g>
    </g>
    <g id="line2d_130">
     <path d="M 99 375.267813 
L 119 375.267813 
" style="fill:none;stroke:#2ca02c;stroke-dasharray:3.7,1.6;stroke-dashoffset:0;"/>
    </g>
    <g id="line2d_131"/>
    <g id="text_16">
     <!-- 03 Kocaeli, Turkey (1999) -->
     <g transform="translate(127 378.767813)scale(0.1 -0.1)">
      <defs>
       <path d="M 2597 2516 
Q 3050 2419 3304 2112 
Q 3559 1806 3559 1356 
Q 3559 666 3084 287 
Q 2609 -91 1734 -91 
Q 1441 -91 1130 -33 
Q 819 25 488 141 
L 488 750 
Q 750 597 1062 519 
Q 1375 441 1716 441 
Q 2309 441 2620 675 
Q 2931 909 2931 1356 
Q 2931 1769 2642 2001 
Q 2353 2234 1838 2234 
L 1294 2234 
L 1294 2753 
L 1863 2753 
Q 2328 2753 2575 2939 
Q 2822 3125 2822 3475 
Q 2822 3834 2567 4026 
Q 2313 4219 1838 4219 
Q 1578 4219 1281 4162 
Q 984 4106 628 3988 
L 628 4550 
Q 988 4650 1302 4700 
Q 1616 4750 1894 4750 
Q 2613 4750 3031 4423 
Q 3450 4097 3450 3541 
Q 3450 3153 3228 2886 
Q 3006 2619 2597 2516 
z
" id="DejaVuSans-33" transform="scale(0.015625)"/>
       <path d="M 628 4666 
L 1259 4666 
L 1259 2694 
L 3353 4666 
L 4166 4666 
L 1850 2491 
L 4331 0 
L 3500 0 
L 1259 2247 
L 1259 0 
L 628 0 
L 628 4666 
z
" id="DejaVuSans-4b" transform="scale(0.015625)"/>
       <path d="M 581 4863 
L 1159 4863 
L 1159 1991 
L 2875 3500 
L 3609 3500 
L 1753 1863 
L 3688 0 
L 2938 0 
L 1159 1709 
L 1159 0 
L 581 0 
L 581 4863 
z
" id="DejaVuSans-6b" transform="scale(0.015625)"/>
      </defs>
      <use xlink:href="#DejaVuSans-30"/>
      <use x="63.623047" xlink:href="#DejaVuSans-33"/>
      <use x="127.246094" xlink:href="#DejaVuSans-20"/>
      <use x="159.033203" xlink:href="#DejaVuSans-4b"/>
      <use x="219.609375" xlink:href="#DejaVuSans-6f"/>
      <use x="280.791016" xlink:href="#DejaVuSans-63"/>
      <use x="335.771484" xlink:href="#DejaVuSans-61"/>
      <use x="397.050781" xlink:href="#DejaVuSans-65"/>
      <use x="458.574219" xlink:href="#DejaVuSans-6c"/>
      <use x="486.357422" xlink:href="#DejaVuSans-69"/>
      <use x="514.140625" xlink:href="#DejaVuSans-2c"/>
      <use x="545.927734" xlink:href="#DejaVuSans-20"/>
      <use x="577.714844" xlink:href="#DejaVuSans-54"/>
      <use x="623.673828" xlink:href="#DejaVuSans-75"/>
      <use x="687.052734" xlink:href="#DejaVuSans-72"/>
      <use x="728.166016" xlink:href="#DejaVuSans-6b"/>
      <use x="782.451172" xlink:href="#DejaVuSans-65"/>
      <use x="843.974609" xlink:href="#DejaVuSans-79"/>
      <use x="903.154297" xlink:href="#DejaVuSans-20"/>
      <use x="934.941406" xlink:href="#DejaVuSans-28"/>
      <use x="973.955078" xlink:href="#DejaVuSans-31"/>
      <use x="1037.578125" xlink:href="#DejaVuSans-39"/>
      <use x="1101.201172" xlink:href="#DejaVuSans-39"/>
      <use x="1164.824219" xlink:href="#DejaVuSans-39"/>
      <use x="1228.447266" xlink:href="#DejaVuSans-29"/>
     </g>
    </g>
    <g id="line2d_132">
     <path d="M 99 389.945938 
L 119 389.945938 
" style="fill:none;stroke:#d62728;stroke-dasharray:3.7,1.6;stroke-dashoffset:0;"/>
    </g>
    <g id="line2d_133"/>
    <g id="text_17">
     <!-- 04 El Mayor-Cucapah, Mexico (2010) -->
     <g transform="translate(127 393.445938)scale(0.1 -0.1)">
      <defs>
       <path d="M 3513 2113 
L 3513 0 
L 2938 0 
L 2938 2094 
Q 2938 2591 2744 2837 
Q 2550 3084 2163 3084 
Q 1697 3084 1428 2787 
Q 1159 2491 1159 1978 
L 1159 0 
L 581 0 
L 581 4863 
L 1159 4863 
L 1159 2956 
Q 1366 3272 1645 3428 
Q 1925 3584 2291 3584 
Q 2894 3584 3203 3211 
Q 3513 2838 3513 2113 
z
" id="DejaVuSans-68" transform="scale(0.015625)"/>
      </defs>
      <use xlink:href="#DejaVuSans-30"/>
      <use x="63.623047" xlink:href="#DejaVuSans-34"/>
      <use x="127.246094" xlink:href="#DejaVuSans-20"/>
      <use x="159.033203" xlink:href="#DejaVuSans-45"/>
      <use x="222.216797" xlink:href="#DejaVuSans-6c"/>
      <use x="250" xlink:href="#DejaVuSans-20"/>
      <use x="281.787109" xlink:href="#DejaVuSans-4d"/>
      <use x="368.066406" xlink:href="#DejaVuSans-61"/>
      <use x="429.345703" xlink:href="#DejaVuSans-79"/>
      <use x="488.525391" xlink:href="#DejaVuSans-6f"/>
      <use x="549.707031" xlink:href="#DejaVuSans-72"/>
      <use x="584.445312" xlink:href="#DejaVuSans-2d"/>
      <use x="620.529297" xlink:href="#DejaVuSans-43"/>
      <use x="690.353516" xlink:href="#DejaVuSans-75"/>
      <use x="753.732422" xlink:href="#DejaVuSans-63"/>
      <use x="808.712891" xlink:href="#DejaVuSans-61"/>
      <use x="869.992188" xlink:href="#DejaVuSans-70"/>
      <use x="933.46875" xlink:href="#DejaVuSans-61"/>
      <use x="994.748047" xlink:href="#DejaVuSans-68"/>
      <use x="1058.126953" xlink:href="#DejaVuSans-2c"/>
      <use x="1089.914062" xlink:href="#DejaVuSans-20"/>
      <use x="1121.701172" xlink:href="#DejaVuSans-4d"/>
      <use x="1207.980469" xlink:href="#DejaVuSans-65"/>
      <use x="1267.753906" xlink:href="#DejaVuSans-78"/>
      <use x="1326.933594" xlink:href="#DejaVuSans-69"/>
      <use x="1354.716797" xlink:href="#DejaVuSans-63"/>
      <use x="1409.697266" xlink:href="#DejaVuSans-6f"/>
      <use x="1470.878906" xlink:href="#DejaVuSans-20"/>
      <use x="1502.666016" xlink:href="#DejaVuSans-28"/>
      <use x="1541.679688" xlink:href="#DejaVuSans-32"/>
      <use x="1605.302734" xlink:href="#DejaVuSans-30"/>
      <use x="1668.925781" xlink:href="#DejaVuSans-31"/>
      <use x="1732.548828" xlink:href="#DejaVuSans-30"/>
      <use x="1796.171875" xlink:href="#DejaVuSans-29"/>
     </g>
    </g>
    <g id="line2d_134">
     <path d="M 99 404.624063 
L 119 404.624063 
" style="fill:none;stroke:#9467bd;stroke-dasharray:3.7,1.6;stroke-dashoffset:0;"/>
    </g>
    <g id="line2d_135"/>
    <g id="text_18">
     <!-- 05 Darfield, New Zealand (2010) -->
     <g transform="translate(127 408.124063)scale(0.1 -0.1)">
      <defs>
       <path d="M 628 4666 
L 1478 4666 
L 3547 763 
L 3547 4666 
L 4159 4666 
L 4159 0 
L 3309 0 
L 1241 3903 
L 1241 0 
L 628 0 
L 628 4666 
z
" id="DejaVuSans-4e" transform="scale(0.015625)"/>
       <path d="M 269 3500 
L 844 3500 
L 1563 769 
L 2278 3500 
L 2956 3500 
L 3675 769 
L 4391 3500 
L 4966 3500 
L 4050 0 
L 3372 0 
L 2619 2869 
L 1863 0 
L 1184 0 
L 269 3500 
z
" id="DejaVuSans-77" transform="scale(0.015625)"/>
       <path d="M 359 4666 
L 4025 4666 
L 4025 4184 
L 1075 531 
L 4097 531 
L 4097 0 
L 288 0 
L 288 481 
L 3238 4134 
L 359 4134 
L 359 4666 
z
" id="DejaVuSans-5a" transform="scale(0.015625)"/>
      </defs>
      <use xlink:href="#DejaVuSans-30"/>
      <use x="63.623047" xlink:href="#DejaVuSans-35"/>
      <use x="127.246094" xlink:href="#DejaVuSans-20"/>
      <use x="159.033203" xlink:href="#DejaVuSans-44"/>
      <use x="236.035156" xlink:href="#DejaVuSans-61"/>
      <use x="297.314453" xlink:href="#DejaVuSans-72"/>
      <use x="338.427734" xlink:href="#DejaVuSans-66"/>
      <use x="373.632812" xlink:href="#DejaVuSans-69"/>
      <use x="401.416016" xlink:href="#DejaVuSans-65"/>
      <use x="462.939453" xlink:href="#DejaVuSans-6c"/>
      <use x="490.722656" xlink:href="#DejaVuSans-64"/>
      <use x="554.199219" xlink:href="#DejaVuSans-2c"/>
      <use x="585.986328" xlink:href="#DejaVuSans-20"/>
      <use x="617.773438" xlink:href="#DejaVuSans-4e"/>
      <use x="692.578125" xlink:href="#DejaVuSans-65"/>
      <use x="754.101562" xlink:href="#DejaVuSans-77"/>
      <use x="835.888672" xlink:href="#DejaVuSans-20"/>
      <use x="867.675781" xlink:href="#DejaVuSans-5a"/>
      <use x="936.181641" xlink:href="#DejaVuSans-65"/>
      <use x="997.705078" xlink:href="#DejaVuSans-61"/>
      <use x="1058.984375" xlink:href="#DejaVuSans-6c"/>
      <use x="1086.767578" xlink:href="#DejaVuSans-61"/>
      <use x="1148.046875" xlink:href="#DejaVuSans-6e"/>
      <use x="1211.425781" xlink:href="#DejaVuSans-64"/>
      <use x="1274.902344" xlink:href="#DejaVuSans-20"/>
      <use x="1306.689453" xlink:href="#DejaVuSans-28"/>
      <use x="1345.703125" xlink:href="#DejaVuSans-32"/>
      <use x="1409.326172" xlink:href="#DejaVuSans-30"/>
      <use x="1472.949219" xlink:href="#DejaVuSans-31"/>
      <use x="1536.572266" xlink:href="#DejaVuSans-30"/>
      <use x="1600.195312" xlink:href="#DejaVuSans-29"/>
     </g>
    </g>
    <g id="line2d_136">
     <path d="M 99 419.302188 
L 119 419.302188 
" style="fill:none;stroke:#8c564b;stroke-dasharray:3.7,1.6;stroke-dashoffset:0;"/>
    </g>
    <g id="line2d_137"/>
    <g id="text_19">
     <!-- 06 Superstition Hills, California (1987) -->
     <g transform="translate(127 422.802188)scale(0.1 -0.1)">
      <defs>
       <path d="M 628 4666 
L 1259 4666 
L 1259 2753 
L 3553 2753 
L 3553 4666 
L 4184 4666 
L 4184 0 
L 3553 0 
L 3553 2222 
L 1259 2222 
L 1259 0 
L 628 0 
L 628 4666 
z
" id="DejaVuSans-48" transform="scale(0.015625)"/>
       <path d="M 2034 2216 
Q 1584 2216 1326 1975 
Q 1069 1734 1069 1313 
Q 1069 891 1326 650 
Q 1584 409 2034 409 
Q 2484 409 2743 651 
Q 3003 894 3003 1313 
Q 3003 1734 2745 1975 
Q 2488 2216 2034 2216 
z
M 1403 2484 
Q 997 2584 770 2862 
Q 544 3141 544 3541 
Q 544 4100 942 4425 
Q 1341 4750 2034 4750 
Q 2731 4750 3128 4425 
Q 3525 4100 3525 3541 
Q 3525 3141 3298 2862 
Q 3072 2584 2669 2484 
Q 3125 2378 3379 2068 
Q 3634 1759 3634 1313 
Q 3634 634 3220 271 
Q 2806 -91 2034 -91 
Q 1263 -91 848 271 
Q 434 634 434 1313 
Q 434 1759 690 2068 
Q 947 2378 1403 2484 
z
M 1172 3481 
Q 1172 3119 1398 2916 
Q 1625 2713 2034 2713 
Q 2441 2713 2670 2916 
Q 2900 3119 2900 3481 
Q 2900 3844 2670 4047 
Q 2441 4250 2034 4250 
Q 1625 4250 1398 4047 
Q 1172 3844 1172 3481 
z
" id="DejaVuSans-38" transform="scale(0.015625)"/>
       <path d="M 525 4666 
L 3525 4666 
L 3525 4397 
L 1831 0 
L 1172 0 
L 2766 4134 
L 525 4134 
L 525 4666 
z
" id="DejaVuSans-37" transform="scale(0.015625)"/>
      </defs>
      <use xlink:href="#DejaVuSans-30"/>
      <use x="63.623047" xlink:href="#DejaVuSans-36"/>
      <use x="127.246094" xlink:href="#DejaVuSans-20"/>
      <use x="159.033203" xlink:href="#DejaVuSans-53"/>
      <use x="222.509766" xlink:href="#DejaVuSans-75"/>
      <use x="285.888672" xlink:href="#DejaVuSans-70"/>
      <use x="349.365234" xlink:href="#DejaVuSans-65"/>
      <use x="410.888672" xlink:href="#DejaVuSans-72"/>
      <use x="452.001953" xlink:href="#DejaVuSans-73"/>
      <use x="504.101562" xlink:href="#DejaVuSans-74"/>
      <use x="543.310547" xlink:href="#DejaVuSans-69"/>
      <use x="571.09375" xlink:href="#DejaVuSans-74"/>
      <use x="610.302734" xlink:href="#DejaVuSans-69"/>
      <use x="638.085938" xlink:href="#DejaVuSans-6f"/>
      <use x="699.267578" xlink:href="#DejaVuSans-6e"/>
      <use x="762.646484" xlink:href="#DejaVuSans-20"/>
      <use x="794.433594" xlink:href="#DejaVuSans-48"/>
      <use x="869.628906" xlink:href="#DejaVuSans-69"/>
      <use x="897.412109" xlink:href="#DejaVuSans-6c"/>
      <use x="925.195312" xlink:href="#DejaVuSans-6c"/>
      <use x="952.978516" xlink:href="#DejaVuSans-73"/>
      <use x="1005.078125" xlink:href="#DejaVuSans-2c"/>
      <use x="1036.865234" xlink:href="#DejaVuSans-20"/>
      <use x="1068.652344" xlink:href="#DejaVuSans-43"/>
      <use x="1138.476562" xlink:href="#DejaVuSans-61"/>
      <use x="1199.755859" xlink:href="#DejaVuSans-6c"/>
      <use x="1227.539062" xlink:href="#DejaVuSans-69"/>
      <use x="1255.322266" xlink:href="#DejaVuSans-66"/>
      <use x="1290.527344" xlink:href="#DejaVuSans-6f"/>
      <use x="1351.708984" xlink:href="#DejaVuSans-72"/>
      <use x="1391.072266" xlink:href="#DejaVuSans-6e"/>
      <use x="1454.451172" xlink:href="#DejaVuSans-69"/>
      <use x="1482.234375" xlink:href="#DejaVuSans-61"/>
      <use x="1543.513672" xlink:href="#DejaVuSans-20"/>
      <use x="1575.300781" xlink:href="#DejaVuSans-28"/>
      <use x="1614.314453" xlink:href="#DejaVuSans-31"/>
      <use x="1677.9375" xlink:href="#DejaVuSans-39"/>
      <use x="1741.560547" xlink:href="#DejaVuSans-38"/>
      <use x="1805.183594" xlink:href="#DejaVuSans-37"/>
      <use x="1868.806641" xlink:href="#DejaVuSans-29"/>
     </g>
    </g>
    <g id="line2d_138">
     <path d="M 99 433.980313 
L 119 433.980313 
" style="fill:none;stroke:#e377c2;stroke-dasharray:3.7,1.6;stroke-dashoffset:0;"/>
    </g>
    <g id="line2d_139"/>
    <g id="text_20">
     <!-- 07 Tottori, Japan (2000) -->
     <g transform="translate(127 437.480313)scale(0.1 -0.1)">
      <defs>
       <path d="M 628 4666 
L 1259 4666 
L 1259 325 
Q 1259 -519 939 -900 
Q 619 -1281 -91 -1281 
L -331 -1281 
L -331 -750 
L -134 -750 
Q 284 -750 456 -515 
Q 628 -281 628 325 
L 628 4666 
z
" id="DejaVuSans-4a" transform="scale(0.015625)"/>
      </defs>
      <use xlink:href="#DejaVuSans-30"/>
      <use x="63.623047" xlink:href="#DejaVuSans-37"/>
      <use x="127.246094" xlink:href="#DejaVuSans-20"/>
      <use x="159.033203" xlink:href="#DejaVuSans-54"/>
      <use x="203.117188" xlink:href="#DejaVuSans-6f"/>
      <use x="264.298828" xlink:href="#DejaVuSans-74"/>
      <use x="303.507812" xlink:href="#DejaVuSans-74"/>
      <use x="342.716797" xlink:href="#DejaVuSans-6f"/>
      <use x="403.898438" xlink:href="#DejaVuSans-72"/>
      <use x="445.011719" xlink:href="#DejaVuSans-69"/>
      <use x="472.794922" xlink:href="#DejaVuSans-2c"/>
      <use x="504.582031" xlink:href="#DejaVuSans-20"/>
      <use x="536.369141" xlink:href="#DejaVuSans-4a"/>
      <use x="565.861328" xlink:href="#DejaVuSans-61"/>
      <use x="627.140625" xlink:href="#DejaVuSans-70"/>
      <use x="690.617188" xlink:href="#DejaVuSans-61"/>
      <use x="751.896484" xlink:href="#DejaVuSans-6e"/>
      <use x="815.275391" xlink:href="#DejaVuSans-20"/>
      <use x="847.0625" xlink:href="#DejaVuSans-28"/>
      <use x="886.076172" xlink:href="#DejaVuSans-32"/>
      <use x="949.699219" xlink:href="#DejaVuSans-30"/>
      <use x="1013.322266" xlink:href="#DejaVuSans-30"/>
      <use x="1076.945312" xlink:href="#DejaVuSans-30"/>
      <use x="1140.568359" xlink:href="#DejaVuSans-29"/>
     </g>
    </g>
   </g>
  </g>
 </g>
 <defs>
  <clipPath id="pe931463e3d">
   <rect height="388.08" width="558" x="90" y="60.48"/>
  </clipPath>
 </defs>
</svg>
