<?xml version="1.0" encoding="utf-8" standalone="no"?>
<!DOCTYPE svg PUBLIC "-//W3C//DTD SVG 1.1//EN"
  "http://www.w3.org/Graphics/SVG/1.1/DTD/svg11.dtd">
<svg xmlns:xlink="http://www.w3.org/1999/xlink" width="720pt" height="504pt" viewBox="0 0 720 504" xmlns="http://www.w3.org/2000/svg" version="1.1">
 <metadata>
  <rdf:RDF xmlns:dc="http://purl.org/dc/elements/1.1/" xmlns:cc="http://creativecommons.org/ns#" xmlns:rdf="http://www.w3.org/1999/02/22-rdf-syntax-ns#">
   <cc:Work>
    <dc:type rdf:resource="http://purl.org/dc/dcmitype/StillImage"/>
    <dc:date>2022-06-23T12:49:37.515342</dc:date>
    <dc:format>image/svg+xml</dc:format>
    <dc:creator>
     <cc:Agent>
      <dc:title>Matplotlib v3.5.0, https://matplotlib.org/</dc:title>
     </cc:Agent>
    </dc:creator>
   </cc:Work>
  </rdf:RDF>
 </metadata>
 <defs>
  <style type="text/css">*{stroke-linejoin: round; stroke-linecap: butt}</style>
 </defs>
 <g id="figure_1">
  <g id="patch_1">
   <path d="M 0 504 
L 720 504 
L 720 0 
L 0 0 
z
" style="fill: #ffffff"/>
  </g>
  <g id="axes_1">
   <g id="patch_2">
    <path d="M 90 448.56 
L 648 448.56 
L 648 60.48 
L 90 60.48 
z
" style="fill: #ffffff"/>
   </g>
   <g id="matplotlib.axis_1">
    <g id="xtick_1">
     <g id="line2d_1">
      <path d="M 90 448.56 
L 90 60.48 
" clip-path="url(#p723c3567a3)" style="fill: none; stroke: #b0b0b0; stroke-width: 0.8; stroke-linecap: square"/>
     </g>
     <g id="line2d_2">
      <defs>
       <path id="m089bf9a233" d="M 0 0 
L 0 3.5 
" style="stroke: #000000; stroke-width: 0.8"/>
      </defs>
      <g>
       <use xlink:href="#m089bf9a233" x="90" y="448.56" style="stroke: #000000; stroke-width: 0.8"/>
      </g>
     </g>
     <g id="text_1">
      <!-- 0.01 -->
      <g transform="translate(78.867188 463.158437)scale(0.1 -0.1)">
       <defs>
        <path id="DejaVuSans-30" d="M 2034 4250 
Q 1547 4250 1301 3770 
Q 1056 3291 1056 2328 
Q 1056 1369 1301 889 
Q 1547 409 2034 409 
Q 2525 409 2770 889 
Q 3016 1369 3016 2328 
Q 3016 3291 2770 3770 
Q 2525 4250 2034 4250 
z
M 2034 4750 
Q 2819 4750 3233 4129 
Q 3647 3509 3647 2328 
Q 3647 1150 3233 529 
Q 2819 -91 2034 -91 
Q 1250 -91 836 529 
Q 422 1150 422 2328 
Q 422 3509 836 4129 
Q 1250 4750 2034 4750 
z
" transform="scale(0.015625)"/>
        <path id="DejaVuSans-2e" d="M 684 794 
L 1344 794 
L 1344 0 
L 684 0 
L 684 794 
z
" transform="scale(0.015625)"/>
        <path id="DejaVuSans-31" d="M 794 531 
L 1825 531 
L 1825 4091 
L 703 3866 
L 703 4441 
L 1819 4666 
L 2450 4666 
L 2450 531 
L 3481 531 
L 3481 0 
L 794 0 
L 794 531 
z
" transform="scale(0.015625)"/>
       </defs>
       <use xlink:href="#DejaVuSans-30"/>
       <use xlink:href="#DejaVuSans-2e" x="63.623047"/>
       <use xlink:href="#DejaVuSans-30" x="95.410156"/>
       <use xlink:href="#DejaVuSans-31" x="159.033203"/>
      </g>
     </g>
    </g>
    <g id="xtick_2">
     <g id="line2d_3">
      <path d="M 276 448.56 
L 276 60.48 
" clip-path="url(#p723c3567a3)" style="fill: none; stroke: #b0b0b0; stroke-width: 0.8; stroke-linecap: square"/>
     </g>
     <g id="line2d_4">
      <g>
       <use xlink:href="#m089bf9a233" x="276" y="448.56" style="stroke: #000000; stroke-width: 0.8"/>
      </g>
     </g>
     <g id="text_2">
      <!-- 0.1 -->
      <g transform="translate(268.048437 463.158437)scale(0.1 -0.1)">
       <use xlink:href="#DejaVuSans-30"/>
       <use xlink:href="#DejaVuSans-2e" x="63.623047"/>
       <use xlink:href="#DejaVuSans-31" x="95.410156"/>
      </g>
     </g>
    </g>
    <g id="xtick_3">
     <g id="line2d_5">
      <path d="M 462 448.56 
L 462 60.48 
" clip-path="url(#p723c3567a3)" style="fill: none; stroke: #b0b0b0; stroke-width: 0.8; stroke-linecap: square"/>
     </g>
     <g id="line2d_6">
      <g>
       <use xlink:href="#m089bf9a233" x="462" y="448.56" style="stroke: #000000; stroke-width: 0.8"/>
      </g>
     </g>
     <g id="text_3">
      <!-- 1 -->
      <g transform="translate(458.81875 463.158437)scale(0.1 -0.1)">
       <use xlink:href="#DejaVuSans-31"/>
      </g>
     </g>
    </g>
    <g id="xtick_4">
     <g id="line2d_7">
      <path d="M 648 448.56 
L 648 60.48 
" clip-path="url(#p723c3567a3)" style="fill: none; stroke: #b0b0b0; stroke-width: 0.8; stroke-linecap: square"/>
     </g>
     <g id="line2d_8">
      <g>
       <use xlink:href="#m089bf9a233" x="648" y="448.56" style="stroke: #000000; stroke-width: 0.8"/>
      </g>
     </g>
     <g id="text_4">
      <!-- 10 -->
      <g transform="translate(641.6375 463.158437)scale(0.1 -0.1)">
       <use xlink:href="#DejaVuSans-31"/>
       <use xlink:href="#DejaVuSans-30" x="63.623047"/>
      </g>
     </g>
    </g>
    <g id="xtick_5">
     <g id="line2d_9">
      <path d="M 145.991579 448.56 
L 145.991579 60.48 
" clip-path="url(#p723c3567a3)" style="fill: none; stroke: #b0b0b0; stroke-width: 0.8; stroke-linecap: square"/>
     </g>
     <g id="line2d_10">
      <defs>
       <path id="mb923112147" d="M 0 0 
L 0 2 
" style="stroke: #000000; stroke-width: 0.6"/>
      </defs>
      <g>
       <use xlink:href="#mb923112147" x="145.991579" y="448.56" style="stroke: #000000; stroke-width: 0.6"/>
      </g>
     </g>
    </g>
    <g id="xtick_6">
     <g id="line2d_11">
      <path d="M 178.744553 448.56 
L 178.744553 60.48 
" clip-path="url(#p723c3567a3)" style="fill: none; stroke: #b0b0b0; stroke-width: 0.8; stroke-linecap: square"/>
     </g>
     <g id="line2d_12">
      <g>
       <use xlink:href="#mb923112147" x="178.744553" y="448.56" style="stroke: #000000; stroke-width: 0.6"/>
      </g>
     </g>
    </g>
    <g id="xtick_7">
     <g id="line2d_13">
      <path d="M 201.983158 448.56 
L 201.983158 60.48 
" clip-path="url(#p723c3567a3)" style="fill: none; stroke: #b0b0b0; stroke-width: 0.8; stroke-linecap: square"/>
     </g>
     <g id="line2d_14">
      <g>
       <use xlink:href="#mb923112147" x="201.983158" y="448.56" style="stroke: #000000; stroke-width: 0.6"/>
      </g>
     </g>
    </g>
    <g id="xtick_8">
     <g id="line2d_15">
      <path d="M 220.008421 448.56 
L 220.008421 60.48 
" clip-path="url(#p723c3567a3)" style="fill: none; stroke: #b0b0b0; stroke-width: 0.8; stroke-linecap: square"/>
     </g>
     <g id="line2d_16">
      <g>
       <use xlink:href="#mb923112147" x="220.008421" y="448.56" style="stroke: #000000; stroke-width: 0.6"/>
      </g>
     </g>
    </g>
    <g id="xtick_9">
     <g id="line2d_17">
      <path d="M 234.736133 448.56 
L 234.736133 60.48 
" clip-path="url(#p723c3567a3)" style="fill: none; stroke: #b0b0b0; stroke-width: 0.8; stroke-linecap: square"/>
     </g>
     <g id="line2d_18">
      <g>
       <use xlink:href="#mb923112147" x="234.736133" y="448.56" style="stroke: #000000; stroke-width: 0.6"/>
      </g>
     </g>
    </g>
    <g id="xtick_10">
     <g id="line2d_19">
      <path d="M 247.188235 448.56 
L 247.188235 60.48 
" clip-path="url(#p723c3567a3)" style="fill: none; stroke: #b0b0b0; stroke-width: 0.8; stroke-linecap: square"/>
     </g>
     <g id="line2d_20">
      <g>
       <use xlink:href="#mb923112147" x="247.188235" y="448.56" style="stroke: #000000; stroke-width: 0.6"/>
      </g>
     </g>
    </g>
    <g id="xtick_11">
     <g id="line2d_21">
      <path d="M 257.974738 448.56 
L 257.974738 60.48 
" clip-path="url(#p723c3567a3)" style="fill: none; stroke: #b0b0b0; stroke-width: 0.8; stroke-linecap: square"/>
     </g>
     <g id="line2d_22">
      <g>
       <use xlink:href="#mb923112147" x="257.974738" y="448.56" style="stroke: #000000; stroke-width: 0.6"/>
      </g>
     </g>
    </g>
    <g id="xtick_12">
     <g id="line2d_23">
      <path d="M 267.489107 448.56 
L 267.489107 60.48 
" clip-path="url(#p723c3567a3)" style="fill: none; stroke: #b0b0b0; stroke-width: 0.8; stroke-linecap: square"/>
     </g>
     <g id="line2d_24">
      <g>
       <use xlink:href="#mb923112147" x="267.489107" y="448.56" style="stroke: #000000; stroke-width: 0.6"/>
      </g>
     </g>
    </g>
    <g id="xtick_13">
     <g id="line2d_25">
      <path d="M 331.991579 448.56 
L 331.991579 60.48 
" clip-path="url(#p723c3567a3)" style="fill: none; stroke: #b0b0b0; stroke-width: 0.8; stroke-linecap: square"/>
     </g>
     <g id="line2d_26">
      <g>
       <use xlink:href="#mb923112147" x="331.991579" y="448.56" style="stroke: #000000; stroke-width: 0.6"/>
      </g>
     </g>
    </g>
    <g id="xtick_14">
     <g id="line2d_27">
      <path d="M 364.744553 448.56 
L 364.744553 60.48 
" clip-path="url(#p723c3567a3)" style="fill: none; stroke: #b0b0b0; stroke-width: 0.8; stroke-linecap: square"/>
     </g>
     <g id="line2d_28">
      <g>
       <use xlink:href="#mb923112147" x="364.744553" y="448.56" style="stroke: #000000; stroke-width: 0.6"/>
      </g>
     </g>
    </g>
    <g id="xtick_15">
     <g id="line2d_29">
      <path d="M 387.983158 448.56 
L 387.983158 60.48 
" clip-path="url(#p723c3567a3)" style="fill: none; stroke: #b0b0b0; stroke-width: 0.8; stroke-linecap: square"/>
     </g>
     <g id="line2d_30">
      <g>
       <use xlink:href="#mb923112147" x="387.983158" y="448.56" style="stroke: #000000; stroke-width: 0.6"/>
      </g>
     </g>
    </g>
    <g id="xtick_16">
     <g id="line2d_31">
      <path d="M 406.008421 448.56 
L 406.008421 60.48 
" clip-path="url(#p723c3567a3)" style="fill: none; stroke: #b0b0b0; stroke-width: 0.8; stroke-linecap: square"/>
     </g>
     <g id="line2d_32">
      <g>
       <use xlink:href="#mb923112147" x="406.008421" y="448.56" style="stroke: #000000; stroke-width: 0.6"/>
      </g>
     </g>
    </g>
    <g id="xtick_17">
     <g id="line2d_33">
      <path d="M 420.736133 448.56 
L 420.736133 60.48 
" clip-path="url(#p723c3567a3)" style="fill: none; stroke: #b0b0b0; stroke-width: 0.8; stroke-linecap: square"/>
     </g>
     <g id="line2d_34">
      <g>
       <use xlink:href="#mb923112147" x="420.736133" y="448.56" style="stroke: #000000; stroke-width: 0.6"/>
      </g>
     </g>
    </g>
    <g id="xtick_18">
     <g id="line2d_35">
      <path d="M 433.188235 448.56 
L 433.188235 60.48 
" clip-path="url(#p723c3567a3)" style="fill: none; stroke: #b0b0b0; stroke-width: 0.8; stroke-linecap: square"/>
     </g>
     <g id="line2d_36">
      <g>
       <use xlink:href="#mb923112147" x="433.188235" y="448.56" style="stroke: #000000; stroke-width: 0.6"/>
      </g>
     </g>
    </g>
    <g id="xtick_19">
     <g id="line2d_37">
      <path d="M 443.974738 448.56 
L 443.974738 60.48 
" clip-path="url(#p723c3567a3)" style="fill: none; stroke: #b0b0b0; stroke-width: 0.8; stroke-linecap: square"/>
     </g>
     <g id="line2d_38">
      <g>
       <use xlink:href="#mb923112147" x="443.974738" y="448.56" style="stroke: #000000; stroke-width: 0.6"/>
      </g>
     </g>
    </g>
    <g id="xtick_20">
     <g id="line2d_39">
      <path d="M 453.489107 448.56 
L 453.489107 60.48 
" clip-path="url(#p723c3567a3)" style="fill: none; stroke: #b0b0b0; stroke-width: 0.8; stroke-linecap: square"/>
     </g>
     <g id="line2d_40">
      <g>
       <use xlink:href="#mb923112147" x="453.489107" y="448.56" style="stroke: #000000; stroke-width: 0.6"/>
      </g>
     </g>
    </g>
    <g id="xtick_21">
     <g id="line2d_41">
      <path d="M 517.991579 448.56 
L 517.991579 60.48 
" clip-path="url(#p723c3567a3)" style="fill: none; stroke: #b0b0b0; stroke-width: 0.8; stroke-linecap: square"/>
     </g>
     <g id="line2d_42">
      <g>
       <use xlink:href="#mb923112147" x="517.991579" y="448.56" style="stroke: #000000; stroke-width: 0.6"/>
      </g>
     </g>
    </g>
    <g id="xtick_22">
     <g id="line2d_43">
      <path d="M 550.744553 448.56 
L 550.744553 60.48 
" clip-path="url(#p723c3567a3)" style="fill: none; stroke: #b0b0b0; stroke-width: 0.8; stroke-linecap: square"/>
     </g>
     <g id="line2d_44">
      <g>
       <use xlink:href="#mb923112147" x="550.744553" y="448.56" style="stroke: #000000; stroke-width: 0.6"/>
      </g>
     </g>
    </g>
    <g id="xtick_23">
     <g id="line2d_45">
      <path d="M 573.983158 448.56 
L 573.983158 60.48 
" clip-path="url(#p723c3567a3)" style="fill: none; stroke: #b0b0b0; stroke-width: 0.8; stroke-linecap: square"/>
     </g>
     <g id="line2d_46">
      <g>
       <use xlink:href="#mb923112147" x="573.983158" y="448.56" style="stroke: #000000; stroke-width: 0.6"/>
      </g>
     </g>
    </g>
    <g id="xtick_24">
     <g id="line2d_47">
      <path d="M 592.008421 448.56 
L 592.008421 60.48 
" clip-path="url(#p723c3567a3)" style="fill: none; stroke: #b0b0b0; stroke-width: 0.8; stroke-linecap: square"/>
     </g>
     <g id="line2d_48">
      <g>
       <use xlink:href="#mb923112147" x="592.008421" y="448.56" style="stroke: #000000; stroke-width: 0.6"/>
      </g>
     </g>
    </g>
    <g id="xtick_25">
     <g id="line2d_49">
      <path d="M 606.736133 448.56 
L 606.736133 60.48 
" clip-path="url(#p723c3567a3)" style="fill: none; stroke: #b0b0b0; stroke-width: 0.8; stroke-linecap: square"/>
     </g>
     <g id="line2d_50">
      <g>
       <use xlink:href="#mb923112147" x="606.736133" y="448.56" style="stroke: #000000; stroke-width: 0.6"/>
      </g>
     </g>
    </g>
    <g id="xtick_26">
     <g id="line2d_51">
      <path d="M 619.188235 448.56 
L 619.188235 60.48 
" clip-path="url(#p723c3567a3)" style="fill: none; stroke: #b0b0b0; stroke-width: 0.8; stroke-linecap: square"/>
     </g>
     <g id="line2d_52">
      <g>
       <use xlink:href="#mb923112147" x="619.188235" y="448.56" style="stroke: #000000; stroke-width: 0.6"/>
      </g>
     </g>
    </g>
    <g id="xtick_27">
     <g id="line2d_53">
      <path d="M 629.974738 448.56 
L 629.974738 60.48 
" clip-path="url(#p723c3567a3)" style="fill: none; stroke: #b0b0b0; stroke-width: 0.8; stroke-linecap: square"/>
     </g>
     <g id="line2d_54">
      <g>
       <use xlink:href="#mb923112147" x="629.974738" y="448.56" style="stroke: #000000; stroke-width: 0.6"/>
      </g>
     </g>
    </g>
    <g id="xtick_28">
     <g id="line2d_55">
      <path d="M 639.489107 448.56 
L 639.489107 60.48 
" clip-path="url(#p723c3567a3)" style="fill: none; stroke: #b0b0b0; stroke-width: 0.8; stroke-linecap: square"/>
     </g>
     <g id="line2d_56">
      <g>
       <use xlink:href="#mb923112147" x="639.489107" y="448.56" style="stroke: #000000; stroke-width: 0.6"/>
      </g>
     </g>
    </g>
    <g id="text_5">
     <!-- Period T (s) -->
     <g transform="translate(329.342812 479.875938)scale(0.14 -0.14)">
      <defs>
       <path id="DejaVuSans-50" d="M 1259 4147 
L 1259 2394 
L 2053 2394 
Q 2494 2394 2734 2622 
Q 2975 2850 2975 3272 
Q 2975 3691 2734 3919 
Q 2494 4147 2053 4147 
L 1259 4147 
z
M 628 4666 
L 2053 4666 
Q 2838 4666 3239 4311 
Q 3641 3956 3641 3272 
Q 3641 2581 3239 2228 
Q 2838 1875 2053 1875 
L 1259 1875 
L 1259 0 
L 628 0 
L 628 4666 
z
" transform="scale(0.015625)"/>
       <path id="DejaVuSans-65" d="M 3597 1894 
L 3597 1613 
L 953 1613 
Q 991 1019 1311 708 
Q 1631 397 2203 397 
Q 2534 397 2845 478 
Q 3156 559 3463 722 
L 3463 178 
Q 3153 47 2828 -22 
Q 2503 -91 2169 -91 
Q 1331 -91 842 396 
Q 353 884 353 1716 
Q 353 2575 817 3079 
Q 1281 3584 2069 3584 
Q 2775 3584 3186 3129 
Q 3597 2675 3597 1894 
z
M 3022 2063 
Q 3016 2534 2758 2815 
Q 2500 3097 2075 3097 
Q 1594 3097 1305 2825 
Q 1016 2553 972 2059 
L 3022 2063 
z
" transform="scale(0.015625)"/>
       <path id="DejaVuSans-72" d="M 2631 2963 
Q 2534 3019 2420 3045 
Q 2306 3072 2169 3072 
Q 1681 3072 1420 2755 
Q 1159 2438 1159 1844 
L 1159 0 
L 581 0 
L 581 3500 
L 1159 3500 
L 1159 2956 
Q 1341 3275 1631 3429 
Q 1922 3584 2338 3584 
Q 2397 3584 2469 3576 
Q 2541 3569 2628 3553 
L 2631 2963 
z
" transform="scale(0.015625)"/>
       <path id="DejaVuSans-69" d="M 603 3500 
L 1178 3500 
L 1178 0 
L 603 0 
L 603 3500 
z
M 603 4863 
L 1178 4863 
L 1178 4134 
L 603 4134 
L 603 4863 
z
" transform="scale(0.015625)"/>
       <path id="DejaVuSans-6f" d="M 1959 3097 
Q 1497 3097 1228 2736 
Q 959 2375 959 1747 
Q 959 1119 1226 758 
Q 1494 397 1959 397 
Q 2419 397 2687 759 
Q 2956 1122 2956 1747 
Q 2956 2369 2687 2733 
Q 2419 3097 1959 3097 
z
M 1959 3584 
Q 2709 3584 3137 3096 
Q 3566 2609 3566 1747 
Q 3566 888 3137 398 
Q 2709 -91 1959 -91 
Q 1206 -91 779 398 
Q 353 888 353 1747 
Q 353 2609 779 3096 
Q 1206 3584 1959 3584 
z
" transform="scale(0.015625)"/>
       <path id="DejaVuSans-64" d="M 2906 2969 
L 2906 4863 
L 3481 4863 
L 3481 0 
L 2906 0 
L 2906 525 
Q 2725 213 2448 61 
Q 2172 -91 1784 -91 
Q 1150 -91 751 415 
Q 353 922 353 1747 
Q 353 2572 751 3078 
Q 1150 3584 1784 3584 
Q 2172 3584 2448 3432 
Q 2725 3281 2906 2969 
z
M 947 1747 
Q 947 1113 1208 752 
Q 1469 391 1925 391 
Q 2381 391 2643 752 
Q 2906 1113 2906 1747 
Q 2906 2381 2643 2742 
Q 2381 3103 1925 3103 
Q 1469 3103 1208 2742 
Q 947 2381 947 1747 
z
" transform="scale(0.015625)"/>
       <path id="DejaVuSans-20" transform="scale(0.015625)"/>
       <path id="DejaVuSans-54" d="M -19 4666 
L 3928 4666 
L 3928 4134 
L 2272 4134 
L 2272 0 
L 1638 0 
L 1638 4134 
L -19 4134 
L -19 4666 
z
" transform="scale(0.015625)"/>
       <path id="DejaVuSans-28" d="M 1984 4856 
Q 1566 4138 1362 3434 
Q 1159 2731 1159 2009 
Q 1159 1288 1364 580 
Q 1569 -128 1984 -844 
L 1484 -844 
Q 1016 -109 783 600 
Q 550 1309 550 2009 
Q 550 2706 781 3412 
Q 1013 4119 1484 4856 
L 1984 4856 
z
" transform="scale(0.015625)"/>
       <path id="DejaVuSans-73" d="M 2834 3397 
L 2834 2853 
Q 2591 2978 2328 3040 
Q 2066 3103 1784 3103 
Q 1356 3103 1142 2972 
Q 928 2841 928 2578 
Q 928 2378 1081 2264 
Q 1234 2150 1697 2047 
L 1894 2003 
Q 2506 1872 2764 1633 
Q 3022 1394 3022 966 
Q 3022 478 2636 193 
Q 2250 -91 1575 -91 
Q 1294 -91 989 -36 
Q 684 19 347 128 
L 347 722 
Q 666 556 975 473 
Q 1284 391 1588 391 
Q 1994 391 2212 530 
Q 2431 669 2431 922 
Q 2431 1156 2273 1281 
Q 2116 1406 1581 1522 
L 1381 1569 
Q 847 1681 609 1914 
Q 372 2147 372 2553 
Q 372 3047 722 3315 
Q 1072 3584 1716 3584 
Q 2034 3584 2315 3537 
Q 2597 3491 2834 3397 
z
" transform="scale(0.015625)"/>
       <path id="DejaVuSans-29" d="M 513 4856 
L 1013 4856 
Q 1481 4119 1714 3412 
Q 1947 2706 1947 2009 
Q 1947 1309 1714 600 
Q 1481 -109 1013 -844 
L 513 -844 
Q 928 -128 1133 580 
Q 1338 1288 1338 2009 
Q 1338 2731 1133 3434 
Q 928 4138 513 4856 
z
" transform="scale(0.015625)"/>
      </defs>
      <use xlink:href="#DejaVuSans-50"/>
      <use xlink:href="#DejaVuSans-65" x="56.677734"/>
      <use xlink:href="#DejaVuSans-72" x="118.201172"/>
      <use xlink:href="#DejaVuSans-69" x="159.314453"/>
      <use xlink:href="#DejaVuSans-6f" x="187.097656"/>
      <use xlink:href="#DejaVuSans-64" x="248.279297"/>
      <use xlink:href="#DejaVuSans-20" x="311.755859"/>
      <use xlink:href="#DejaVuSans-54" x="343.542969"/>
      <use xlink:href="#DejaVuSans-20" x="404.626953"/>
      <use xlink:href="#DejaVuSans-28" x="436.414062"/>
      <use xlink:href="#DejaVuSans-73" x="475.427734"/>
      <use xlink:href="#DejaVuSans-29" x="527.527344"/>
     </g>
    </g>
   </g>
   <g id="matplotlib.axis_2">
    <g id="ytick_1">
     <g id="line2d_57">
      <path d="M 90 448.56 
L 648 448.56 
" clip-path="url(#p723c3567a3)" style="fill: none; stroke: #b0b0b0; stroke-width: 0.8; stroke-linecap: square"/>
     </g>
     <g id="line2d_58">
      <defs>
       <path id="mebd69f44ca" d="M 0 0 
L -3.5 0 
" style="stroke: #000000; stroke-width: 0.8"/>
      </defs>
      <g>
       <use xlink:href="#mebd69f44ca" x="90" y="448.56" style="stroke: #000000; stroke-width: 0.8"/>
      </g>
     </g>
     <g id="text_6">
      <!-- 0.01 -->
      <g transform="translate(60.734375 452.359219)scale(0.1 -0.1)">
       <use xlink:href="#DejaVuSans-30"/>
       <use xlink:href="#DejaVuSans-2e" x="63.623047"/>
       <use xlink:href="#DejaVuSans-30" x="95.410156"/>
       <use xlink:href="#DejaVuSans-31" x="159.033203"/>
      </g>
     </g>
    </g>
    <g id="ytick_2">
     <g id="line2d_59">
      <path d="M 90 319.2 
L 648 319.2 
" clip-path="url(#p723c3567a3)" style="fill: none; stroke: #b0b0b0; stroke-width: 0.8; stroke-linecap: square"/>
     </g>
     <g id="line2d_60">
      <g>
       <use xlink:href="#mebd69f44ca" x="90" y="319.2" style="stroke: #000000; stroke-width: 0.8"/>
      </g>
     </g>
     <g id="text_7">
      <!-- 0.1 -->
      <g transform="translate(67.096875 322.999219)scale(0.1 -0.1)">
       <use xlink:href="#DejaVuSans-30"/>
       <use xlink:href="#DejaVuSans-2e" x="63.623047"/>
       <use xlink:href="#DejaVuSans-31" x="95.410156"/>
      </g>
     </g>
    </g>
    <g id="ytick_3">
     <g id="line2d_61">
      <path d="M 90 189.84 
L 648 189.84 
" clip-path="url(#p723c3567a3)" style="fill: none; stroke: #b0b0b0; stroke-width: 0.8; stroke-linecap: square"/>
     </g>
     <g id="line2d_62">
      <g>
       <use xlink:href="#mebd69f44ca" x="90" y="189.84" style="stroke: #000000; stroke-width: 0.8"/>
      </g>
     </g>
     <g id="text_8">
      <!-- 1 -->
      <g transform="translate(76.6375 193.639219)scale(0.1 -0.1)">
       <use xlink:href="#DejaVuSans-31"/>
      </g>
     </g>
    </g>
    <g id="ytick_4">
     <g id="line2d_63">
      <path d="M 90 60.48 
L 648 60.48 
" clip-path="url(#p723c3567a3)" style="fill: none; stroke: #b0b0b0; stroke-width: 0.8; stroke-linecap: square"/>
     </g>
     <g id="line2d_64">
      <g>
       <use xlink:href="#mebd69f44ca" x="90" y="60.48" style="stroke: #000000; stroke-width: 0.8"/>
      </g>
     </g>
     <g id="text_9">
      <!-- 10 -->
      <g transform="translate(70.275 64.279219)scale(0.1 -0.1)">
       <use xlink:href="#DejaVuSans-31"/>
       <use xlink:href="#DejaVuSans-30" x="63.623047"/>
      </g>
     </g>
    </g>
    <g id="ytick_5">
     <g id="line2d_65">
      <path d="M 90 409.61876 
L 648 409.61876 
" clip-path="url(#p723c3567a3)" style="fill: none; stroke: #b0b0b0; stroke-width: 0.8; stroke-linecap: square"/>
     </g>
     <g id="line2d_66">
      <defs>
       <path id="m1a8560295f" d="M 0 0 
L -2 0 
" style="stroke: #000000; stroke-width: 0.6"/>
      </defs>
      <g>
       <use xlink:href="#m1a8560295f" x="90" y="409.61876" style="stroke: #000000; stroke-width: 0.6"/>
      </g>
     </g>
    </g>
    <g id="ytick_6">
     <g id="line2d_67">
      <path d="M 90 386.839594 
L 648 386.839594 
" clip-path="url(#p723c3567a3)" style="fill: none; stroke: #b0b0b0; stroke-width: 0.8; stroke-linecap: square"/>
     </g>
     <g id="line2d_68">
      <g>
       <use xlink:href="#m1a8560295f" x="90" y="386.839594" style="stroke: #000000; stroke-width: 0.6"/>
      </g>
     </g>
    </g>
    <g id="ytick_7">
     <g id="line2d_69">
      <path d="M 90 370.67752 
L 648 370.67752 
" clip-path="url(#p723c3567a3)" style="fill: none; stroke: #b0b0b0; stroke-width: 0.8; stroke-linecap: square"/>
     </g>
     <g id="line2d_70">
      <g>
       <use xlink:href="#m1a8560295f" x="90" y="370.67752" style="stroke: #000000; stroke-width: 0.6"/>
      </g>
     </g>
    </g>
    <g id="ytick_8">
     <g id="line2d_71">
      <path d="M 90 358.14124 
L 648 358.14124 
" clip-path="url(#p723c3567a3)" style="fill: none; stroke: #b0b0b0; stroke-width: 0.8; stroke-linecap: square"/>
     </g>
     <g id="line2d_72">
      <g>
       <use xlink:href="#m1a8560295f" x="90" y="358.14124" style="stroke: #000000; stroke-width: 0.6"/>
      </g>
     </g>
    </g>
    <g id="ytick_9">
     <g id="line2d_73">
      <path d="M 90 347.898354 
L 648 347.898354 
" clip-path="url(#p723c3567a3)" style="fill: none; stroke: #b0b0b0; stroke-width: 0.8; stroke-linecap: square"/>
     </g>
     <g id="line2d_74">
      <g>
       <use xlink:href="#m1a8560295f" x="90" y="347.898354" style="stroke: #000000; stroke-width: 0.6"/>
      </g>
     </g>
    </g>
    <g id="ytick_10">
     <g id="line2d_75">
      <path d="M 90 339.238118 
L 648 339.238118 
" clip-path="url(#p723c3567a3)" style="fill: none; stroke: #b0b0b0; stroke-width: 0.8; stroke-linecap: square"/>
     </g>
     <g id="line2d_76">
      <g>
       <use xlink:href="#m1a8560295f" x="90" y="339.238118" style="stroke: #000000; stroke-width: 0.6"/>
      </g>
     </g>
    </g>
    <g id="ytick_11">
     <g id="line2d_77">
      <path d="M 90 331.736279 
L 648 331.736279 
" clip-path="url(#p723c3567a3)" style="fill: none; stroke: #b0b0b0; stroke-width: 0.8; stroke-linecap: square"/>
     </g>
     <g id="line2d_78">
      <g>
       <use xlink:href="#m1a8560295f" x="90" y="331.736279" style="stroke: #000000; stroke-width: 0.6"/>
      </g>
     </g>
    </g>
    <g id="ytick_12">
     <g id="line2d_79">
      <path d="M 90 325.119189 
L 648 325.119189 
" clip-path="url(#p723c3567a3)" style="fill: none; stroke: #b0b0b0; stroke-width: 0.8; stroke-linecap: square"/>
     </g>
     <g id="line2d_80">
      <g>
       <use xlink:href="#m1a8560295f" x="90" y="325.119189" style="stroke: #000000; stroke-width: 0.6"/>
      </g>
     </g>
    </g>
    <g id="ytick_13">
     <g id="line2d_81">
      <path d="M 90 280.25876 
L 648 280.25876 
" clip-path="url(#p723c3567a3)" style="fill: none; stroke: #b0b0b0; stroke-width: 0.8; stroke-linecap: square"/>
     </g>
     <g id="line2d_82">
      <g>
       <use xlink:href="#m1a8560295f" x="90" y="280.25876" style="stroke: #000000; stroke-width: 0.6"/>
      </g>
     </g>
    </g>
    <g id="ytick_14">
     <g id="line2d_83">
      <path d="M 90 257.479594 
L 648 257.479594 
" clip-path="url(#p723c3567a3)" style="fill: none; stroke: #b0b0b0; stroke-width: 0.8; stroke-linecap: square"/>
     </g>
     <g id="line2d_84">
      <g>
       <use xlink:href="#m1a8560295f" x="90" y="257.479594" style="stroke: #000000; stroke-width: 0.6"/>
      </g>
     </g>
    </g>
    <g id="ytick_15">
     <g id="line2d_85">
      <path d="M 90 241.31752 
L 648 241.31752 
" clip-path="url(#p723c3567a3)" style="fill: none; stroke: #b0b0b0; stroke-width: 0.8; stroke-linecap: square"/>
     </g>
     <g id="line2d_86">
      <g>
       <use xlink:href="#m1a8560295f" x="90" y="241.31752" style="stroke: #000000; stroke-width: 0.6"/>
      </g>
     </g>
    </g>
    <g id="ytick_16">
     <g id="line2d_87">
      <path d="M 90 228.78124 
L 648 228.78124 
" clip-path="url(#p723c3567a3)" style="fill: none; stroke: #b0b0b0; stroke-width: 0.8; stroke-linecap: square"/>
     </g>
     <g id="line2d_88">
      <g>
       <use xlink:href="#m1a8560295f" x="90" y="228.78124" style="stroke: #000000; stroke-width: 0.6"/>
      </g>
     </g>
    </g>
    <g id="ytick_17">
     <g id="line2d_89">
      <path d="M 90 218.538354 
L 648 218.538354 
" clip-path="url(#p723c3567a3)" style="fill: none; stroke: #b0b0b0; stroke-width: 0.8; stroke-linecap: square"/>
     </g>
     <g id="line2d_90">
      <g>
       <use xlink:href="#m1a8560295f" x="90" y="218.538354" style="stroke: #000000; stroke-width: 0.6"/>
      </g>
     </g>
    </g>
    <g id="ytick_18">
     <g id="line2d_91">
      <path d="M 90 209.878118 
L 648 209.878118 
" clip-path="url(#p723c3567a3)" style="fill: none; stroke: #b0b0b0; stroke-width: 0.8; stroke-linecap: square"/>
     </g>
     <g id="line2d_92">
      <g>
       <use xlink:href="#m1a8560295f" x="90" y="209.878118" style="stroke: #000000; stroke-width: 0.6"/>
      </g>
     </g>
    </g>
    <g id="ytick_19">
     <g id="line2d_93">
      <path d="M 90 202.376279 
L 648 202.376279 
" clip-path="url(#p723c3567a3)" style="fill: none; stroke: #b0b0b0; stroke-width: 0.8; stroke-linecap: square"/>
     </g>
     <g id="line2d_94">
      <g>
       <use xlink:href="#m1a8560295f" x="90" y="202.376279" style="stroke: #000000; stroke-width: 0.6"/>
      </g>
     </g>
    </g>
    <g id="ytick_20">
     <g id="line2d_95">
      <path d="M 90 195.759189 
L 648 195.759189 
" clip-path="url(#p723c3567a3)" style="fill: none; stroke: #b0b0b0; stroke-width: 0.8; stroke-linecap: square"/>
     </g>
     <g id="line2d_96">
      <g>
       <use xlink:href="#m1a8560295f" x="90" y="195.759189" style="stroke: #000000; stroke-width: 0.6"/>
      </g>
     </g>
    </g>
    <g id="ytick_21">
     <g id="line2d_97">
      <path d="M 90 150.89876 
L 648 150.89876 
" clip-path="url(#p723c3567a3)" style="fill: none; stroke: #b0b0b0; stroke-width: 0.8; stroke-linecap: square"/>
     </g>
     <g id="line2d_98">
      <g>
       <use xlink:href="#m1a8560295f" x="90" y="150.89876" style="stroke: #000000; stroke-width: 0.6"/>
      </g>
     </g>
    </g>
    <g id="ytick_22">
     <g id="line2d_99">
      <path d="M 90 128.119594 
L 648 128.119594 
" clip-path="url(#p723c3567a3)" style="fill: none; stroke: #b0b0b0; stroke-width: 0.8; stroke-linecap: square"/>
     </g>
     <g id="line2d_100">
      <g>
       <use xlink:href="#m1a8560295f" x="90" y="128.119594" style="stroke: #000000; stroke-width: 0.6"/>
      </g>
     </g>
    </g>
    <g id="ytick_23">
     <g id="line2d_101">
      <path d="M 90 111.95752 
L 648 111.95752 
" clip-path="url(#p723c3567a3)" style="fill: none; stroke: #b0b0b0; stroke-width: 0.8; stroke-linecap: square"/>
     </g>
     <g id="line2d_102">
      <g>
       <use xlink:href="#m1a8560295f" x="90" y="111.95752" style="stroke: #000000; stroke-width: 0.6"/>
      </g>
     </g>
    </g>
    <g id="ytick_24">
     <g id="line2d_103">
      <path d="M 90 99.42124 
L 648 99.42124 
" clip-path="url(#p723c3567a3)" style="fill: none; stroke: #b0b0b0; stroke-width: 0.8; stroke-linecap: square"/>
     </g>
     <g id="line2d_104">
      <g>
       <use xlink:href="#m1a8560295f" x="90" y="99.42124" style="stroke: #000000; stroke-width: 0.6"/>
      </g>
     </g>
    </g>
    <g id="ytick_25">
     <g id="line2d_105">
      <path d="M 90 89.178354 
L 648 89.178354 
" clip-path="url(#p723c3567a3)" style="fill: none; stroke: #b0b0b0; stroke-width: 0.8; stroke-linecap: square"/>
     </g>
     <g id="line2d_106">
      <g>
       <use xlink:href="#m1a8560295f" x="90" y="89.178354" style="stroke: #000000; stroke-width: 0.6"/>
      </g>
     </g>
    </g>
    <g id="ytick_26">
     <g id="line2d_107">
      <path d="M 90 80.518118 
L 648 80.518118 
" clip-path="url(#p723c3567a3)" style="fill: none; stroke: #b0b0b0; stroke-width: 0.8; stroke-linecap: square"/>
     </g>
     <g id="line2d_108">
      <g>
       <use xlink:href="#m1a8560295f" x="90" y="80.518118" style="stroke: #000000; stroke-width: 0.6"/>
      </g>
     </g>
    </g>
    <g id="ytick_27">
     <g id="line2d_109">
      <path d="M 90 73.016279 
L 648 73.016279 
" clip-path="url(#p723c3567a3)" style="fill: none; stroke: #b0b0b0; stroke-width: 0.8; stroke-linecap: square"/>
     </g>
     <g id="line2d_110">
      <g>
       <use xlink:href="#m1a8560295f" x="90" y="73.016279" style="stroke: #000000; stroke-width: 0.6"/>
      </g>
     </g>
    </g>
    <g id="ytick_28">
     <g id="line2d_111">
      <path d="M 90 66.399189 
L 648 66.399189 
" clip-path="url(#p723c3567a3)" style="fill: none; stroke: #b0b0b0; stroke-width: 0.8; stroke-linecap: square"/>
     </g>
     <g id="line2d_112">
      <g>
       <use xlink:href="#m1a8560295f" x="90" y="66.399189" style="stroke: #000000; stroke-width: 0.6"/>
      </g>
     </g>
    </g>
    <g id="text_10">
     <!-- Spectral Acceleration $S_a$ (g) -->
     <g transform="translate(53.794375 351.26)rotate(-90)scale(0.14 -0.14)">
      <defs>
       <path id="DejaVuSans-53" d="M 3425 4513 
L 3425 3897 
Q 3066 4069 2747 4153 
Q 2428 4238 2131 4238 
Q 1616 4238 1336 4038 
Q 1056 3838 1056 3469 
Q 1056 3159 1242 3001 
Q 1428 2844 1947 2747 
L 2328 2669 
Q 3034 2534 3370 2195 
Q 3706 1856 3706 1288 
Q 3706 609 3251 259 
Q 2797 -91 1919 -91 
Q 1588 -91 1214 -16 
Q 841 59 441 206 
L 441 856 
Q 825 641 1194 531 
Q 1563 422 1919 422 
Q 2459 422 2753 634 
Q 3047 847 3047 1241 
Q 3047 1584 2836 1778 
Q 2625 1972 2144 2069 
L 1759 2144 
Q 1053 2284 737 2584 
Q 422 2884 422 3419 
Q 422 4038 858 4394 
Q 1294 4750 2059 4750 
Q 2388 4750 2728 4690 
Q 3069 4631 3425 4513 
z
" transform="scale(0.015625)"/>
       <path id="DejaVuSans-70" d="M 1159 525 
L 1159 -1331 
L 581 -1331 
L 581 3500 
L 1159 3500 
L 1159 2969 
Q 1341 3281 1617 3432 
Q 1894 3584 2278 3584 
Q 2916 3584 3314 3078 
Q 3713 2572 3713 1747 
Q 3713 922 3314 415 
Q 2916 -91 2278 -91 
Q 1894 -91 1617 61 
Q 1341 213 1159 525 
z
M 3116 1747 
Q 3116 2381 2855 2742 
Q 2594 3103 2138 3103 
Q 1681 3103 1420 2742 
Q 1159 2381 1159 1747 
Q 1159 1113 1420 752 
Q 1681 391 2138 391 
Q 2594 391 2855 752 
Q 3116 1113 3116 1747 
z
" transform="scale(0.015625)"/>
       <path id="DejaVuSans-63" d="M 3122 3366 
L 3122 2828 
Q 2878 2963 2633 3030 
Q 2388 3097 2138 3097 
Q 1578 3097 1268 2742 
Q 959 2388 959 1747 
Q 959 1106 1268 751 
Q 1578 397 2138 397 
Q 2388 397 2633 464 
Q 2878 531 3122 666 
L 3122 134 
Q 2881 22 2623 -34 
Q 2366 -91 2075 -91 
Q 1284 -91 818 406 
Q 353 903 353 1747 
Q 353 2603 823 3093 
Q 1294 3584 2113 3584 
Q 2378 3584 2631 3529 
Q 2884 3475 3122 3366 
z
" transform="scale(0.015625)"/>
       <path id="DejaVuSans-74" d="M 1172 4494 
L 1172 3500 
L 2356 3500 
L 2356 3053 
L 1172 3053 
L 1172 1153 
Q 1172 725 1289 603 
Q 1406 481 1766 481 
L 2356 481 
L 2356 0 
L 1766 0 
Q 1100 0 847 248 
Q 594 497 594 1153 
L 594 3053 
L 172 3053 
L 172 3500 
L 594 3500 
L 594 4494 
L 1172 4494 
z
" transform="scale(0.015625)"/>
       <path id="DejaVuSans-61" d="M 2194 1759 
Q 1497 1759 1228 1600 
Q 959 1441 959 1056 
Q 959 750 1161 570 
Q 1363 391 1709 391 
Q 2188 391 2477 730 
Q 2766 1069 2766 1631 
L 2766 1759 
L 2194 1759 
z
M 3341 1997 
L 3341 0 
L 2766 0 
L 2766 531 
Q 2569 213 2275 61 
Q 1981 -91 1556 -91 
Q 1019 -91 701 211 
Q 384 513 384 1019 
Q 384 1609 779 1909 
Q 1175 2209 1959 2209 
L 2766 2209 
L 2766 2266 
Q 2766 2663 2505 2880 
Q 2244 3097 1772 3097 
Q 1472 3097 1187 3025 
Q 903 2953 641 2809 
L 641 3341 
Q 956 3463 1253 3523 
Q 1550 3584 1831 3584 
Q 2591 3584 2966 3190 
Q 3341 2797 3341 1997 
z
" transform="scale(0.015625)"/>
       <path id="DejaVuSans-6c" d="M 603 4863 
L 1178 4863 
L 1178 0 
L 603 0 
L 603 4863 
z
" transform="scale(0.015625)"/>
       <path id="DejaVuSans-41" d="M 2188 4044 
L 1331 1722 
L 3047 1722 
L 2188 4044 
z
M 1831 4666 
L 2547 4666 
L 4325 0 
L 3669 0 
L 3244 1197 
L 1141 1197 
L 716 0 
L 50 0 
L 1831 4666 
z
" transform="scale(0.015625)"/>
       <path id="DejaVuSans-6e" d="M 3513 2113 
L 3513 0 
L 2938 0 
L 2938 2094 
Q 2938 2591 2744 2837 
Q 2550 3084 2163 3084 
Q 1697 3084 1428 2787 
Q 1159 2491 1159 1978 
L 1159 0 
L 581 0 
L 581 3500 
L 1159 3500 
L 1159 2956 
Q 1366 3272 1645 3428 
Q 1925 3584 2291 3584 
Q 2894 3584 3203 3211 
Q 3513 2838 3513 2113 
z
" transform="scale(0.015625)"/>
       <path id="DejaVuSans-Oblique-53" d="M 3859 4513 
L 3738 3897 
Q 3422 4066 3111 4152 
Q 2800 4238 2509 4238 
Q 1944 4238 1609 3991 
Q 1275 3744 1275 3334 
Q 1275 3109 1398 2989 
Q 1522 2869 2034 2731 
L 2413 2638 
Q 3053 2472 3303 2217 
Q 3553 1963 3553 1503 
Q 3553 797 2998 353 
Q 2444 -91 1538 -91 
Q 1166 -91 791 -17 
Q 416 56 38 206 
L 166 856 
Q 513 641 861 531 
Q 1209 422 1556 422 
Q 2147 422 2503 684 
Q 2859 947 2859 1369 
Q 2859 1650 2717 1795 
Q 2575 1941 2106 2059 
L 1728 2156 
Q 1081 2325 845 2545 
Q 609 2766 609 3163 
Q 609 3859 1145 4304 
Q 1681 4750 2541 4750 
Q 2875 4750 3203 4690 
Q 3531 4631 3859 4513 
z
" transform="scale(0.015625)"/>
       <path id="DejaVuSans-Oblique-61" d="M 3438 1997 
L 3047 0 
L 2472 0 
L 2578 531 
Q 2325 219 2001 64 
Q 1678 -91 1281 -91 
Q 834 -91 548 182 
Q 263 456 263 884 
Q 263 1497 752 1853 
Q 1241 2209 2100 2209 
L 2900 2209 
L 2931 2363 
Q 2938 2388 2941 2417 
Q 2944 2447 2944 2509 
Q 2944 2788 2717 2942 
Q 2491 3097 2081 3097 
Q 1800 3097 1504 3025 
Q 1209 2953 897 2809 
L 997 3341 
Q 1322 3463 1633 3523 
Q 1944 3584 2234 3584 
Q 2853 3584 3176 3315 
Q 3500 3047 3500 2534 
Q 3500 2431 3484 2292 
Q 3469 2153 3438 1997 
z
M 2816 1759 
L 2241 1759 
Q 1534 1759 1195 1570 
Q 856 1381 856 984 
Q 856 709 1029 553 
Q 1203 397 1509 397 
Q 1978 397 2328 733 
Q 2678 1069 2791 1631 
L 2816 1759 
z
" transform="scale(0.015625)"/>
       <path id="DejaVuSans-67" d="M 2906 1791 
Q 2906 2416 2648 2759 
Q 2391 3103 1925 3103 
Q 1463 3103 1205 2759 
Q 947 2416 947 1791 
Q 947 1169 1205 825 
Q 1463 481 1925 481 
Q 2391 481 2648 825 
Q 2906 1169 2906 1791 
z
M 3481 434 
Q 3481 -459 3084 -895 
Q 2688 -1331 1869 -1331 
Q 1566 -1331 1297 -1286 
Q 1028 -1241 775 -1147 
L 775 -588 
Q 1028 -725 1275 -790 
Q 1522 -856 1778 -856 
Q 2344 -856 2625 -561 
Q 2906 -266 2906 331 
L 2906 616 
Q 2728 306 2450 153 
Q 2172 0 1784 0 
Q 1141 0 747 490 
Q 353 981 353 1791 
Q 353 2603 747 3093 
Q 1141 3584 1784 3584 
Q 2172 3584 2450 3431 
Q 2728 3278 2906 2969 
L 2906 3500 
L 3481 3500 
L 3481 434 
z
" transform="scale(0.015625)"/>
      </defs>
      <use xlink:href="#DejaVuSans-53" transform="translate(0 0.015625)"/>
      <use xlink:href="#DejaVuSans-70" transform="translate(63.476562 0.015625)"/>
      <use xlink:href="#DejaVuSans-65" transform="translate(126.953125 0.015625)"/>
      <use xlink:href="#DejaVuSans-63" transform="translate(188.476562 0.015625)"/>
      <use xlink:href="#DejaVuSans-74" transform="translate(243.457031 0.015625)"/>
      <use xlink:href="#DejaVuSans-72" transform="translate(282.666016 0.015625)"/>
      <use xlink:href="#DejaVuSans-61" transform="translate(323.779297 0.015625)"/>
      <use xlink:href="#DejaVuSans-6c" transform="translate(385.058594 0.015625)"/>
      <use xlink:href="#DejaVuSans-20" transform="translate(412.841797 0.015625)"/>
      <use xlink:href="#DejaVuSans-41" transform="translate(444.628906 0.015625)"/>
      <use xlink:href="#DejaVuSans-63" transform="translate(513.037109 0.015625)"/>
      <use xlink:href="#DejaVuSans-63" transform="translate(568.017578 0.015625)"/>
      <use xlink:href="#DejaVuSans-65" transform="translate(622.998047 0.015625)"/>
      <use xlink:href="#DejaVuSans-6c" transform="translate(684.521484 0.015625)"/>
      <use xlink:href="#DejaVuSans-65" transform="translate(712.304688 0.015625)"/>
      <use xlink:href="#DejaVuSans-72" transform="translate(773.828125 0.015625)"/>
      <use xlink:href="#DejaVuSans-61" transform="translate(814.941406 0.015625)"/>
      <use xlink:href="#DejaVuSans-74" transform="translate(876.220703 0.015625)"/>
      <use xlink:href="#DejaVuSans-69" transform="translate(915.429688 0.015625)"/>
      <use xlink:href="#DejaVuSans-6f" transform="translate(943.212891 0.015625)"/>
      <use xlink:href="#DejaVuSans-6e" transform="translate(1004.394531 0.015625)"/>
      <use xlink:href="#DejaVuSans-20" transform="translate(1067.773438 0.015625)"/>
      <use xlink:href="#DejaVuSans-Oblique-53" transform="translate(1099.560547 0.015625)"/>
      <use xlink:href="#DejaVuSans-Oblique-61" transform="translate(1163.037109 -16.390625)scale(0.7)"/>
      <use xlink:href="#DejaVuSans-20" transform="translate(1208.666992 0.015625)"/>
      <use xlink:href="#DejaVuSans-28" transform="translate(1240.454102 0.015625)"/>
      <use xlink:href="#DejaVuSans-67" transform="translate(1279.467773 0.015625)"/>
      <use xlink:href="#DejaVuSans-29" transform="translate(1342.944336 0.015625)"/>
     </g>
    </g>
   </g>
   <g id="line2d_113">
    <path d="M -1 225.270898 
L 176.006028 225.253846 
L 231.997607 211.705281 
L 264.750581 200.797532 
L 287.989186 191.667164 
L 418.275675 191.667164 
L 438.761395 197.515463 
L 446.460434 199.461609 
L 451.48998 198.805374 
L 456.484519 198.877912 
L 461.513867 198.805374 
L 466.477948 200.274225 
L 471.514369 206.152089 
L 476.525512 213.183796 
L 481.561514 217.665019 
L 486.600302 220.792747 
L 491.623538 222.42443 
L 496.616159 225.720076 
L 501.664882 231.250472 
L 506.649258 239.738772 
L 517.991579 248.85147 
L 536.016842 261.255405 
L 550.744553 271.366257 
L 573.983158 287.090447 
L 592.008421 299.10573 
L 624.761395 321.027164 
L 648 337.189239 
" clip-path="url(#p723c3567a3)" style="fill: none; stroke: #ff0000; stroke-width: 3; stroke-linecap: square"/>
   </g>
   <g id="line2d_114">
    <path d="M 90 239.693532 
L 94.689076 239.821007 
L 99.378151 240.163242 
L 104.067227 240.296347 
L 108.756303 240.164228 
L 113.445378 239.964523 
L 118.134454 239.829464 
L 122.823529 239.820743 
L 127.512605 239.783494 
L 132.201681 239.690433 
L 136.890756 239.663246 
L 141.579832 239.716467 
L 146.268908 239.622426 
L 150.957983 239.531528 
L 155.647059 239.65893 
L 160.336134 239.601333 
L 165.02521 239.459307 
L 169.714286 239.392791 
L 174.403361 239.336982 
L 179.092437 239.17989 
L 183.781513 239.045582 
L 188.470588 239.257586 
L 193.159664 238.724601 
L 197.848739 237.90026 
L 202.537815 237.9521 
L 207.226891 236.754484 
L 211.915966 236.018568 
L 216.605042 235.773847 
L 221.294118 234.697807 
L 225.983193 233.986026 
L 230.672269 234.149852 
L 235.361345 232.626025 
L 240.05042 230.881081 
L 244.739496 229.557527 
L 249.428571 228.824199 
L 254.117647 226.544357 
L 258.806723 223.475922 
L 263.495798 219.889599 
L 268.184874 218.639079 
L 272.87395 216.655295 
L 277.563025 213.492806 
L 282.252101 211.592737 
L 286.941176 209.176182 
L 291.630252 207.07666 
L 296.319328 205.310275 
L 301.008403 201.48762 
L 305.697479 202.316049 
L 310.386555 202.375079 
L 315.07563 196.463 
L 319.764706 194.12544 
L 324.453782 194.405654 
L 329.142857 194.327181 
L 333.831933 193.625967 
L 338.521008 189.669407 
L 343.210084 188.315092 
L 347.89916 191.589615 
L 352.588235 190.492922 
L 357.277311 190.453398 
L 361.966387 191.221165 
L 366.655462 191.053293 
L 371.344538 191.030116 
L 376.033613 192.141258 
L 380.722689 189.236202 
L 385.411765 186.500304 
L 390.10084 185.525066 
L 394.789916 183.579807 
L 399.478992 181.611106 
L 404.168067 185.380316 
L 408.857143 185.290927 
L 413.546218 184.397265 
L 418.235294 184.107829 
L 422.92437 185.817934 
L 427.613445 184.101832 
L 432.302521 185.017153 
L 436.991597 189.319826 
L 441.680672 193.603416 
L 446.369748 191.883977 
L 451.058824 194.958841 
L 455.747899 196.946222 
L 460.436975 196.793292 
L 465.12605 195.795136 
L 469.815126 195.066303 
L 474.504202 197.807206 
L 479.193277 205.081988 
L 483.882353 212.353537 
L 488.571429 215.402645 
L 493.260504 216.699681 
L 497.94958 222.457019 
L 502.638655 230.162605 
L 507.327731 234.58918 
L 512.016807 237.453877 
L 516.705882 240.878772 
L 521.394958 246.991118 
L 526.084034 249.873028 
L 530.773109 252.41853 
L 535.462185 257.364459 
L 540.151261 262.259257 
L 544.840336 264.948563 
L 549.529412 270.719293 
L 554.218487 273.174312 
L 558.907563 277.398217 
L 563.596639 280.433062 
L 568.285714 282.16356 
L 572.97479 284.563092 
L 577.663866 286.829506 
L 582.352941 289.017156 
L 587.042017 288.696141 
L 591.731092 291.494719 
L 596.420168 293.943534 
L 601.109244 300.328637 
L 605.798319 306.100618 
L 610.487395 308.398683 
L 615.176471 313.053227 
L 619.865546 320.83413 
L 624.554622 327.705147 
L 629.243697 331.938272 
L 633.932773 339.491798 
L 638.621849 348.421703 
L 643.310924 358.778611 
L 648 367.651038 
" clip-path="url(#p723c3567a3)" style="fill: none; stroke: #000000; stroke-width: 3; stroke-linecap: square"/>
   </g>
   <g id="line2d_115">
    <path d="M 90 238.21002 
L 94.689076 238.32322 
L 99.378151 238.317585 
L 104.067227 238.298971 
L 108.756303 238.301378 
L 113.445378 238.292825 
L 118.134454 238.277192 
L 122.823529 238.260082 
L 127.512605 238.242171 
L 132.201681 238.226077 
L 136.890756 238.211046 
L 141.579832 238.195345 
L 146.268908 238.183753 
L 150.957983 238.170916 
L 155.647059 238.151752 
L 160.336134 238.132462 
L 165.02521 238.11116 
L 169.714286 238.085905 
L 174.403361 238.056252 
L 179.092437 238.023334 
L 183.781513 237.990555 
L 188.470588 237.953904 
L 193.159664 237.916734 
L 197.848739 237.876986 
L 202.537815 237.822865 
L 207.226891 237.739663 
L 211.915966 237.64071 
L 216.605042 237.535167 
L 221.294118 236.358201 
L 225.983193 234.765627 
L 230.672269 232.700272 
L 235.361345 228.966025 
L 240.05042 227.093183 
L 244.739496 226.022566 
L 249.428571 224.187508 
L 254.117647 217.661915 
L 258.806723 212.191431 
L 263.495798 210.958686 
L 268.184874 209.6778 
L 272.87395 199.816187 
L 277.563025 196.527493 
L 282.252101 202.255206 
L 286.941176 195.28817 
L 291.630252 188.826161 
L 296.319328 180.34147 
L 301.008403 179.682643 
L 305.697479 183.738973 
L 310.386555 179.559184 
L 315.07563 185.514725 
L 319.764706 180.931372 
L 324.453782 184.62823 
L 329.142857 186.91593 
L 333.831933 181.635575 
L 338.521008 179.885413 
L 343.210084 183.819677 
L 347.89916 180.037354 
L 352.588235 179.597925 
L 357.277311 181.893173 
L 361.966387 184.608991 
L 366.655462 186.954081 
L 371.344538 190.018165 
L 376.033613 195.328001 
L 380.722689 186.781608 
L 385.411765 183.194786 
L 390.10084 169.59867 
L 394.789916 170.841221 
L 399.478992 170.456567 
L 404.168067 176.28011 
L 408.857143 183.595981 
L 413.546218 186.179969 
L 418.235294 185.293297 
L 422.92437 181.699365 
L 427.613445 186.34181 
L 432.302521 184.439887 
L 436.991597 188.489518 
L 441.680672 189.960535 
L 446.369748 189.440351 
L 451.058824 190.892265 
L 455.747899 198.71165 
L 460.436975 194.708644 
L 465.12605 189.957007 
L 469.815126 198.498886 
L 474.504202 201.911541 
L 479.193277 211.816332 
L 483.882353 214.436868 
L 488.571429 205.93883 
L 493.260504 213.463988 
L 497.94958 222.10764 
L 502.638655 238.771653 
L 507.327731 245.58478 
L 512.016807 231.527281 
L 516.705882 225.783445 
L 521.394958 236.395619 
L 526.084034 239.087731 
L 530.773109 245.035703 
L 535.462185 254.392364 
L 540.151261 260.554703 
L 544.840336 265.819953 
L 549.529412 271.275402 
L 554.218487 272.846075 
L 558.907563 284.445483 
L 563.596639 293.082349 
L 568.285714 291.393859 
L 572.97479 291.360671 
L 577.663866 288.628778 
L 582.352941 288.197717 
L 587.042017 290.517372 
L 591.731092 287.599755 
L 596.420168 288.917982 
L 601.109244 302.724082 
L 605.798319 313.31965 
L 610.487395 314.831541 
L 615.176471 317.68473 
L 619.865546 324.26409 
L 624.554622 338.037094 
L 629.243697 349.341714 
L 633.932773 362.426017 
L 638.621849 376.978505 
L 643.310924 390.460246 
L 648 399.624925 
" clip-path="url(#p723c3567a3)" style="fill: none; stroke-dasharray: 3.7,1.6; stroke-dashoffset: 0; stroke: #1f77b4"/>
   </g>
   <g id="line2d_116">
    <path d="M 90 245.296081 
L 94.689076 245.486893 
L 99.378151 245.916783 
L 104.067227 245.751749 
L 108.756303 245.673183 
L 113.445378 245.628954 
L 118.134454 245.576372 
L 122.823529 245.495075 
L 127.512605 245.456369 
L 132.201681 245.422842 
L 136.890756 245.345654 
L 141.579832 245.295415 
L 146.268908 245.219676 
L 150.957983 245.141288 
L 155.647059 245.087534 
L 160.336134 244.984975 
L 165.02521 244.865277 
L 169.714286 244.867088 
L 174.403361 244.809828 
L 179.092437 244.712881 
L 183.781513 244.490818 
L 188.470588 244.329352 
L 193.159664 244.215109 
L 197.848739 244.239675 
L 202.537815 244.059319 
L 207.226891 243.291423 
L 211.915966 243.442194 
L 216.605042 243.318909 
L 221.294118 243.025899 
L 225.983193 244.125987 
L 230.672269 243.986791 
L 235.361345 241.421986 
L 240.05042 239.188822 
L 244.739496 240.189191 
L 249.428571 238.925731 
L 254.117647 233.995031 
L 258.806723 231.216857 
L 263.495798 229.100743 
L 268.184874 225.832262 
L 272.87395 222.670371 
L 277.563025 220.18731 
L 282.252101 214.8499 
L 286.941176 209.780532 
L 291.630252 212.064347 
L 296.319328 217.749887 
L 301.008403 206.140727 
L 305.697479 202.35236 
L 310.386555 207.35595 
L 315.07563 189.35198 
L 319.764706 189.890077 
L 324.453782 188.402479 
L 329.142857 188.867171 
L 333.831933 188.622606 
L 338.521008 183.299281 
L 343.210084 182.623179 
L 347.89916 194.051469 
L 352.588235 198.323434 
L 357.277311 196.115768 
L 361.966387 191.655283 
L 366.655462 186.740556 
L 371.344538 189.941014 
L 376.033613 196.601776 
L 380.722689 188.692108 
L 385.411765 187.486915 
L 390.10084 187.571179 
L 394.789916 182.338706 
L 399.478992 180.829983 
L 404.168067 182.731365 
L 408.857143 183.592076 
L 413.546218 185.88924 
L 418.235294 186.838937 
L 422.92437 192.531094 
L 427.613445 177.635805 
L 432.302521 179.561735 
L 436.991597 188.839019 
L 441.680672 199.946631 
L 446.369748 196.836991 
L 451.058824 194.778433 
L 455.747899 198.329173 
L 460.436975 198.738632 
L 465.12605 199.958951 
L 469.815126 203.972251 
L 474.504202 209.930595 
L 479.193277 214.613213 
L 483.882353 218.163186 
L 488.571429 222.660913 
L 493.260504 217.83093 
L 497.94958 218.520322 
L 502.638655 221.442226 
L 507.327731 231.034607 
L 512.016807 238.553806 
L 516.705882 242.457125 
L 521.394958 248.771089 
L 526.084034 251.78256 
L 530.773109 255.934285 
L 535.462185 258.699402 
L 540.151261 259.905894 
L 544.840336 272.559271 
L 549.529412 276.275801 
L 554.218487 281.575249 
L 558.907563 277.872153 
L 563.596639 277.728572 
L 568.285714 281.254216 
L 572.97479 284.122858 
L 577.663866 275.22106 
L 582.352941 266.690385 
L 587.042017 278.280328 
L 591.731092 298.498595 
L 596.420168 302.945865 
L 601.109244 310.989231 
L 605.798319 315.924593 
L 610.487395 320.973005 
L 615.176471 324.552916 
L 619.865546 331.680454 
L 624.554622 338.665172 
L 629.243697 342.956146 
L 633.932773 346.122384 
L 638.621849 350.137252 
L 643.310924 358.691007 
L 648 365.060441 
" clip-path="url(#p723c3567a3)" style="fill: none; stroke-dasharray: 3.7,1.6; stroke-dashoffset: 0; stroke: #ff7f0e"/>
   </g>
   <g id="line2d_117">
    <path d="M 90 240.683795 
L 94.689076 240.932124 
L 99.378151 241.10432 
L 104.067227 241.134633 
L 108.756303 241.084951 
L 113.445378 241.086984 
L 118.134454 240.89143 
L 122.823529 240.79428 
L 127.512605 240.747802 
L 132.201681 240.721891 
L 136.890756 240.570586 
L 141.579832 240.741416 
L 146.268908 240.570236 
L 150.957983 240.412168 
L 155.647059 240.769413 
L 160.336134 240.259751 
L 165.02521 240.450614 
L 169.714286 240.444357 
L 174.403361 240.235325 
L 179.092437 240.11699 
L 183.781513 240.151322 
L 188.470588 240.010638 
L 193.159664 239.543802 
L 197.848739 239.442899 
L 202.537815 237.878372 
L 207.226891 238.601594 
L 211.915966 238.02223 
L 216.605042 239.441204 
L 221.294118 239.111032 
L 225.983193 238.692428 
L 230.672269 239.863691 
L 235.361345 236.522352 
L 240.05042 233.025797 
L 244.739496 232.753334 
L 249.428571 236.995438 
L 254.117647 236.830918 
L 258.806723 239.07219 
L 263.495798 234.895745 
L 268.184874 232.632647 
L 272.87395 227.768074 
L 277.563025 226.444762 
L 282.252101 223.945865 
L 286.941176 223.501868 
L 291.630252 221.357295 
L 296.319328 219.448381 
L 301.008403 216.129277 
L 305.697479 213.624939 
L 310.386555 215.387241 
L 315.07563 205.553707 
L 319.764706 205.080487 
L 324.453782 209.293711 
L 329.142857 204.158835 
L 333.831933 208.399146 
L 338.521008 201.40894 
L 343.210084 199.221134 
L 347.89916 200.334806 
L 352.588235 198.504218 
L 357.277311 193.527748 
L 361.966387 196.156844 
L 366.655462 194.422491 
L 371.344538 185.597309 
L 376.033613 186.501633 
L 380.722689 193.02332 
L 385.411765 189.989967 
L 390.10084 192.174784 
L 394.789916 186.77345 
L 399.478992 186.133848 
L 404.168067 187.074462 
L 408.857143 185.761978 
L 413.546218 181.493968 
L 418.235294 182.174142 
L 422.92437 189.873956 
L 427.613445 184.787036 
L 432.302521 184.314576 
L 436.991597 187.709414 
L 441.680672 197.929188 
L 446.369748 197.25518 
L 451.058824 196.205888 
L 455.747899 196.845748 
L 460.436975 197.962763 
L 465.12605 198.151687 
L 469.815126 196.072898 
L 474.504202 197.456573 
L 479.193277 199.080169 
L 483.882353 199.635914 
L 488.571429 206.717421 
L 493.260504 215.511496 
L 497.94958 224.111751 
L 502.638655 228.579247 
L 507.327731 232.3913 
L 512.016807 234.793414 
L 516.705882 242.548815 
L 521.394958 249.242313 
L 526.084034 248.547203 
L 530.773109 251.819342 
L 535.462185 256.794146 
L 540.151261 263.247968 
L 544.840336 262.798103 
L 549.529412 272.771645 
L 554.218487 268.878216 
L 558.907563 273.865866 
L 563.596639 281.751636 
L 568.285714 287.388378 
L 572.97479 285.453966 
L 577.663866 296.785152 
L 582.352941 304.468731 
L 587.042017 304.889586 
L 591.731092 297.781154 
L 596.420168 293.217926 
L 601.109244 299.199631 
L 605.798319 309.533495 
L 610.487395 314.449918 
L 615.176471 317.176109 
L 619.865546 321.103534 
L 624.554622 325.209405 
L 629.243697 329.062074 
L 633.932773 335.462243 
L 638.621849 342.372802 
L 643.310924 349.557052 
L 648 355.96892 
" clip-path="url(#p723c3567a3)" style="fill: none; stroke-dasharray: 3.7,1.6; stroke-dashoffset: 0; stroke: #2ca02c"/>
   </g>
   <g id="line2d_118">
    <path d="M 90 244.541027 
L 94.689076 244.827439 
L 99.378151 245.500311 
L 104.067227 245.388307 
L 108.756303 245.411709 
L 113.445378 245.203407 
L 118.134454 245.035587 
L 122.823529 244.971059 
L 127.512605 244.803219 
L 132.201681 244.665904 
L 136.890756 244.521469 
L 141.579832 244.413975 
L 146.268908 244.315076 
L 150.957983 244.20655 
L 155.647059 244.082982 
L 160.336134 243.894584 
L 165.02521 243.709775 
L 169.714286 243.508978 
L 174.403361 243.211799 
L 179.092437 242.887201 
L 183.781513 242.711361 
L 188.470588 242.813327 
L 193.159664 242.670276 
L 197.848739 242.115646 
L 202.537815 241.565674 
L 207.226891 241.093727 
L 211.915966 240.092554 
L 216.605042 239.84647 
L 221.294118 238.26613 
L 225.983193 237.37598 
L 230.672269 236.51496 
L 235.361345 234.948565 
L 240.05042 236.989375 
L 244.739496 234.398461 
L 249.428571 234.371402 
L 254.117647 236.938766 
L 258.806723 230.087278 
L 263.495798 229.385405 
L 268.184874 226.220038 
L 272.87395 227.185911 
L 277.563025 218.916205 
L 282.252101 215.761889 
L 286.941176 212.802183 
L 291.630252 205.556557 
L 296.319328 200.092706 
L 301.008403 190.456129 
L 305.697479 191.682006 
L 310.386555 192.744553 
L 315.07563 192.487053 
L 319.764706 194.296702 
L 324.453782 188.808231 
L 329.142857 191.151271 
L 333.831933 196.866499 
L 338.521008 191.938138 
L 343.210084 191.288229 
L 347.89916 194.006092 
L 352.588235 189.81911 
L 357.277311 186.295864 
L 361.966387 189.379485 
L 366.655462 193.711419 
L 371.344538 192.649134 
L 376.033613 188.335064 
L 380.722689 189.273484 
L 385.411765 184.495491 
L 390.10084 191.821628 
L 394.789916 196.098286 
L 399.478992 193.059474 
L 404.168067 193.694204 
L 408.857143 183.950751 
L 413.546218 187.16562 
L 418.235294 186.393889 
L 422.92437 182.033266 
L 427.613445 186.641773 
L 432.302521 186.469834 
L 436.991597 193.607345 
L 441.680672 195.199067 
L 446.369748 191.061284 
L 451.058824 198.514654 
L 455.747899 201.297922 
L 460.436975 197.721454 
L 465.12605 194.838035 
L 469.815126 189.591421 
L 474.504202 191.990815 
L 479.193277 199.788616 
L 483.882353 216.532356 
L 488.571429 226.488568 
L 493.260504 227.108753 
L 497.94958 234.139023 
L 502.638655 240.981375 
L 507.327731 242.173432 
L 512.016807 249.146011 
L 516.705882 251.542004 
L 521.394958 251.590429 
L 526.084034 258.29253 
L 530.773109 248.94974 
L 535.462185 257.965936 
L 540.151261 272.81706 
L 544.840336 271.3276 
L 549.529412 274.612244 
L 554.218487 271.706745 
L 558.907563 275.162092 
L 563.596639 272.749478 
L 568.285714 277.974595 
L 572.97479 285.201459 
L 577.663866 290.680407 
L 582.352941 294.367419 
L 587.042017 294.482947 
L 591.731092 292.59424 
L 596.420168 297.777847 
L 601.109244 304.386105 
L 605.798319 310.754541 
L 610.487395 314.896939 
L 615.176471 321.156052 
L 619.865546 331.16891 
L 624.554622 331.92226 
L 629.243697 318.539539 
L 633.932773 321.263959 
L 638.621849 327.674816 
L 643.310924 340.735435 
L 648 351.964384 
" clip-path="url(#p723c3567a3)" style="fill: none; stroke-dasharray: 3.7,1.6; stroke-dashoffset: 0; stroke: #d62728"/>
   </g>
   <g id="line2d_119">
    <path d="M 90 232.23506 
L 94.689076 232.145836 
L 99.378151 232.792361 
L 104.067227 233.657241 
L 108.756303 232.881456 
L 113.445378 232.087115 
L 118.134454 232.034019 
L 122.823529 232.314576 
L 127.512605 232.461883 
L 132.201681 232.279429 
L 136.890756 232.121533 
L 141.579832 232.184176 
L 146.268908 232.185878 
L 150.957983 232.260503 
L 155.647059 232.462268 
L 160.336134 232.116397 
L 165.02521 231.59072 
L 169.714286 231.827117 
L 174.403361 231.948295 
L 179.092437 231.808866 
L 183.781513 230.861897 
L 188.470588 232.475728 
L 193.159664 231.31014 
L 197.848739 231.040551 
L 202.537815 232.049234 
L 207.226891 228.403165 
L 211.915966 222.440712 
L 216.605042 223.358226 
L 221.294118 219.165499 
L 225.983193 216.410998 
L 230.672269 222.036532 
L 235.361345 221.942006 
L 240.05042 216.06807 
L 244.739496 215.980346 
L 249.428571 215.500144 
L 254.117647 213.32315 
L 258.806723 208.988917 
L 263.495798 200.862728 
L 268.184874 202.592343 
L 272.87395 205.549133 
L 277.563025 206.012302 
L 282.252101 199.301663 
L 286.941176 201.830198 
L 291.630252 196.61407 
L 296.319328 191.035504 
L 301.008403 191.953316 
L 305.697479 196.73095 
L 310.386555 200.993175 
L 315.07563 197.82168 
L 319.764706 187.649486 
L 324.453782 187.550688 
L 329.142857 193.413971 
L 333.831933 187.348971 
L 338.521008 181.048473 
L 343.210084 180.591996 
L 347.89916 195.610385 
L 352.588235 191.475221 
L 357.277311 189.941939 
L 361.966387 184.847674 
L 366.655462 188.651399 
L 371.344538 199.808775 
L 376.033613 195.787292 
L 380.722689 188.556204 
L 385.411765 189.33322 
L 390.10084 180.135262 
L 394.789916 174.303155 
L 399.478992 175.590994 
L 404.168067 189.460077 
L 408.857143 190.955935 
L 413.546218 189.588705 
L 418.235294 191.18894 
L 422.92437 192.825994 
L 427.613445 191.589507 
L 432.302521 193.585569 
L 436.991597 192.00915 
L 441.680672 193.765657 
L 446.369748 197.393409 
L 451.058824 201.901685 
L 455.747899 200.170343 
L 460.436975 199.705327 
L 465.12605 204.406863 
L 469.815126 195.222024 
L 474.504202 190.85399 
L 479.193277 197.326265 
L 483.882353 206.881958 
L 488.571429 208.504247 
L 493.260504 209.400694 
L 497.94958 214.739683 
L 502.638655 222.609423 
L 507.327731 229.173145 
L 512.016807 233.858804 
L 516.705882 239.92361 
L 521.394958 250.512578 
L 526.084034 257.077561 
L 530.773109 262.186429 
L 535.462185 259.765303 
L 540.151261 264.593093 
L 544.840336 266.254028 
L 549.529412 268.281091 
L 554.218487 268.058985 
L 558.907563 267.969372 
L 563.596639 274.245326 
L 568.285714 280.805256 
L 572.97479 287.122986 
L 577.663866 288.456726 
L 582.352941 289.898768 
L 587.042017 292.486945 
L 591.731092 296.167614 
L 596.420168 301.015971 
L 601.109244 305.509484 
L 605.798319 304.122707 
L 610.487395 303.792372 
L 615.176471 307.500157 
L 619.865546 314.239229 
L 624.554622 319.434604 
L 629.243697 326.867489 
L 633.932773 336.907593 
L 638.621849 347.002577 
L 643.310924 357.181411 
L 648 364.450459 
" clip-path="url(#p723c3567a3)" style="fill: none; stroke-dasharray: 3.7,1.6; stroke-dashoffset: 0; stroke: #9467bd"/>
   </g>
   <g id="line2d_120">
    <path d="M 90 239.172635 
L 94.689076 239.168584 
L 99.378151 239.509526 
L 104.067227 239.933229 
L 108.756303 239.960605 
L 113.445378 239.776418 
L 118.134454 239.503225 
L 122.823529 239.489401 
L 127.512605 239.458127 
L 132.201681 239.413506 
L 136.890756 239.375227 
L 141.579832 239.238931 
L 146.268908 239.134705 
L 150.957983 239.03403 
L 155.647059 238.839672 
L 160.336134 238.840793 
L 165.02521 238.60755 
L 169.714286 238.645117 
L 174.403361 238.911349 
L 179.092437 238.25805 
L 183.781513 238.377229 
L 188.470588 238.816876 
L 193.159664 237.538224 
L 197.848739 232.964861 
L 202.537815 234.52883 
L 207.226891 230.338241 
L 211.915966 233.058973 
L 216.605042 230.157116 
L 221.294118 230.819855 
L 225.983193 230.940495 
L 230.672269 227.875485 
L 235.361345 227.750134 
L 240.05042 226.663105 
L 244.739496 220.689479 
L 249.428571 215.841912 
L 254.117647 210.479605 
L 258.806723 207.474812 
L 263.495798 202.054765 
L 268.184874 204.649632 
L 272.87395 204.347517 
L 277.563025 198.792456 
L 282.252101 195.048604 
L 286.941176 196.904555 
L 291.630252 202.999432 
L 296.319328 205.265434 
L 301.008403 200.833566 
L 305.697479 205.696808 
L 310.386555 204.645577 
L 315.07563 194.077328 
L 319.764706 188.700855 
L 324.453782 190.413307 
L 329.142857 189.036487 
L 333.831933 190.73791 
L 338.521008 191.145118 
L 343.210084 184.015719 
L 347.89916 185.597711 
L 352.588235 188.233932 
L 357.277311 185.511954 
L 361.966387 195.806303 
L 366.655462 192.804279 
L 371.344538 188.205107 
L 376.033613 189.531838 
L 380.722689 184.747785 
L 385.411765 176.829902 
L 390.10084 180.820155 
L 394.789916 180.955786 
L 399.478992 177.65461 
L 404.168067 185.038071 
L 408.857143 193.84744 
L 413.546218 194.88918 
L 418.235294 196.33698 
L 422.92437 201.314119 
L 427.613445 196.981353 
L 432.302521 199.326111 
L 436.991597 196.505602 
L 441.680672 194.483334 
L 446.369748 189.921286 
L 451.058824 193.768575 
L 455.747899 198.439507 
L 460.436975 201.949934 
L 465.12605 206.582133 
L 469.815126 205.497583 
L 474.504202 203.074852 
L 479.193277 206.870632 
L 483.882353 216.266782 
L 488.571429 224.786922 
L 493.260504 221.373027 
L 497.94958 229.467636 
L 502.638655 235.12144 
L 507.327731 237.701934 
L 512.016807 239.428824 
L 516.705882 240.510568 
L 521.394958 247.182591 
L 526.084034 249.708757 
L 530.773109 249.352626 
L 535.462185 250.50656 
L 540.151261 256.7987 
L 544.840336 260.012169 
L 549.529412 263.850281 
L 554.218487 270.931332 
L 558.907563 277.678338 
L 563.596639 280.68333 
L 568.285714 279.87418 
L 572.97479 285.314351 
L 577.663866 290.867014 
L 582.352941 295.140661 
L 587.042017 277.927872 
L 591.731092 284.549792 
L 596.420168 285.203105 
L 601.109244 282.23681 
L 605.798319 278.389453 
L 610.487395 278.858979 
L 615.176471 287.007981 
L 619.865546 296.589484 
L 624.554622 304.154124 
L 629.243697 313.185541 
L 633.932773 324.203847 
L 638.621849 336.515333 
L 643.310924 346.656688 
L 648 358.453329 
" clip-path="url(#p723c3567a3)" style="fill: none; stroke-dasharray: 3.7,1.6; stroke-dashoffset: 0; stroke: #8c564b"/>
   </g>
   <g id="line2d_121">
    <path d="M 90 237.716103 
L 94.689076 237.862953 
L 99.378151 238.00181 
L 104.067227 237.9103 
L 108.756303 237.836314 
L 113.445378 237.67596 
L 118.134454 237.488425 
L 122.823529 237.420725 
L 127.512605 237.314886 
L 132.201681 237.10338 
L 136.890756 237.497208 
L 141.579832 237.946009 
L 146.268908 237.747661 
L 150.957983 237.495243 
L 155.647059 238.218887 
L 160.336134 238.980368 
L 165.02521 238.880053 
L 169.714286 238.370974 
L 174.403361 238.186023 
L 179.092437 238.451906 
L 183.781513 238.735892 
L 188.470588 238.403279 
L 193.159664 237.877924 
L 197.848739 237.621202 
L 202.537815 237.760406 
L 207.226891 237.813572 
L 211.915966 237.432601 
L 216.605042 236.759837 
L 221.294118 236.138034 
L 225.983193 235.59067 
L 230.672269 236.071232 
L 235.361345 236.831107 
L 240.05042 237.139216 
L 244.739496 236.869314 
L 249.428571 235.947259 
L 254.117647 236.581115 
L 258.806723 235.299966 
L 263.495798 231.969119 
L 268.184874 228.868833 
L 272.87395 229.249869 
L 277.563025 227.569116 
L 282.252101 229.986032 
L 286.941176 224.125769 
L 291.630252 222.118757 
L 296.319328 223.238541 
L 301.008403 225.21768 
L 305.697479 222.386304 
L 310.386555 215.939874 
L 315.07563 210.434526 
L 319.764706 212.329102 
L 324.453782 211.742933 
L 329.142857 206.7466 
L 333.831933 201.77106 
L 338.521008 198.960488 
L 343.210084 196.645711 
L 347.89916 191.489486 
L 352.588235 187.496613 
L 357.277311 199.887338 
L 361.966387 196.093577 
L 366.655462 194.088826 
L 371.344538 190.991306 
L 376.033613 192.903203 
L 380.722689 193.578902 
L 385.411765 194.171848 
L 390.10084 196.553785 
L 394.789916 193.748048 
L 399.478992 187.552265 
L 404.168067 183.383925 
L 408.857143 175.332326 
L 413.546218 165.574173 
L 418.235294 160.528617 
L 422.92437 160.447748 
L 427.613445 164.735539 
L 432.302521 167.422356 
L 436.991597 178.07873 
L 441.680672 183.939499 
L 446.369748 181.279338 
L 451.058824 188.650389 
L 455.747899 184.829211 
L 460.436975 186.766286 
L 465.12605 176.671277 
L 469.815126 176.609056 
L 474.504202 189.432075 
L 479.193277 206.078691 
L 483.882353 214.557696 
L 488.571429 212.721617 
L 493.260504 212.208876 
L 497.94958 214.113081 
L 502.638655 223.632872 
L 507.327731 224.065062 
L 512.016807 234.869003 
L 516.705882 243.385837 
L 521.394958 245.243205 
L 526.084034 244.614855 
L 530.773109 253.651584 
L 535.462185 263.427504 
L 540.151261 257.897378 
L 544.840336 255.868817 
L 549.529412 267.968585 
L 554.218487 278.223583 
L 558.907563 284.794215 
L 563.596639 282.790742 
L 568.285714 276.454437 
L 572.97479 273.365358 
L 577.663866 277.167404 
L 582.352941 284.356409 
L 587.042017 282.287934 
L 591.731092 283.271883 
L 596.420168 288.526045 
L 601.109244 297.255119 
L 605.798319 310.659886 
L 610.487395 310.988027 
L 615.176471 316.294645 
L 619.865546 326.793207 
L 624.554622 336.51337 
L 629.243697 343.615398 
L 633.932773 350.056542 
L 638.621849 358.270633 
L 643.310924 368.168441 
L 648 378.034808 
" clip-path="url(#p723c3567a3)" style="fill: none; stroke-dasharray: 3.7,1.6; stroke-dashoffset: 0; stroke: #e377c2"/>
   </g>
   <g id="patch_3">
    <path d="M 90 448.56 
L 90 60.48 
" style="fill: none; stroke: #000000; stroke-width: 0.8; stroke-linejoin: miter; stroke-linecap: square"/>
   </g>
   <g id="patch_4">
    <path d="M 648 448.56 
L 648 60.48 
" style="fill: none; stroke: #000000; stroke-width: 0.8; stroke-linejoin: miter; stroke-linecap: square"/>
   </g>
   <g id="patch_5">
    <path d="M 90 448.56 
L 648 448.56 
" style="fill: none; stroke: #000000; stroke-width: 0.8; stroke-linejoin: miter; stroke-linecap: square"/>
   </g>
   <g id="patch_6">
    <path d="M 90 60.48 
L 648 60.48 
" style="fill: none; stroke: #000000; stroke-width: 0.8; stroke-linejoin: miter; stroke-linecap: square"/>
   </g>
   <g id="text_11">
    <!-- ASC RotD100 Response Spectra ($\zeta$ = 5.0%) -->
    <g transform="translate(173.61 54.48)scale(0.18 -0.18)">
     <defs>
      <path id="DejaVuSans-43" d="M 4122 4306 
L 4122 3641 
Q 3803 3938 3442 4084 
Q 3081 4231 2675 4231 
Q 1875 4231 1450 3742 
Q 1025 3253 1025 2328 
Q 1025 1406 1450 917 
Q 1875 428 2675 428 
Q 3081 428 3442 575 
Q 3803 722 4122 1019 
L 4122 359 
Q 3791 134 3420 21 
Q 3050 -91 2638 -91 
Q 1578 -91 968 557 
Q 359 1206 359 2328 
Q 359 3453 968 4101 
Q 1578 4750 2638 4750 
Q 3056 4750 3426 4639 
Q 3797 4528 4122 4306 
z
" transform="scale(0.015625)"/>
      <path id="DejaVuSans-52" d="M 2841 2188 
Q 3044 2119 3236 1894 
Q 3428 1669 3622 1275 
L 4263 0 
L 3584 0 
L 2988 1197 
Q 2756 1666 2539 1819 
Q 2322 1972 1947 1972 
L 1259 1972 
L 1259 0 
L 628 0 
L 628 4666 
L 2053 4666 
Q 2853 4666 3247 4331 
Q 3641 3997 3641 3322 
Q 3641 2881 3436 2590 
Q 3231 2300 2841 2188 
z
M 1259 4147 
L 1259 2491 
L 2053 2491 
Q 2509 2491 2742 2702 
Q 2975 2913 2975 3322 
Q 2975 3731 2742 3939 
Q 2509 4147 2053 4147 
L 1259 4147 
z
" transform="scale(0.015625)"/>
      <path id="DejaVuSans-44" d="M 1259 4147 
L 1259 519 
L 2022 519 
Q 2988 519 3436 956 
Q 3884 1394 3884 2338 
Q 3884 3275 3436 3711 
Q 2988 4147 2022 4147 
L 1259 4147 
z
M 628 4666 
L 1925 4666 
Q 3281 4666 3915 4102 
Q 4550 3538 4550 2338 
Q 4550 1131 3912 565 
Q 3275 0 1925 0 
L 628 0 
L 628 4666 
z
" transform="scale(0.015625)"/>
      <path id="DejaVuSans-Oblique-3b6" d="M 1966 397 
Q 2378 394 2578 159 
Q 2794 -88 2722 -463 
Q 2650 -822 2372 -1072 
Q 2069 -1344 1559 -1344 
Q 1606 -1109 1650 -872 
Q 1863 -888 2022 -750 
Q 2144 -641 2166 -525 
Q 2197 -359 2125 -222 
Q 2050 -91 1872 -91 
Q -22 -91 316 1669 
Q 616 3206 2609 4284 
L 947 4284 
L 1059 4863 
L 3778 4863 
L 3666 4284 
Q 1181 3147 894 1669 
Q 647 397 1966 397 
z
" transform="scale(0.015625)"/>
      <path id="DejaVuSans-3d" d="M 678 2906 
L 4684 2906 
L 4684 2381 
L 678 2381 
L 678 2906 
z
M 678 1631 
L 4684 1631 
L 4684 1100 
L 678 1100 
L 678 1631 
z
" transform="scale(0.015625)"/>
      <path id="DejaVuSans-35" d="M 691 4666 
L 3169 4666 
L 3169 4134 
L 1269 4134 
L 1269 2991 
Q 1406 3038 1543 3061 
Q 1681 3084 1819 3084 
Q 2600 3084 3056 2656 
Q 3513 2228 3513 1497 
Q 3513 744 3044 326 
Q 2575 -91 1722 -91 
Q 1428 -91 1123 -41 
Q 819 9 494 109 
L 494 744 
Q 775 591 1075 516 
Q 1375 441 1709 441 
Q 2250 441 2565 725 
Q 2881 1009 2881 1497 
Q 2881 1984 2565 2268 
Q 2250 2553 1709 2553 
Q 1456 2553 1204 2497 
Q 953 2441 691 2322 
L 691 4666 
z
" transform="scale(0.015625)"/>
      <path id="DejaVuSans-25" d="M 4653 2053 
Q 4381 2053 4226 1822 
Q 4072 1591 4072 1178 
Q 4072 772 4226 539 
Q 4381 306 4653 306 
Q 4919 306 5073 539 
Q 5228 772 5228 1178 
Q 5228 1588 5073 1820 
Q 4919 2053 4653 2053 
z
M 4653 2450 
Q 5147 2450 5437 2106 
Q 5728 1763 5728 1178 
Q 5728 594 5436 251 
Q 5144 -91 4653 -91 
Q 4153 -91 3862 251 
Q 3572 594 3572 1178 
Q 3572 1766 3864 2108 
Q 4156 2450 4653 2450 
z
M 1428 4353 
Q 1159 4353 1004 4120 
Q 850 3888 850 3481 
Q 850 3069 1003 2837 
Q 1156 2606 1428 2606 
Q 1700 2606 1854 2837 
Q 2009 3069 2009 3481 
Q 2009 3884 1853 4118 
Q 1697 4353 1428 4353 
z
M 4250 4750 
L 4750 4750 
L 1831 -91 
L 1331 -91 
L 4250 4750 
z
M 1428 4750 
Q 1922 4750 2215 4408 
Q 2509 4066 2509 3481 
Q 2509 2891 2217 2550 
Q 1925 2209 1428 2209 
Q 931 2209 642 2551 
Q 353 2894 353 3481 
Q 353 4063 643 4406 
Q 934 4750 1428 4750 
z
" transform="scale(0.015625)"/>
     </defs>
     <use xlink:href="#DejaVuSans-41" transform="translate(0 0.015625)"/>
     <use xlink:href="#DejaVuSans-53" transform="translate(68.408203 0.015625)"/>
     <use xlink:href="#DejaVuSans-43" transform="translate(131.884766 0.015625)"/>
     <use xlink:href="#DejaVuSans-20" transform="translate(201.708984 0.015625)"/>
     <use xlink:href="#DejaVuSans-52" transform="translate(233.496094 0.015625)"/>
     <use xlink:href="#DejaVuSans-6f" transform="translate(302.978516 0.015625)"/>
     <use xlink:href="#DejaVuSans-74" transform="translate(364.160156 0.015625)"/>
     <use xlink:href="#DejaVuSans-44" transform="translate(403.369141 0.015625)"/>
     <use xlink:href="#DejaVuSans-31" transform="translate(480.371094 0.015625)"/>
     <use xlink:href="#DejaVuSans-30" transform="translate(543.994141 0.015625)"/>
     <use xlink:href="#DejaVuSans-30" transform="translate(607.617188 0.015625)"/>
     <use xlink:href="#DejaVuSans-20" transform="translate(671.240234 0.015625)"/>
     <use xlink:href="#DejaVuSans-52" transform="translate(703.027344 0.015625)"/>
     <use xlink:href="#DejaVuSans-65" transform="translate(772.509766 0.015625)"/>
     <use xlink:href="#DejaVuSans-73" transform="translate(834.033203 0.015625)"/>
     <use xlink:href="#DejaVuSans-70" transform="translate(886.132812 0.015625)"/>
     <use xlink:href="#DejaVuSans-6f" transform="translate(949.609375 0.015625)"/>
     <use xlink:href="#DejaVuSans-6e" transform="translate(1010.791016 0.015625)"/>
     <use xlink:href="#DejaVuSans-73" transform="translate(1074.169922 0.015625)"/>
     <use xlink:href="#DejaVuSans-65" transform="translate(1126.269531 0.015625)"/>
     <use xlink:href="#DejaVuSans-20" transform="translate(1187.792969 0.015625)"/>
     <use xlink:href="#DejaVuSans-53" transform="translate(1219.580078 0.015625)"/>
     <use xlink:href="#DejaVuSans-70" transform="translate(1283.056641 0.015625)"/>
     <use xlink:href="#DejaVuSans-65" transform="translate(1346.533203 0.015625)"/>
     <use xlink:href="#DejaVuSans-63" transform="translate(1408.056641 0.015625)"/>
     <use xlink:href="#DejaVuSans-74" transform="translate(1463.037109 0.015625)"/>
     <use xlink:href="#DejaVuSans-72" transform="translate(1502.246094 0.015625)"/>
     <use xlink:href="#DejaVuSans-61" transform="translate(1543.359375 0.015625)"/>
     <use xlink:href="#DejaVuSans-20" transform="translate(1604.638672 0.015625)"/>
     <use xlink:href="#DejaVuSans-28" transform="translate(1636.425781 0.015625)"/>
     <use xlink:href="#DejaVuSans-Oblique-3b6" transform="translate(1675.439453 0.015625)"/>
     <use xlink:href="#DejaVuSans-20" transform="translate(1729.833984 0.015625)"/>
     <use xlink:href="#DejaVuSans-3d" transform="translate(1761.621094 0.015625)"/>
     <use xlink:href="#DejaVuSans-20" transform="translate(1845.410156 0.015625)"/>
     <use xlink:href="#DejaVuSans-35" transform="translate(1877.197266 0.015625)"/>
     <use xlink:href="#DejaVuSans-2e" transform="translate(1940.820312 0.015625)"/>
     <use xlink:href="#DejaVuSans-30" transform="translate(1972.607422 0.015625)"/>
     <use xlink:href="#DejaVuSans-25" transform="translate(2036.230469 0.015625)"/>
     <use xlink:href="#DejaVuSans-29" transform="translate(2131.25 0.015625)"/>
    </g>
   </g>
   <g id="legend_1">
    <g id="patch_7">
     <path d="M 97 443.56 
L 319.779688 443.56 
Q 321.779688 443.56 321.779688 441.56 
L 321.779688 310.456875 
Q 321.779688 308.456875 319.779688 308.456875 
L 97 308.456875 
Q 95 308.456875 95 310.456875 
L 95 441.56 
Q 95 443.56 97 443.56 
z
" style="fill: #ffffff; opacity: 0.8; stroke: #cccccc; stroke-linejoin: miter"/>
    </g>
    <g id="line2d_122">
     <path d="M 99 316.555313 
L 109 316.555313 
L 119 316.555313 
" style="fill: none; stroke: #ff0000; stroke-width: 3; stroke-linecap: square"/>
    </g>
    <g id="text_12">
     <!-- 110% ASC Target Spectra -->
     <g transform="translate(127 320.055313)scale(0.1 -0.1)">
      <use xlink:href="#DejaVuSans-31"/>
      <use xlink:href="#DejaVuSans-31" x="63.623047"/>
      <use xlink:href="#DejaVuSans-30" x="127.246094"/>
      <use xlink:href="#DejaVuSans-25" x="190.869141"/>
      <use xlink:href="#DejaVuSans-20" x="285.888672"/>
      <use xlink:href="#DejaVuSans-41" x="317.675781"/>
      <use xlink:href="#DejaVuSans-53" x="386.083984"/>
      <use xlink:href="#DejaVuSans-43" x="449.560547"/>
      <use xlink:href="#DejaVuSans-20" x="519.384766"/>
      <use xlink:href="#DejaVuSans-54" x="551.171875"/>
      <use xlink:href="#DejaVuSans-61" x="595.755859"/>
      <use xlink:href="#DejaVuSans-72" x="657.035156"/>
      <use xlink:href="#DejaVuSans-67" x="696.398438"/>
      <use xlink:href="#DejaVuSans-65" x="759.875"/>
      <use xlink:href="#DejaVuSans-74" x="821.398438"/>
      <use xlink:href="#DejaVuSans-20" x="860.607422"/>
      <use xlink:href="#DejaVuSans-53" x="892.394531"/>
      <use xlink:href="#DejaVuSans-70" x="955.871094"/>
      <use xlink:href="#DejaVuSans-65" x="1019.347656"/>
      <use xlink:href="#DejaVuSans-63" x="1080.871094"/>
      <use xlink:href="#DejaVuSans-74" x="1135.851562"/>
      <use xlink:href="#DejaVuSans-72" x="1175.060547"/>
      <use xlink:href="#DejaVuSans-61" x="1216.173828"/>
     </g>
    </g>
    <g id="line2d_123">
     <path d="M 99 331.233438 
L 109 331.233438 
L 119 331.233438 
" style="fill: none; stroke: #000000; stroke-width: 3; stroke-linecap: square"/>
    </g>
    <g id="text_13">
     <!-- ASC Suite Average -->
     <g transform="translate(127 334.733438)scale(0.1 -0.1)">
      <defs>
       <path id="DejaVuSans-75" d="M 544 1381 
L 544 3500 
L 1119 3500 
L 1119 1403 
Q 1119 906 1312 657 
Q 1506 409 1894 409 
Q 2359 409 2629 706 
Q 2900 1003 2900 1516 
L 2900 3500 
L 3475 3500 
L 3475 0 
L 2900 0 
L 2900 538 
Q 2691 219 2414 64 
Q 2138 -91 1772 -91 
Q 1169 -91 856 284 
Q 544 659 544 1381 
z
M 1991 3584 
L 1991 3584 
z
" transform="scale(0.015625)"/>
       <path id="DejaVuSans-76" d="M 191 3500 
L 800 3500 
L 1894 563 
L 2988 3500 
L 3597 3500 
L 2284 0 
L 1503 0 
L 191 3500 
z
" transform="scale(0.015625)"/>
      </defs>
      <use xlink:href="#DejaVuSans-41"/>
      <use xlink:href="#DejaVuSans-53" x="68.408203"/>
      <use xlink:href="#DejaVuSans-43" x="131.884766"/>
      <use xlink:href="#DejaVuSans-20" x="201.708984"/>
      <use xlink:href="#DejaVuSans-53" x="233.496094"/>
      <use xlink:href="#DejaVuSans-75" x="296.972656"/>
      <use xlink:href="#DejaVuSans-69" x="360.351562"/>
      <use xlink:href="#DejaVuSans-74" x="388.134766"/>
      <use xlink:href="#DejaVuSans-65" x="427.34375"/>
      <use xlink:href="#DejaVuSans-20" x="488.867188"/>
      <use xlink:href="#DejaVuSans-41" x="520.654297"/>
      <use xlink:href="#DejaVuSans-76" x="583.1875"/>
      <use xlink:href="#DejaVuSans-65" x="642.367188"/>
      <use xlink:href="#DejaVuSans-72" x="703.890625"/>
      <use xlink:href="#DejaVuSans-61" x="745.003906"/>
      <use xlink:href="#DejaVuSans-67" x="806.283203"/>
      <use xlink:href="#DejaVuSans-65" x="869.759766"/>
     </g>
    </g>
    <g id="line2d_124">
     <path d="M 99 345.911563 
L 109 345.911563 
L 119 345.911563 
" style="fill: none; stroke-dasharray: 3.7,1.6; stroke-dashoffset: 0; stroke: #1f77b4"/>
    </g>
    <g id="text_14">
     <!-- 01 Imperial Valley, California (1940) -->
     <g transform="translate(127 349.411563)scale(0.1 -0.1)">
      <defs>
       <path id="DejaVuSans-49" d="M 628 4666 
L 1259 4666 
L 1259 0 
L 628 0 
L 628 4666 
z
" transform="scale(0.015625)"/>
       <path id="DejaVuSans-6d" d="M 3328 2828 
Q 3544 3216 3844 3400 
Q 4144 3584 4550 3584 
Q 5097 3584 5394 3201 
Q 5691 2819 5691 2113 
L 5691 0 
L 5113 0 
L 5113 2094 
Q 5113 2597 4934 2840 
Q 4756 3084 4391 3084 
Q 3944 3084 3684 2787 
Q 3425 2491 3425 1978 
L 3425 0 
L 2847 0 
L 2847 2094 
Q 2847 2600 2669 2842 
Q 2491 3084 2119 3084 
Q 1678 3084 1418 2786 
Q 1159 2488 1159 1978 
L 1159 0 
L 581 0 
L 581 3500 
L 1159 3500 
L 1159 2956 
Q 1356 3278 1631 3431 
Q 1906 3584 2284 3584 
Q 2666 3584 2933 3390 
Q 3200 3197 3328 2828 
z
" transform="scale(0.015625)"/>
       <path id="DejaVuSans-56" d="M 1831 0 
L 50 4666 
L 709 4666 
L 2188 738 
L 3669 4666 
L 4325 4666 
L 2547 0 
L 1831 0 
z
" transform="scale(0.015625)"/>
       <path id="DejaVuSans-79" d="M 2059 -325 
Q 1816 -950 1584 -1140 
Q 1353 -1331 966 -1331 
L 506 -1331 
L 506 -850 
L 844 -850 
Q 1081 -850 1212 -737 
Q 1344 -625 1503 -206 
L 1606 56 
L 191 3500 
L 800 3500 
L 1894 763 
L 2988 3500 
L 3597 3500 
L 2059 -325 
z
" transform="scale(0.015625)"/>
       <path id="DejaVuSans-2c" d="M 750 794 
L 1409 794 
L 1409 256 
L 897 -744 
L 494 -744 
L 750 256 
L 750 794 
z
" transform="scale(0.015625)"/>
       <path id="DejaVuSans-66" d="M 2375 4863 
L 2375 4384 
L 1825 4384 
Q 1516 4384 1395 4259 
Q 1275 4134 1275 3809 
L 1275 3500 
L 2222 3500 
L 2222 3053 
L 1275 3053 
L 1275 0 
L 697 0 
L 697 3053 
L 147 3053 
L 147 3500 
L 697 3500 
L 697 3744 
Q 697 4328 969 4595 
Q 1241 4863 1831 4863 
L 2375 4863 
z
" transform="scale(0.015625)"/>
       <path id="DejaVuSans-39" d="M 703 97 
L 703 672 
Q 941 559 1184 500 
Q 1428 441 1663 441 
Q 2288 441 2617 861 
Q 2947 1281 2994 2138 
Q 2813 1869 2534 1725 
Q 2256 1581 1919 1581 
Q 1219 1581 811 2004 
Q 403 2428 403 3163 
Q 403 3881 828 4315 
Q 1253 4750 1959 4750 
Q 2769 4750 3195 4129 
Q 3622 3509 3622 2328 
Q 3622 1225 3098 567 
Q 2575 -91 1691 -91 
Q 1453 -91 1209 -44 
Q 966 3 703 97 
z
M 1959 2075 
Q 2384 2075 2632 2365 
Q 2881 2656 2881 3163 
Q 2881 3666 2632 3958 
Q 2384 4250 1959 4250 
Q 1534 4250 1286 3958 
Q 1038 3666 1038 3163 
Q 1038 2656 1286 2365 
Q 1534 2075 1959 2075 
z
" transform="scale(0.015625)"/>
       <path id="DejaVuSans-34" d="M 2419 4116 
L 825 1625 
L 2419 1625 
L 2419 4116 
z
M 2253 4666 
L 3047 4666 
L 3047 1625 
L 3713 1625 
L 3713 1100 
L 3047 1100 
L 3047 0 
L 2419 0 
L 2419 1100 
L 313 1100 
L 313 1709 
L 2253 4666 
z
" transform="scale(0.015625)"/>
      </defs>
      <use xlink:href="#DejaVuSans-30"/>
      <use xlink:href="#DejaVuSans-31" x="63.623047"/>
      <use xlink:href="#DejaVuSans-20" x="127.246094"/>
      <use xlink:href="#DejaVuSans-49" x="159.033203"/>
      <use xlink:href="#DejaVuSans-6d" x="188.525391"/>
      <use xlink:href="#DejaVuSans-70" x="285.9375"/>
      <use xlink:href="#DejaVuSans-65" x="349.414062"/>
      <use xlink:href="#DejaVuSans-72" x="410.9375"/>
      <use xlink:href="#DejaVuSans-69" x="452.050781"/>
      <use xlink:href="#DejaVuSans-61" x="479.833984"/>
      <use xlink:href="#DejaVuSans-6c" x="541.113281"/>
      <use xlink:href="#DejaVuSans-20" x="568.896484"/>
      <use xlink:href="#DejaVuSans-56" x="600.683594"/>
      <use xlink:href="#DejaVuSans-61" x="661.341797"/>
      <use xlink:href="#DejaVuSans-6c" x="722.621094"/>
      <use xlink:href="#DejaVuSans-6c" x="750.404297"/>
      <use xlink:href="#DejaVuSans-65" x="778.1875"/>
      <use xlink:href="#DejaVuSans-79" x="839.710938"/>
      <use xlink:href="#DejaVuSans-2c" x="898.890625"/>
      <use xlink:href="#DejaVuSans-20" x="930.677734"/>
      <use xlink:href="#DejaVuSans-43" x="962.464844"/>
      <use xlink:href="#DejaVuSans-61" x="1032.289062"/>
      <use xlink:href="#DejaVuSans-6c" x="1093.568359"/>
      <use xlink:href="#DejaVuSans-69" x="1121.351562"/>
      <use xlink:href="#DejaVuSans-66" x="1149.134766"/>
      <use xlink:href="#DejaVuSans-6f" x="1184.339844"/>
      <use xlink:href="#DejaVuSans-72" x="1245.521484"/>
      <use xlink:href="#DejaVuSans-6e" x="1284.884766"/>
      <use xlink:href="#DejaVuSans-69" x="1348.263672"/>
      <use xlink:href="#DejaVuSans-61" x="1376.046875"/>
      <use xlink:href="#DejaVuSans-20" x="1437.326172"/>
      <use xlink:href="#DejaVuSans-28" x="1469.113281"/>
      <use xlink:href="#DejaVuSans-31" x="1508.126953"/>
      <use xlink:href="#DejaVuSans-39" x="1571.75"/>
      <use xlink:href="#DejaVuSans-34" x="1635.373047"/>
      <use xlink:href="#DejaVuSans-30" x="1698.996094"/>
      <use xlink:href="#DejaVuSans-29" x="1762.619141"/>
     </g>
    </g>
    <g id="line2d_125">
     <path d="M 99 360.589688 
L 109 360.589688 
L 119 360.589688 
" style="fill: none; stroke-dasharray: 3.7,1.6; stroke-dashoffset: 0; stroke: #ff7f0e"/>
    </g>
    <g id="text_15">
     <!-- 02 El Alamo, California (1956) -->
     <g transform="translate(127 364.089688)scale(0.1 -0.1)">
      <defs>
       <path id="DejaVuSans-32" d="M 1228 531 
L 3431 531 
L 3431 0 
L 469 0 
L 469 531 
Q 828 903 1448 1529 
Q 2069 2156 2228 2338 
Q 2531 2678 2651 2914 
Q 2772 3150 2772 3378 
Q 2772 3750 2511 3984 
Q 2250 4219 1831 4219 
Q 1534 4219 1204 4116 
Q 875 4013 500 3803 
L 500 4441 
Q 881 4594 1212 4672 
Q 1544 4750 1819 4750 
Q 2544 4750 2975 4387 
Q 3406 4025 3406 3419 
Q 3406 3131 3298 2873 
Q 3191 2616 2906 2266 
Q 2828 2175 2409 1742 
Q 1991 1309 1228 531 
z
" transform="scale(0.015625)"/>
       <path id="DejaVuSans-45" d="M 628 4666 
L 3578 4666 
L 3578 4134 
L 1259 4134 
L 1259 2753 
L 3481 2753 
L 3481 2222 
L 1259 2222 
L 1259 531 
L 3634 531 
L 3634 0 
L 628 0 
L 628 4666 
z
" transform="scale(0.015625)"/>
       <path id="DejaVuSans-36" d="M 2113 2584 
Q 1688 2584 1439 2293 
Q 1191 2003 1191 1497 
Q 1191 994 1439 701 
Q 1688 409 2113 409 
Q 2538 409 2786 701 
Q 3034 994 3034 1497 
Q 3034 2003 2786 2293 
Q 2538 2584 2113 2584 
z
M 3366 4563 
L 3366 3988 
Q 3128 4100 2886 4159 
Q 2644 4219 2406 4219 
Q 1781 4219 1451 3797 
Q 1122 3375 1075 2522 
Q 1259 2794 1537 2939 
Q 1816 3084 2150 3084 
Q 2853 3084 3261 2657 
Q 3669 2231 3669 1497 
Q 3669 778 3244 343 
Q 2819 -91 2113 -91 
Q 1303 -91 875 529 
Q 447 1150 447 2328 
Q 447 3434 972 4092 
Q 1497 4750 2381 4750 
Q 2619 4750 2861 4703 
Q 3103 4656 3366 4563 
z
" transform="scale(0.015625)"/>
      </defs>
      <use xlink:href="#DejaVuSans-30"/>
      <use xlink:href="#DejaVuSans-32" x="63.623047"/>
      <use xlink:href="#DejaVuSans-20" x="127.246094"/>
      <use xlink:href="#DejaVuSans-45" x="159.033203"/>
      <use xlink:href="#DejaVuSans-6c" x="222.216797"/>
      <use xlink:href="#DejaVuSans-20" x="250"/>
      <use xlink:href="#DejaVuSans-41" x="281.787109"/>
      <use xlink:href="#DejaVuSans-6c" x="350.195312"/>
      <use xlink:href="#DejaVuSans-61" x="377.978516"/>
      <use xlink:href="#DejaVuSans-6d" x="439.257812"/>
      <use xlink:href="#DejaVuSans-6f" x="536.669922"/>
      <use xlink:href="#DejaVuSans-2c" x="597.851562"/>
      <use xlink:href="#DejaVuSans-20" x="629.638672"/>
      <use xlink:href="#DejaVuSans-43" x="661.425781"/>
      <use xlink:href="#DejaVuSans-61" x="731.25"/>
      <use xlink:href="#DejaVuSans-6c" x="792.529297"/>
      <use xlink:href="#DejaVuSans-69" x="820.3125"/>
      <use xlink:href="#DejaVuSans-66" x="848.095703"/>
      <use xlink:href="#DejaVuSans-6f" x="883.300781"/>
      <use xlink:href="#DejaVuSans-72" x="944.482422"/>
      <use xlink:href="#DejaVuSans-6e" x="983.845703"/>
      <use xlink:href="#DejaVuSans-69" x="1047.224609"/>
      <use xlink:href="#DejaVuSans-61" x="1075.007812"/>
      <use xlink:href="#DejaVuSans-20" x="1136.287109"/>
      <use xlink:href="#DejaVuSans-28" x="1168.074219"/>
      <use xlink:href="#DejaVuSans-31" x="1207.087891"/>
      <use xlink:href="#DejaVuSans-39" x="1270.710938"/>
      <use xlink:href="#DejaVuSans-35" x="1334.333984"/>
      <use xlink:href="#DejaVuSans-36" x="1397.957031"/>
      <use xlink:href="#DejaVuSans-29" x="1461.580078"/>
     </g>
    </g>
    <g id="line2d_126">
     <path d="M 99 375.267813 
L 109 375.267813 
L 119 375.267813 
" style="fill: none; stroke-dasharray: 3.7,1.6; stroke-dashoffset: 0; stroke: #2ca02c"/>
    </g>
    <g id="text_16">
     <!-- 03 Kocaeli, Turkey (1999) -->
     <g transform="translate(127 378.767813)scale(0.1 -0.1)">
      <defs>
       <path id="DejaVuSans-33" d="M 2597 2516 
Q 3050 2419 3304 2112 
Q 3559 1806 3559 1356 
Q 3559 666 3084 287 
Q 2609 -91 1734 -91 
Q 1441 -91 1130 -33 
Q 819 25 488 141 
L 488 750 
Q 750 597 1062 519 
Q 1375 441 1716 441 
Q 2309 441 2620 675 
Q 2931 909 2931 1356 
Q 2931 1769 2642 2001 
Q 2353 2234 1838 2234 
L 1294 2234 
L 1294 2753 
L 1863 2753 
Q 2328 2753 2575 2939 
Q 2822 3125 2822 3475 
Q 2822 3834 2567 4026 
Q 2313 4219 1838 4219 
Q 1578 4219 1281 4162 
Q 984 4106 628 3988 
L 628 4550 
Q 988 4650 1302 4700 
Q 1616 4750 1894 4750 
Q 2613 4750 3031 4423 
Q 3450 4097 3450 3541 
Q 3450 3153 3228 2886 
Q 3006 2619 2597 2516 
z
" transform="scale(0.015625)"/>
       <path id="DejaVuSans-4b" d="M 628 4666 
L 1259 4666 
L 1259 2694 
L 3353 4666 
L 4166 4666 
L 1850 2491 
L 4331 0 
L 3500 0 
L 1259 2247 
L 1259 0 
L 628 0 
L 628 4666 
z
" transform="scale(0.015625)"/>
       <path id="DejaVuSans-6b" d="M 581 4863 
L 1159 4863 
L 1159 1991 
L 2875 3500 
L 3609 3500 
L 1753 1863 
L 3688 0 
L 2938 0 
L 1159 1709 
L 1159 0 
L 581 0 
L 581 4863 
z
" transform="scale(0.015625)"/>
      </defs>
      <use xlink:href="#DejaVuSans-30"/>
      <use xlink:href="#DejaVuSans-33" x="63.623047"/>
      <use xlink:href="#DejaVuSans-20" x="127.246094"/>
      <use xlink:href="#DejaVuSans-4b" x="159.033203"/>
      <use xlink:href="#DejaVuSans-6f" x="219.609375"/>
      <use xlink:href="#DejaVuSans-63" x="280.791016"/>
      <use xlink:href="#DejaVuSans-61" x="335.771484"/>
      <use xlink:href="#DejaVuSans-65" x="397.050781"/>
      <use xlink:href="#DejaVuSans-6c" x="458.574219"/>
      <use xlink:href="#DejaVuSans-69" x="486.357422"/>
      <use xlink:href="#DejaVuSans-2c" x="514.140625"/>
      <use xlink:href="#DejaVuSans-20" x="545.927734"/>
      <use xlink:href="#DejaVuSans-54" x="577.714844"/>
      <use xlink:href="#DejaVuSans-75" x="623.673828"/>
      <use xlink:href="#DejaVuSans-72" x="687.052734"/>
      <use xlink:href="#DejaVuSans-6b" x="728.166016"/>
      <use xlink:href="#DejaVuSans-65" x="782.451172"/>
      <use xlink:href="#DejaVuSans-79" x="843.974609"/>
      <use xlink:href="#DejaVuSans-20" x="903.154297"/>
      <use xlink:href="#DejaVuSans-28" x="934.941406"/>
      <use xlink:href="#DejaVuSans-31" x="973.955078"/>
      <use xlink:href="#DejaVuSans-39" x="1037.578125"/>
      <use xlink:href="#DejaVuSans-39" x="1101.201172"/>
      <use xlink:href="#DejaVuSans-39" x="1164.824219"/>
      <use xlink:href="#DejaVuSans-29" x="1228.447266"/>
     </g>
    </g>
    <g id="line2d_127">
     <path d="M 99 389.945938 
L 109 389.945938 
L 119 389.945938 
" style="fill: none; stroke-dasharray: 3.7,1.6; stroke-dashoffset: 0; stroke: #d62728"/>
    </g>
    <g id="text_17">
     <!-- 04 El Mayor-Cucapah, Mexico (2010) -->
     <g transform="translate(127 393.445938)scale(0.1 -0.1)">
      <defs>
       <path id="DejaVuSans-4d" d="M 628 4666 
L 1569 4666 
L 2759 1491 
L 3956 4666 
L 4897 4666 
L 4897 0 
L 4281 0 
L 4281 4097 
L 3078 897 
L 2444 897 
L 1241 4097 
L 1241 0 
L 628 0 
L 628 4666 
z
" transform="scale(0.015625)"/>
       <path id="DejaVuSans-2d" d="M 313 2009 
L 1997 2009 
L 1997 1497 
L 313 1497 
L 313 2009 
z
" transform="scale(0.015625)"/>
       <path id="DejaVuSans-68" d="M 3513 2113 
L 3513 0 
L 2938 0 
L 2938 2094 
Q 2938 2591 2744 2837 
Q 2550 3084 2163 3084 
Q 1697 3084 1428 2787 
Q 1159 2491 1159 1978 
L 1159 0 
L 581 0 
L 581 4863 
L 1159 4863 
L 1159 2956 
Q 1366 3272 1645 3428 
Q 1925 3584 2291 3584 
Q 2894 3584 3203 3211 
Q 3513 2838 3513 2113 
z
" transform="scale(0.015625)"/>
       <path id="DejaVuSans-78" d="M 3513 3500 
L 2247 1797 
L 3578 0 
L 2900 0 
L 1881 1375 
L 863 0 
L 184 0 
L 1544 1831 
L 300 3500 
L 978 3500 
L 1906 2253 
L 2834 3500 
L 3513 3500 
z
" transform="scale(0.015625)"/>
      </defs>
      <use xlink:href="#DejaVuSans-30"/>
      <use xlink:href="#DejaVuSans-34" x="63.623047"/>
      <use xlink:href="#DejaVuSans-20" x="127.246094"/>
      <use xlink:href="#DejaVuSans-45" x="159.033203"/>
      <use xlink:href="#DejaVuSans-6c" x="222.216797"/>
      <use xlink:href="#DejaVuSans-20" x="250"/>
      <use xlink:href="#DejaVuSans-4d" x="281.787109"/>
      <use xlink:href="#DejaVuSans-61" x="368.066406"/>
      <use xlink:href="#DejaVuSans-79" x="429.345703"/>
      <use xlink:href="#DejaVuSans-6f" x="488.525391"/>
      <use xlink:href="#DejaVuSans-72" x="549.707031"/>
      <use xlink:href="#DejaVuSans-2d" x="584.445312"/>
      <use xlink:href="#DejaVuSans-43" x="620.529297"/>
      <use xlink:href="#DejaVuSans-75" x="690.353516"/>
      <use xlink:href="#DejaVuSans-63" x="753.732422"/>
      <use xlink:href="#DejaVuSans-61" x="808.712891"/>
      <use xlink:href="#DejaVuSans-70" x="869.992188"/>
      <use xlink:href="#DejaVuSans-61" x="933.46875"/>
      <use xlink:href="#DejaVuSans-68" x="994.748047"/>
      <use xlink:href="#DejaVuSans-2c" x="1058.126953"/>
      <use xlink:href="#DejaVuSans-20" x="1089.914062"/>
      <use xlink:href="#DejaVuSans-4d" x="1121.701172"/>
      <use xlink:href="#DejaVuSans-65" x="1207.980469"/>
      <use xlink:href="#DejaVuSans-78" x="1267.753906"/>
      <use xlink:href="#DejaVuSans-69" x="1326.933594"/>
      <use xlink:href="#DejaVuSans-63" x="1354.716797"/>
      <use xlink:href="#DejaVuSans-6f" x="1409.697266"/>
      <use xlink:href="#DejaVuSans-20" x="1470.878906"/>
      <use xlink:href="#DejaVuSans-28" x="1502.666016"/>
      <use xlink:href="#DejaVuSans-32" x="1541.679688"/>
      <use xlink:href="#DejaVuSans-30" x="1605.302734"/>
      <use xlink:href="#DejaVuSans-31" x="1668.925781"/>
      <use xlink:href="#DejaVuSans-30" x="1732.548828"/>
      <use xlink:href="#DejaVuSans-29" x="1796.171875"/>
     </g>
    </g>
    <g id="line2d_128">
     <path d="M 99 404.624063 
L 109 404.624063 
L 119 404.624063 
" style="fill: none; stroke-dasharray: 3.7,1.6; stroke-dashoffset: 0; stroke: #9467bd"/>
    </g>
    <g id="text_18">
     <!-- 05 Darfield, New Zealand (2010) -->
     <g transform="translate(127 408.124063)scale(0.1 -0.1)">
      <defs>
       <path id="DejaVuSans-4e" d="M 628 4666 
L 1478 4666 
L 3547 763 
L 3547 4666 
L 4159 4666 
L 4159 0 
L 3309 0 
L 1241 3903 
L 1241 0 
L 628 0 
L 628 4666 
z
" transform="scale(0.015625)"/>
       <path id="DejaVuSans-77" d="M 269 3500 
L 844 3500 
L 1563 769 
L 2278 3500 
L 2956 3500 
L 3675 769 
L 4391 3500 
L 4966 3500 
L 4050 0 
L 3372 0 
L 2619 2869 
L 1863 0 
L 1184 0 
L 269 3500 
z
" transform="scale(0.015625)"/>
       <path id="DejaVuSans-5a" d="M 359 4666 
L 4025 4666 
L 4025 4184 
L 1075 531 
L 4097 531 
L 4097 0 
L 288 0 
L 288 481 
L 3238 4134 
L 359 4134 
L 359 4666 
z
" transform="scale(0.015625)"/>
      </defs>
      <use xlink:href="#DejaVuSans-30"/>
      <use xlink:href="#DejaVuSans-35" x="63.623047"/>
      <use xlink:href="#DejaVuSans-20" x="127.246094"/>
      <use xlink:href="#DejaVuSans-44" x="159.033203"/>
      <use xlink:href="#DejaVuSans-61" x="236.035156"/>
      <use xlink:href="#DejaVuSans-72" x="297.314453"/>
      <use xlink:href="#DejaVuSans-66" x="338.427734"/>
      <use xlink:href="#DejaVuSans-69" x="373.632812"/>
      <use xlink:href="#DejaVuSans-65" x="401.416016"/>
      <use xlink:href="#DejaVuSans-6c" x="462.939453"/>
      <use xlink:href="#DejaVuSans-64" x="490.722656"/>
      <use xlink:href="#DejaVuSans-2c" x="554.199219"/>
      <use xlink:href="#DejaVuSans-20" x="585.986328"/>
      <use xlink:href="#DejaVuSans-4e" x="617.773438"/>
      <use xlink:href="#DejaVuSans-65" x="692.578125"/>
      <use xlink:href="#DejaVuSans-77" x="754.101562"/>
      <use xlink:href="#DejaVuSans-20" x="835.888672"/>
      <use xlink:href="#DejaVuSans-5a" x="867.675781"/>
      <use xlink:href="#DejaVuSans-65" x="936.181641"/>
      <use xlink:href="#DejaVuSans-61" x="997.705078"/>
      <use xlink:href="#DejaVuSans-6c" x="1058.984375"/>
      <use xlink:href="#DejaVuSans-61" x="1086.767578"/>
      <use xlink:href="#DejaVuSans-6e" x="1148.046875"/>
      <use xlink:href="#DejaVuSans-64" x="1211.425781"/>
      <use xlink:href="#DejaVuSans-20" x="1274.902344"/>
      <use xlink:href="#DejaVuSans-28" x="1306.689453"/>
      <use xlink:href="#DejaVuSans-32" x="1345.703125"/>
      <use xlink:href="#DejaVuSans-30" x="1409.326172"/>
      <use xlink:href="#DejaVuSans-31" x="1472.949219"/>
      <use xlink:href="#DejaVuSans-30" x="1536.572266"/>
      <use xlink:href="#DejaVuSans-29" x="1600.195312"/>
     </g>
    </g>
    <g id="line2d_129">
     <path d="M 99 419.302188 
L 109 419.302188 
L 119 419.302188 
" style="fill: none; stroke-dasharray: 3.7,1.6; stroke-dashoffset: 0; stroke: #8c564b"/>
    </g>
    <g id="text_19">
     <!-- 06 Superstition Hills, California (1987) -->
     <g transform="translate(127 422.802188)scale(0.1 -0.1)">
      <defs>
       <path id="DejaVuSans-48" d="M 628 4666 
L 1259 4666 
L 1259 2753 
L 3553 2753 
L 3553 4666 
L 4184 4666 
L 4184 0 
L 3553 0 
L 3553 2222 
L 1259 2222 
L 1259 0 
L 628 0 
L 628 4666 
z
" transform="scale(0.015625)"/>
       <path id="DejaVuSans-38" d="M 2034 2216 
Q 1584 2216 1326 1975 
Q 1069 1734 1069 1313 
Q 1069 891 1326 650 
Q 1584 409 2034 409 
Q 2484 409 2743 651 
Q 3003 894 3003 1313 
Q 3003 1734 2745 1975 
Q 2488 2216 2034 2216 
z
M 1403 2484 
Q 997 2584 770 2862 
Q 544 3141 544 3541 
Q 544 4100 942 4425 
Q 1341 4750 2034 4750 
Q 2731 4750 3128 4425 
Q 3525 4100 3525 3541 
Q 3525 3141 3298 2862 
Q 3072 2584 2669 2484 
Q 3125 2378 3379 2068 
Q 3634 1759 3634 1313 
Q 3634 634 3220 271 
Q 2806 -91 2034 -91 
Q 1263 -91 848 271 
Q 434 634 434 1313 
Q 434 1759 690 2068 
Q 947 2378 1403 2484 
z
M 1172 3481 
Q 1172 3119 1398 2916 
Q 1625 2713 2034 2713 
Q 2441 2713 2670 2916 
Q 2900 3119 2900 3481 
Q 2900 3844 2670 4047 
Q 2441 4250 2034 4250 
Q 1625 4250 1398 4047 
Q 1172 3844 1172 3481 
z
" transform="scale(0.015625)"/>
       <path id="DejaVuSans-37" d="M 525 4666 
L 3525 4666 
L 3525 4397 
L 1831 0 
L 1172 0 
L 2766 4134 
L 525 4134 
L 525 4666 
z
" transform="scale(0.015625)"/>
      </defs>
      <use xlink:href="#DejaVuSans-30"/>
      <use xlink:href="#DejaVuSans-36" x="63.623047"/>
      <use xlink:href="#DejaVuSans-20" x="127.246094"/>
      <use xlink:href="#DejaVuSans-53" x="159.033203"/>
      <use xlink:href="#DejaVuSans-75" x="222.509766"/>
      <use xlink:href="#DejaVuSans-70" x="285.888672"/>
      <use xlink:href="#DejaVuSans-65" x="349.365234"/>
      <use xlink:href="#DejaVuSans-72" x="410.888672"/>
      <use xlink:href="#DejaVuSans-73" x="452.001953"/>
      <use xlink:href="#DejaVuSans-74" x="504.101562"/>
      <use xlink:href="#DejaVuSans-69" x="543.310547"/>
      <use xlink:href="#DejaVuSans-74" x="571.09375"/>
      <use xlink:href="#DejaVuSans-69" x="610.302734"/>
      <use xlink:href="#DejaVuSans-6f" x="638.085938"/>
      <use xlink:href="#DejaVuSans-6e" x="699.267578"/>
      <use xlink:href="#DejaVuSans-20" x="762.646484"/>
      <use xlink:href="#DejaVuSans-48" x="794.433594"/>
      <use xlink:href="#DejaVuSans-69" x="869.628906"/>
      <use xlink:href="#DejaVuSans-6c" x="897.412109"/>
      <use xlink:href="#DejaVuSans-6c" x="925.195312"/>
      <use xlink:href="#DejaVuSans-73" x="952.978516"/>
      <use xlink:href="#DejaVuSans-2c" x="1005.078125"/>
      <use xlink:href="#DejaVuSans-20" x="1036.865234"/>
      <use xlink:href="#DejaVuSans-43" x="1068.652344"/>
      <use xlink:href="#DejaVuSans-61" x="1138.476562"/>
      <use xlink:href="#DejaVuSans-6c" x="1199.755859"/>
      <use xlink:href="#DejaVuSans-69" x="1227.539062"/>
      <use xlink:href="#DejaVuSans-66" x="1255.322266"/>
      <use xlink:href="#DejaVuSans-6f" x="1290.527344"/>
      <use xlink:href="#DejaVuSans-72" x="1351.708984"/>
      <use xlink:href="#DejaVuSans-6e" x="1391.072266"/>
      <use xlink:href="#DejaVuSans-69" x="1454.451172"/>
      <use xlink:href="#DejaVuSans-61" x="1482.234375"/>
      <use xlink:href="#DejaVuSans-20" x="1543.513672"/>
      <use xlink:href="#DejaVuSans-28" x="1575.300781"/>
      <use xlink:href="#DejaVuSans-31" x="1614.314453"/>
      <use xlink:href="#DejaVuSans-39" x="1677.9375"/>
      <use xlink:href="#DejaVuSans-38" x="1741.560547"/>
      <use xlink:href="#DejaVuSans-37" x="1805.183594"/>
      <use xlink:href="#DejaVuSans-29" x="1868.806641"/>
     </g>
    </g>
    <g id="line2d_130">
     <path d="M 99 433.980313 
L 109 433.980313 
L 119 433.980313 
" style="fill: none; stroke-dasharray: 3.7,1.6; stroke-dashoffset: 0; stroke: #e377c2"/>
    </g>
    <g id="text_20">
     <!-- 07 Tottori, Japan (2000) -->
     <g transform="translate(127 437.480313)scale(0.1 -0.1)">
      <defs>
       <path id="DejaVuSans-4a" d="M 628 4666 
L 1259 4666 
L 1259 325 
Q 1259 -519 939 -900 
Q 619 -1281 -91 -1281 
L -331 -1281 
L -331 -750 
L -134 -750 
Q 284 -750 456 -515 
Q 628 -281 628 325 
L 628 4666 
z
" transform="scale(0.015625)"/>
      </defs>
      <use xlink:href="#DejaVuSans-30"/>
      <use xlink:href="#DejaVuSans-37" x="63.623047"/>
      <use xlink:href="#DejaVuSans-20" x="127.246094"/>
      <use xlink:href="#DejaVuSans-54" x="159.033203"/>
      <use xlink:href="#DejaVuSans-6f" x="203.117188"/>
      <use xlink:href="#DejaVuSans-74" x="264.298828"/>
      <use xlink:href="#DejaVuSans-74" x="303.507812"/>
      <use xlink:href="#DejaVuSans-6f" x="342.716797"/>
      <use xlink:href="#DejaVuSans-72" x="403.898438"/>
      <use xlink:href="#DejaVuSans-69" x="445.011719"/>
      <use xlink:href="#DejaVuSans-2c" x="472.794922"/>
      <use xlink:href="#DejaVuSans-20" x="504.582031"/>
      <use xlink:href="#DejaVuSans-4a" x="536.369141"/>
      <use xlink:href="#DejaVuSans-61" x="565.861328"/>
      <use xlink:href="#DejaVuSans-70" x="627.140625"/>
      <use xlink:href="#DejaVuSans-61" x="690.617188"/>
      <use xlink:href="#DejaVuSans-6e" x="751.896484"/>
      <use xlink:href="#DejaVuSans-20" x="815.275391"/>
      <use xlink:href="#DejaVuSans-28" x="847.0625"/>
      <use xlink:href="#DejaVuSans-32" x="886.076172"/>
      <use xlink:href="#DejaVuSans-30" x="949.699219"/>
      <use xlink:href="#DejaVuSans-30" x="1013.322266"/>
      <use xlink:href="#DejaVuSans-30" x="1076.945312"/>
      <use xlink:href="#DejaVuSans-29" x="1140.568359"/>
     </g>
    </g>
   </g>
  </g>
 </g>
 <defs>
  <clipPath id="p723c3567a3">
   <rect x="90" y="60.48" width="558" height="388.08"/>
  </clipPath>
 </defs>
</svg>
